<svg xmlns="http://www.w3.org/2000/svg" viewBox="0 0 1200 1200" width="1200" height="1200">
  <defs>
    <marker id="arrowhead" markerWidth="10" markerHeight="7" refX="9" refY="3.5" orient="auto">
      <polygon points="0 0, 10 3.5, 0 7" fill="#333"/>
    </marker>
  </defs>
  <rect width="1200" height="1200" fill="white"/>

  <!-- Relationships -->
  <path d="M 410 94 L 395 94 L 360 114.83333333333334" fill="none" stroke="#333" stroke-width="1" marker-end="url(#arrowhead)"/>
    <text x="377.5" y="99.41666666666667" text-anchor="middle" font-family="Arial, sans-serif" font-size="9" fill="#666" font-style="italic">type</text>
  <path d="M 550 110 L 565 110 L 770 78.13793103448276" fill="none" stroke="#333" stroke-width="1" marker-end="url(#arrowhead)"/>
    <text x="667.5" y="89.06896551724138" text-anchor="middle" font-family="Arial, sans-serif" font-size="9" fill="#666" font-style="italic">current_operator</text>
  <path d="M 220 144 L 205 144 L 164.86486486486487 110" fill="none" stroke="#333" stroke-width="1" marker-end="url(#arrowhead)"/>
    <text x="184.93243243243245" y="122" text-anchor="middle" font-family="Arial, sans-serif" font-size="9" fill="#666" font-style="italic">manufacturer</text>
  <path d="M 420 458 L 405 458 L 360 458" fill="none" stroke="#333" stroke-width="1" marker-end="url(#arrowhead)"/>
    <text x="382.5" y="453" text-anchor="middle" font-family="Arial, sans-serif" font-size="9" fill="#666" font-style="italic">type</text>
  <path d="M 420 474 L 435 474 L 463.44827586206895 222" fill="none" stroke="#333" stroke-width="1" marker-end="url(#arrowhead)"/>
    <text x="449.2241379310345" y="343" text-anchor="middle" font-family="Arial, sans-serif" font-size="9" fill="#666" font-style="italic">current_aircraft</text>
  <path d="M 540 292 L 525 292 L 514.6987951807229 222" fill="none" stroke="#333" stroke-width="1" marker-end="url(#arrowhead)"/>
    <text x="519.8493975903614" y="252" text-anchor="middle" font-family="Arial, sans-serif" font-size="9" fill="#666" font-style="italic">aircraft</text>
  <path d="M 540 308 L 525 308 L 509.27710843373495 410" fill="none" stroke="#333" stroke-width="1" marker-end="url(#arrowhead)"/>
    <text x="517.1385542168675" y="354" text-anchor="middle" font-family="Arial, sans-serif" font-size="9" fill="#666" font-style="italic">engine</text>
  <path d="M 220 302 L 235 302 L 261.6455696202532 208" fill="none" stroke="#333" stroke-width="1" marker-end="url(#arrowhead)"/>
    <text x="248.3227848101266" y="250" text-anchor="middle" font-family="Arial, sans-serif" font-size="9" fill="#666" font-style="italic">aircraft_type</text>
  <path d="M 220 318 L 235 318 L 266 410" fill="none" stroke="#333" stroke-width="1" marker-end="url(#arrowhead)"/>
    <text x="250.5" y="359" text-anchor="middle" font-family="Arial, sans-serif" font-size="9" fill="#666" font-style="italic">engine_type</text>
  <path d="M 220 474 L 205 474 L 170 480.6666666666667" fill="none" stroke="#333" stroke-width="1" marker-end="url(#arrowhead)"/>
    <text x="187.5" y="472.33333333333337" text-anchor="middle" font-family="Arial, sans-serif" font-size="9" fill="#666" font-style="italic">manufacturer</text>
  <path d="M 780 922 L 765 922 L 762.3529411764706 842" fill="none" stroke="#333" stroke-width="1" marker-end="url(#arrowhead)"/>
    <text x="763.6764705882354" y="877" text-anchor="middle" font-family="Arial, sans-serif" font-size="9" fill="#666" font-style="italic">task</text>
  <path d="M 800 172 L 815 172 L 821.5384615384615 116" fill="none" stroke="#333" stroke-width="1" marker-end="url(#arrowhead)"/>
    <text x="818.2692307692307" y="139" text-anchor="middle" font-family="Arial, sans-serif" font-size="9" fill="#666" font-style="italic">operator</text>
  <path d="M 660 188 L 645 188 L 550 150.11111111111111" fill="none" stroke="#333" stroke-width="1" marker-end="url(#arrowhead)"/>
    <text x="597.5" y="164.05555555555554" text-anchor="middle" font-family="Arial, sans-serif" font-size="9" fill="#666" font-style="italic">aircraft</text>
  <path d="M 420 848 L 405 848 L 250 755.9166666666666" fill="none" stroke="#333" stroke-width="1" marker-end="url(#arrowhead)"/>
    <text x="327.5" y="796.9583333333333" text-anchor="middle" font-family="Arial, sans-serif" font-size="9" fill="#666" font-style="italic">maintenance_plan</text>
  <path d="M 250 702 L 265 702 L 282.1311475409836 506" fill="none" stroke="#333" stroke-width="1" marker-end="url(#arrowhead)"/>
    <text x="273.5655737704918" y="599" text-anchor="middle" font-family="Arial, sans-serif" font-size="9" fill="#666" font-style="italic">engine_type</text>
  <path d="M 200 902 L 185 902 L 185.2173913043478 766" fill="none" stroke="#333" stroke-width="1" marker-end="url(#arrowhead)"/>
    <text x="185.1086956521739" y="829" text-anchor="middle" font-family="Arial, sans-serif" font-size="9" fill="#666" font-style="italic">maintenance_plan</text>
  <path d="M 340 918 L 355 918 L 420 940.4" fill="none" stroke="#333" stroke-width="1" marker-end="url(#arrowhead)"/>
    <text x="387.5" y="924.2" text-anchor="middle" font-family="Arial, sans-serif" font-size="9" fill="#666" font-style="italic">task_type</text>
  <path d="M 810 532 L 795 532 L 770 543.6363636363636" fill="none" stroke="#333" stroke-width="1" marker-end="url(#arrowhead)"/>
    <text x="782.5" y="532.8181818181818" text-anchor="middle" font-family="Arial, sans-serif" font-size="9" fill="#666" font-style="italic">workscope</text>
  <path d="M 810 548 L 825 548 L 856.271186440678 470" fill="none" stroke="#333" stroke-width="1" marker-end="url(#arrowhead)"/>
    <text x="840.6355932203389" y="504" text-anchor="middle" font-family="Arial, sans-serif" font-size="9" fill="#666" font-style="italic">repair_shop</text>
  <path d="M 810 422 L 825 422 L 858.7878787878788 330" fill="none" stroke="#333" stroke-width="1" marker-end="url(#arrowhead)"/>
    <text x="841.8939393939394" y="371" text-anchor="middle" font-family="Arial, sans-serif" font-size="9" fill="#666" font-style="italic">mro</text>
  <path d="M 820 762 L 835 762 L 860.6060606060606 628" fill="none" stroke="#333" stroke-width="1" marker-end="url(#arrowhead)"/>
    <text x="847.8030303030303" y="690" text-anchor="middle" font-family="Arial, sans-serif" font-size="9" fill="#666" font-style="italic">repair_order</text>
  <path d="M 680 778 L 665 778 L 531.7582417582418 920" fill="none" stroke="#333" stroke-width="1" marker-end="url(#arrowhead)"/>
    <text x="598.3791208791208" y="844" text-anchor="middle" font-family="Arial, sans-serif" font-size="9" fill="#666" font-style="italic">task_type</text>
  <path d="M 630 564 L 615 564 L 560 519" fill="none" stroke="#333" stroke-width="1" marker-end="url(#arrowhead)"/>
    <text x="587.5" y="536.5" text-anchor="middle" font-family="Arial, sans-serif" font-size="9" fill="#666" font-style="italic">engine</text>
  <path d="M 630 580 L 615 580 L 537.5471698113207 720" fill="none" stroke="#333" stroke-width="1" marker-end="url(#arrowhead)"/>
    <text x="576.2735849056603" y="645" text-anchor="middle" font-family="Arial, sans-serif" font-size="9" fill="#666" font-style="italic">inspection_type</text>

  <!-- Class boxes -->
  <rect x="410" y="30" width="140" height="192" fill="#D9EAD3" stroke="#333" stroke-width="1.5" rx="3"/>
    <text x="480" y="46" text-anchor="middle" font-family="Arial, sans-serif" font-size="12" font-weight="bold">Aircraft</text>
    <line x1="410" y1="54" x2="550" y2="54" stroke="#333" stroke-width="1"/>
    <text x="415" y="68" font-family="Arial, sans-serif" font-size="10">registration: TailSign</text>
    <text x="415" y="84" font-family="Arial, sans-serif" font-size="10">serial_number: MSN</text>
    <text x="415" y="100" font-family="Arial, sans-serif" font-size="10">type: AircraftType</text>
    <text x="415" y="116" font-family="Arial, sans-serif" font-size="10">current_operator: Operator</text>
    <text x="415" y="132" font-family="Arial, sans-serif" font-size="10">manufacture_date: date</text>
    <text x="415" y="148" font-family="Arial, sans-serif" font-size="10">total_flight_hours: int</text>
    <text x="415" y="164" font-family="Arial, sans-serif" font-size="10">total_cycles: int</text>
    <text x="415" y="180" font-family="Arial, sans-serif" font-size="10">status: OperationalStatus</text>
    <text x="415" y="196" font-family="Arial, sans-serif" font-size="10">maintenance_category: MaintenanceCategory</text>
    <text x="415" y="212" font-family="Arial, sans-serif" font-size="10">severity_factor: int</text>
  <rect x="30" y="30" width="140" height="80" fill="#D6E4F0" stroke="#333" stroke-width="1.5" rx="3"/>
    <text x="100" y="46" text-anchor="middle" font-family="Arial, sans-serif" font-size="12" font-weight="bold">AircraftManufacturer</text>
    <line x1="30" y1="54" x2="170" y2="54" stroke="#333" stroke-width="1"/>
    <text x="35" y="68" font-family="Arial, sans-serif" font-size="10">name: string</text>
    <text x="35" y="84" font-family="Arial, sans-serif" font-size="10">country: string</text>
    <text x="35" y="100" font-family="Arial, sans-serif" font-size="10">icao_code: string</text>
  <rect x="220" y="80" width="140" height="128" fill="#D6E4F0" stroke="#333" stroke-width="1.5" rx="3"/>
    <text x="290" y="96" text-anchor="middle" font-family="Arial, sans-serif" font-size="12" font-weight="bold">AircraftType</text>
    <line x1="220" y1="104" x2="360" y2="104" stroke="#333" stroke-width="1"/>
    <text x="225" y="118" font-family="Arial, sans-serif" font-size="10">designation: string</text>
    <text x="225" y="134" font-family="Arial, sans-serif" font-size="10">name: string</text>
    <text x="225" y="150" font-family="Arial, sans-serif" font-size="10">manufacturer: AircraftManufacturer</text>
    <text x="225" y="166" font-family="Arial, sans-serif" font-size="10">max_passengers: int</text>
    <text x="225" y="182" font-family="Arial, sans-serif" font-size="10">max_range_nm: int</text>
    <text x="225" y="198" font-family="Arial, sans-serif" font-size="10">number_of_engines: int</text>
  <rect x="420" y="410" width="140" height="128" fill="#FCE5CD" stroke="#333" stroke-width="1.5" rx="3"/>
    <text x="490" y="426" text-anchor="middle" font-family="Arial, sans-serif" font-size="12" font-weight="bold">Engine</text>
    <line x1="420" y1="434" x2="560" y2="434" stroke="#333" stroke-width="1"/>
    <text x="425" y="448" font-family="Arial, sans-serif" font-size="10">serial_number: string</text>
    <text x="425" y="464" font-family="Arial, sans-serif" font-size="10">type: EngineType</text>
    <text x="425" y="480" font-family="Arial, sans-serif" font-size="10">current_aircraft: Aircraft</text>
    <text x="425" y="496" font-family="Arial, sans-serif" font-size="10">manufacture_date: date</text>
    <text x="425" y="512" font-family="Arial, sans-serif" font-size="10">total_flight_hours: int</text>
    <text x="425" y="528" font-family="Arial, sans-serif" font-size="10">total_cycles: int</text>
  <rect x="30" y="450" width="140" height="80" fill="#D6E4F0" stroke="#333" stroke-width="1.5" rx="3"/>
    <text x="100" y="466" text-anchor="middle" font-family="Arial, sans-serif" font-size="12" font-weight="bold">EngineManufacturer</text>
    <line x1="30" y1="474" x2="170" y2="474" stroke="#333" stroke-width="1"/>
    <text x="35" y="488" font-family="Arial, sans-serif" font-size="10">name: string</text>
    <text x="35" y="504" font-family="Arial, sans-serif" font-size="10">country: string</text>
    <text x="35" y="520" font-family="Arial, sans-serif" font-size="10">icao_code: string</text>
  <rect x="540" y="260" width="140" height="112" fill="#FCE5CD" stroke="#333" stroke-width="1.5" rx="3"/>
    <text x="610" y="276" text-anchor="middle" font-family="Arial, sans-serif" font-size="12" font-weight="bold">EngineMount</text>
    <line x1="540" y1="284" x2="680" y2="284" stroke="#333" stroke-width="1"/>
    <text x="545" y="298" font-family="Arial, sans-serif" font-size="10">aircraft: Aircraft</text>
    <text x="545" y="314" font-family="Arial, sans-serif" font-size="10">engine: Engine</text>
    <text x="545" y="330" font-family="Arial, sans-serif" font-size="10">position: int</text>
    <text x="545" y="346" font-family="Arial, sans-serif" font-size="10">installed_date: date</text>
    <text x="545" y="362" font-family="Arial, sans-serif" font-size="10">removed_date: date</text>
  <rect x="220" y="270" width="140" height="64" fill="#D6E4F0" stroke="#333" stroke-width="1.5" rx="3"/>
    <text x="290" y="286" text-anchor="middle" font-family="Arial, sans-serif" font-size="12" font-weight="bold">EngineMountPossible</text>
    <line x1="220" y1="294" x2="360" y2="294" stroke="#333" stroke-width="1"/>
    <text x="225" y="308" font-family="Arial, sans-serif" font-size="10">aircraft_type: AircraftType</text>
    <text x="225" y="324" font-family="Arial, sans-serif" font-size="10">engine_type: EngineType</text>
  <rect x="220" y="410" width="140" height="96" fill="#D6E4F0" stroke="#333" stroke-width="1.5" rx="3"/>
    <text x="290" y="426" text-anchor="middle" font-family="Arial, sans-serif" font-size="12" font-weight="bold">EngineType</text>
    <line x1="220" y1="434" x2="360" y2="434" stroke="#333" stroke-width="1"/>
    <text x="225" y="448" font-family="Arial, sans-serif" font-size="10">designation: string</text>
    <text x="225" y="464" font-family="Arial, sans-serif" font-size="10">name: string</text>
    <text x="225" y="480" font-family="Arial, sans-serif" font-size="10">manufacturer: EngineManufacturer</text>
    <text x="225" y="496" font-family="Arial, sans-serif" font-size="10">thrust_lbs: int</text>
  <rect x="780" y="890" width="140" height="144" fill="#E6D9F2" stroke="#333" stroke-width="1.5" rx="3"/>
    <text x="850" y="906" text-anchor="middle" font-family="Arial, sans-serif" font-size="12" font-weight="bold">Finding</text>
    <line x1="780" y1="914" x2="920" y2="914" stroke="#333" stroke-width="1"/>
    <text x="785" y="928" font-family="Arial, sans-serif" font-size="10">task: Task</text>
    <text x="785" y="944" font-family="Arial, sans-serif" font-size="10">finding_number: string</text>
    <text x="785" y="960" font-family="Arial, sans-serif" font-size="10">description: string</text>
    <text x="785" y="976" font-family="Arial, sans-serif" font-size="10">severity: FindingSeverity</text>
    <text x="785" y="992" font-family="Arial, sans-serif" font-size="10">status: FindingStatus</text>
    <text x="785" y="1008" font-family="Arial, sans-serif" font-size="10">reported_date: date</text>
    <text x="785" y="1024" font-family="Arial, sans-serif" font-size="10">resolved_date: date</text>
  <rect x="660" y="140" width="140" height="96" fill="#D9EAD3" stroke="#333" stroke-width="1.5" rx="3"/>
    <text x="730" y="156" text-anchor="middle" font-family="Arial, sans-serif" font-size="12" font-weight="bold">FleetMember</text>
    <line x1="660" y1="164" x2="800" y2="164" stroke="#333" stroke-width="1"/>
    <text x="665" y="178" font-family="Arial, sans-serif" font-size="10">operator: Operator</text>
    <text x="665" y="194" font-family="Arial, sans-serif" font-size="10">aircraft: Aircraft</text>
    <text x="665" y="210" font-family="Arial, sans-serif" font-size="10">entry_date: date</text>
    <text x="665" y="226" font-family="Arial, sans-serif" font-size="10">exit_date: date</text>
  <rect x="420" y="720" width="140" height="144" fill="#FCE5CD" stroke="#333" stroke-width="1.5" rx="3"/>
    <text x="490" y="736" text-anchor="middle" font-family="Arial, sans-serif" font-size="12" font-weight="bold">InspectionType</text>
    <line x1="420" y1="744" x2="560" y2="744" stroke="#333" stroke-width="1"/>
    <text x="425" y="758" font-family="Arial, sans-serif" font-size="10">code: string</text>
    <text x="425" y="774" font-family="Arial, sans-serif" font-size="10">name: string</text>
    <text x="425" y="790" font-family="Arial, sans-serif" font-size="10">description: string</text>
    <text x="425" y="806" font-family="Arial, sans-serif" font-size="10">interval_hours: int</text>
    <text x="425" y="822" font-family="Arial, sans-serif" font-size="10">interval_cycles: int</text>
    <text x="425" y="838" font-family="Arial, sans-serif" font-size="10">interval_days: int</text>
    <text x="425" y="854" font-family="Arial, sans-serif" font-size="10">maintenance_plan: MaintenancePlan</text>
  <rect x="810" y="250" width="140" height="80" fill="#E6D9F2" stroke="#333" stroke-width="1.5" rx="3"/>
    <text x="880" y="266" text-anchor="middle" font-family="Arial, sans-serif" font-size="12" font-weight="bold">MRO</text>
    <line x1="810" y1="274" x2="950" y2="274" stroke="#333" stroke-width="1"/>
    <text x="815" y="288" font-family="Arial, sans-serif" font-size="10">name: string</text>
    <text x="815" y="304" font-family="Arial, sans-serif" font-size="10">location: string</text>
    <text x="815" y="320" font-family="Arial, sans-serif" font-size="10">country: string</text>
  <rect x="110" y="670" width="140" height="96" fill="#D6E4F0" stroke="#333" stroke-width="1.5" rx="3"/>
    <text x="180" y="686" text-anchor="middle" font-family="Arial, sans-serif" font-size="12" font-weight="bold">MaintenancePlan</text>
    <line x1="110" y1="694" x2="250" y2="694" stroke="#333" stroke-width="1"/>
    <text x="115" y="708" font-family="Arial, sans-serif" font-size="10">engine_type: EngineType</text>
    <text x="115" y="724" font-family="Arial, sans-serif" font-size="10">name: string</text>
    <text x="115" y="740" font-family="Arial, sans-serif" font-size="10">revision: string</text>
    <text x="115" y="756" font-family="Arial, sans-serif" font-size="10">effective_date: date</text>
  <rect x="200" y="870" width="140" height="128" fill="#D6E4F0" stroke="#333" stroke-width="1.5" rx="3"/>
    <text x="270" y="886" text-anchor="middle" font-family="Arial, sans-serif" font-size="12" font-weight="bold">MaintenancePlanTask</text>
    <line x1="200" y1="894" x2="340" y2="894" stroke="#333" stroke-width="1"/>
    <text x="205" y="908" font-family="Arial, sans-serif" font-size="10">maintenance_plan: MaintenancePlan</text>
    <text x="205" y="924" font-family="Arial, sans-serif" font-size="10">task_type: TaskType</text>
    <text x="205" y="940" font-family="Arial, sans-serif" font-size="10">task_code: string</text>
    <text x="205" y="956" font-family="Arial, sans-serif" font-size="10">description: string</text>
    <text x="205" y="972" font-family="Arial, sans-serif" font-size="10">interval_hours: int</text>
    <text x="205" y="988" font-family="Arial, sans-serif" font-size="10">interval_cycles: int</text>
  <rect x="770" y="20" width="140" height="96" fill="#D9EAD3" stroke="#333" stroke-width="1.5" rx="3"/>
    <text x="840" y="36" text-anchor="middle" font-family="Arial, sans-serif" font-size="12" font-weight="bold">Operator</text>
    <line x1="770" y1="44" x2="910" y2="44" stroke="#333" stroke-width="1"/>
    <text x="775" y="58" font-family="Arial, sans-serif" font-size="10">name: string</text>
    <text x="775" y="74" font-family="Arial, sans-serif" font-size="10">icao_code: ICAOCode</text>
    <text x="775" y="90" font-family="Arial, sans-serif" font-size="10">iata_code: IATACode</text>
    <text x="775" y="106" font-family="Arial, sans-serif" font-size="10">country: string</text>
  <rect x="810" y="500" width="140" height="128" fill="#E6D9F2" stroke="#333" stroke-width="1.5" rx="3"/>
    <text x="880" y="516" text-anchor="middle" font-family="Arial, sans-serif" font-size="12" font-weight="bold">RepairOrder</text>
    <line x1="810" y1="524" x2="950" y2="524" stroke="#333" stroke-width="1"/>
    <text x="815" y="538" font-family="Arial, sans-serif" font-size="10">workscope: Workscope</text>
    <text x="815" y="554" font-family="Arial, sans-serif" font-size="10">repair_shop: RepairShop</text>
    <text x="815" y="570" font-family="Arial, sans-serif" font-size="10">order_number: string</text>
    <text x="815" y="586" font-family="Arial, sans-serif" font-size="10">status: string</text>
    <text x="815" y="602" font-family="Arial, sans-serif" font-size="10">start_date: date</text>
    <text x="815" y="618" font-family="Arial, sans-serif" font-size="10">end_date: date</text>
  <rect x="810" y="390" width="140" height="80" fill="#E6D9F2" stroke="#333" stroke-width="1.5" rx="3"/>
    <text x="880" y="406" text-anchor="middle" font-family="Arial, sans-serif" font-size="12" font-weight="bold">RepairShop</text>
    <line x1="810" y1="414" x2="950" y2="414" stroke="#333" stroke-width="1"/>
    <text x="815" y="428" font-family="Arial, sans-serif" font-size="10">mro: MRO</text>
    <text x="815" y="444" font-family="Arial, sans-serif" font-size="10">name: string</text>
    <text x="815" y="460" font-family="Arial, sans-serif" font-size="10">specialization: string</text>
  <rect x="680" y="730" width="140" height="112" fill="#E6D9F2" stroke="#333" stroke-width="1.5" rx="3"/>
    <text x="750" y="746" text-anchor="middle" font-family="Arial, sans-serif" font-size="12" font-weight="bold">Task</text>
    <line x1="680" y1="754" x2="820" y2="754" stroke="#333" stroke-width="1"/>
    <text x="685" y="768" font-family="Arial, sans-serif" font-size="10">repair_order: RepairOrder</text>
    <text x="685" y="784" font-family="Arial, sans-serif" font-size="10">task_type: TaskType</text>
    <text x="685" y="800" font-family="Arial, sans-serif" font-size="10">task_number: string</text>
    <text x="685" y="816" font-family="Arial, sans-serif" font-size="10">description: string</text>
    <text x="685" y="832" font-family="Arial, sans-serif" font-size="10">status: string</text>
  <rect x="420" y="920" width="140" height="80" fill="#E6D9F2" stroke="#333" stroke-width="1.5" rx="3"/>
    <text x="490" y="936" text-anchor="middle" font-family="Arial, sans-serif" font-size="12" font-weight="bold">TaskType</text>
    <line x1="420" y1="944" x2="560" y2="944" stroke="#333" stroke-width="1"/>
    <text x="425" y="958" font-family="Arial, sans-serif" font-size="10">code: string</text>
    <text x="425" y="974" font-family="Arial, sans-serif" font-size="10">name: string</text>
    <text x="425" y="990" font-family="Arial, sans-serif" font-size="10">description: string</text>
  <rect x="630" y="500" width="140" height="128" fill="#FCE5CD" stroke="#333" stroke-width="1.5" rx="3"/>
    <text x="700" y="516" text-anchor="middle" font-family="Arial, sans-serif" font-size="12" font-weight="bold">Workscope</text>
    <line x1="630" y1="524" x2="770" y2="524" stroke="#333" stroke-width="1"/>
    <text x="635" y="538" font-family="Arial, sans-serif" font-size="10">name: string</text>
    <text x="635" y="554" font-family="Arial, sans-serif" font-size="10">description: string</text>
    <text x="635" y="570" font-family="Arial, sans-serif" font-size="10">engine: Engine</text>
    <text x="635" y="586" font-family="Arial, sans-serif" font-size="10">inspection_type: InspectionType</text>
    <text x="635" y="602" font-family="Arial, sans-serif" font-size="10">planned_start: date</text>
    <text x="635" y="618" font-family="Arial, sans-serif" font-size="10">planned_end: date</text>

  <!-- Legend -->
  <text x="20" y="1080" font-family="Arial, sans-serif" font-size="12" font-weight="bold">Areas:</text>
    <rect x="20" y="1090" width="14" height="14" fill="#D6E4F0" stroke="#333" stroke-width="1"/>
    <text x="40" y="1100" font-family="Arial, sans-serif" font-size="11">OEM</text>
    <rect x="20" y="1110" width="14" height="14" fill="#D9EAD3" stroke="#333" stroke-width="1"/>
    <text x="40" y="1120" font-family="Arial, sans-serif" font-size="11">Operations</text>
    <rect x="20" y="1130" width="14" height="14" fill="#FCE5CD" stroke="#333" stroke-width="1"/>
    <text x="40" y="1140" font-family="Arial, sans-serif" font-size="11">Engine Management</text>
    <rect x="20" y="1150" width="14" height="14" fill="#E6D9F2" stroke="#333" stroke-width="1"/>
    <text x="40" y="1160" font-family="Arial, sans-serif" font-size="11">Maintenance &amp; Repair</text>
</svg>