<svg xmlns="http://www.w3.org/2000/svg" viewBox="0 0 1000 1200" width="1000" height="1200">
  <defs>
    <marker id="arrowhead" markerWidth="10" markerHeight="7" refX="9" refY="3.5" orient="auto">
      <polygon points="0 0, 10 3.5, 0 7" fill="#333"/>
    </marker>
  </defs>
  <rect width="1000" height="1200" fill="white"/>

  <!-- Relationships -->
  <line x1="490" y1="170" x2="490" y2="158" stroke="#333" stroke-width="1" marker-end="url(#arrowhead)"/>
    <text x="490" y="163.8" font-family="Arial, sans-serif" font-size="10" fill="#666">*</text>
    <text x="490" y="159" text-anchor="middle" font-family="Arial, sans-serif" font-size="9" fill="#666" font-style="italic">type</text>
  <line x1="420" y1="266" x2="160" y2="86" stroke="#333" stroke-width="1" marker-end="url(#arrowhead)"/>
    <text x="394" y="243" font-family="Arial, sans-serif" font-size="10" fill="#666">*</text>
    <text x="290" y="171" text-anchor="middle" font-family="Arial, sans-serif" font-size="9" fill="#666" font-style="italic">current_operator</text>
  <line x1="560" y1="94" x2="630" y2="78" stroke="#333" stroke-width="1" marker-end="url(#arrowhead)"/>
    <text x="567" y="87.4" font-family="Arial, sans-serif" font-size="10" fill="#666">*</text>
    <text x="595" y="81" text-anchor="middle" font-family="Arial, sans-serif" font-size="9" fill="#666" font-style="italic">manufacturer</text>
  <line x1="420" y1="614" x2="360" y2="586" stroke="#333" stroke-width="1" marker-end="url(#arrowhead)"/>
    <text x="414" y="606.2" font-family="Arial, sans-serif" font-size="10" fill="#666">*</text>
    <text x="390" y="595" text-anchor="middle" font-family="Arial, sans-serif" font-size="9" fill="#666" font-style="italic">type</text>
  <line x1="490" y1="508" x2="490" y2="550" stroke="#333" stroke-width="1" marker-end="url(#arrowhead)"/>
    <text x="490" y="507.20000000000005" font-family="Arial, sans-serif" font-size="10" fill="#666">*</text>
    <text x="490" y="524" text-anchor="middle" font-family="Arial, sans-serif" font-size="9" fill="#666" font-style="italic">engine</text>
  <line x1="490" y1="380" x2="490" y2="362" stroke="#333" stroke-width="1" marker-end="url(#arrowhead)"/>
    <text x="490" y="373.2" font-family="Arial, sans-serif" font-size="10" fill="#666">*</text>
    <text x="490" y="366" text-anchor="middle" font-family="Arial, sans-serif" font-size="9" fill="#666" font-style="italic">aircraft</text>
  <line x1="220" y1="586" x2="170" y2="578" stroke="#333" stroke-width="1" marker-end="url(#arrowhead)"/>
    <text x="215" y="580.2" font-family="Arial, sans-serif" font-size="10" fill="#666">*</text>
    <text x="195" y="577" text-anchor="middle" font-family="Arial, sans-serif" font-size="9" fill="#666" font-style="italic">manufacturer</text>
  <line x1="790" y1="890" x2="800" y2="848" stroke="#333" stroke-width="1" marker-end="url(#arrowhead)"/>
    <text x="791" y="880.8" font-family="Arial, sans-serif" font-size="10" fill="#666">*</text>
    <text x="795" y="864" text-anchor="middle" font-family="Arial, sans-serif" font-size="9" fill="#666" font-style="italic">task</text>
  <line x1="200" y1="86" x2="160" y2="86" stroke="#333" stroke-width="1" marker-end="url(#arrowhead)"/>
    <text x="196" y="81" font-family="Arial, sans-serif" font-size="10" fill="#666">*</text>
    <text x="180" y="81" text-anchor="middle" font-family="Arial, sans-serif" font-size="9" fill="#666" font-style="italic">operator</text>
  <line x1="340" y1="86" x2="420" y2="94" stroke="#333" stroke-width="1" marker-end="url(#arrowhead)"/>
    <text x="348" y="81.8" font-family="Arial, sans-serif" font-size="10" fill="#666">*</text>
    <text x="380" y="85" text-anchor="middle" font-family="Arial, sans-serif" font-size="9" fill="#666" font-style="italic">type</text>
  <line x1="290" y1="170" x2="270" y2="142" stroke="#333" stroke-width="1" marker-end="url(#arrowhead)"/>
    <text x="288" y="162.2" font-family="Arial, sans-serif" font-size="10" fill="#666">*</text>
    <text x="280" y="151" text-anchor="middle" font-family="Arial, sans-serif" font-size="9" fill="#666" font-style="italic">fleet</text>
  <line x1="360" y1="226" x2="420" y2="266" stroke="#333" stroke-width="1" marker-end="url(#arrowhead)"/>
    <text x="366" y="225" font-family="Arial, sans-serif" font-size="10" fill="#666">*</text>
    <text x="390" y="241" text-anchor="middle" font-family="Arial, sans-serif" font-size="9" fill="#666" font-style="italic">aircraft</text>
  <line x1="420" y1="800" x2="370" y2="776" stroke="#333" stroke-width="1" marker-end="url(#arrowhead)"/>
    <text x="415" y="792.6" font-family="Arial, sans-serif" font-size="10" fill="#666">*</text>
    <text x="395" y="783" text-anchor="middle" font-family="Arial, sans-serif" font-size="9" fill="#666" font-style="italic">maintenance_plan</text>
  <line x1="300" y1="720" x2="290" y2="642" stroke="#333" stroke-width="1" marker-end="url(#arrowhead)"/>
    <text x="299" y="707.2" font-family="Arial, sans-serif" font-size="10" fill="#666">*</text>
    <text x="295" y="676" text-anchor="middle" font-family="Arial, sans-serif" font-size="9" fill="#666" font-style="italic">engine_type</text>
  <line x1="300" y1="870" x2="300" y2="832" stroke="#333" stroke-width="1" marker-end="url(#arrowhead)"/>
    <text x="300" y="861.2" font-family="Arial, sans-serif" font-size="10" fill="#666">*</text>
    <text x="300" y="846" text-anchor="middle" font-family="Arial, sans-serif" font-size="9" fill="#666" font-style="italic">maintenance_plan</text>
  <line x1="370" y1="942" x2="420" y2="968" stroke="#333" stroke-width="1" marker-end="url(#arrowhead)"/>
    <text x="375" y="939.6" font-family="Arial, sans-serif" font-size="10" fill="#666">*</text>
    <text x="395" y="950" text-anchor="middle" font-family="Arial, sans-serif" font-size="9" fill="#666" font-style="italic">task_type</text>
  <line x1="850" y1="612" x2="770" y2="612" stroke="#333" stroke-width="1" marker-end="url(#arrowhead)"/>
    <text x="842" y="607" font-family="Arial, sans-serif" font-size="10" fill="#666">1</text>
    <text x="810" y="607" text-anchor="middle" font-family="Arial, sans-serif" font-size="9" fill="#666" font-style="italic">workscope</text>
    <text x="778" y="607" font-family="Arial, sans-serif" font-size="10" fill="#666">1</text>
  <line x1="920" y1="540" x2="920" y2="346" stroke="#333" stroke-width="1" marker-end="url(#arrowhead)"/>
    <text x="920" y="515.6" font-family="Arial, sans-serif" font-size="10" fill="#666">*</text>
    <text x="920" y="438" text-anchor="middle" font-family="Arial, sans-serif" font-size="9" fill="#666" font-style="italic">mro</text>
  <line x1="920" y1="390" x2="920" y2="346" stroke="#333" stroke-width="1" marker-end="url(#arrowhead)"/>
    <text x="920" y="380.6" font-family="Arial, sans-serif" font-size="10" fill="#666">*</text>
    <text x="920" y="363" text-anchor="middle" font-family="Arial, sans-serif" font-size="9" fill="#666" font-style="italic">mro</text>
  <line x1="800" y1="720" x2="920" y2="684" stroke="#333" stroke-width="1" marker-end="url(#arrowhead)"/>
    <text x="812" y="711.4" font-family="Arial, sans-serif" font-size="10" fill="#666">*</text>
    <text x="860" y="697" text-anchor="middle" font-family="Arial, sans-serif" font-size="9" fill="#666" font-style="italic">repair_order</text>
  <line x1="730" y1="784" x2="560" y2="968" stroke="#333" stroke-width="1" marker-end="url(#arrowhead)"/>
    <text x="713" y="797.4" font-family="Arial, sans-serif" font-size="10" fill="#666">*</text>
    <text x="645" y="871" text-anchor="middle" font-family="Arial, sans-serif" font-size="9" fill="#666" font-style="italic">task_type</text>
  <line x1="630" y1="612" x2="560" y2="614" stroke="#333" stroke-width="1" marker-end="url(#arrowhead)"/>
    <text x="623" y="607.2" font-family="Arial, sans-serif" font-size="10" fill="#666">*</text>
    <text x="595" y="608" text-anchor="middle" font-family="Arial, sans-serif" font-size="9" fill="#666" font-style="italic">engine</text>
  <line x1="630" y1="612" x2="560" y2="800" stroke="#333" stroke-width="1" marker-end="url(#arrowhead)"/>
    <text x="623" y="625.8" font-family="Arial, sans-serif" font-size="10" fill="#666">*</text>
    <text x="595" y="701" text-anchor="middle" font-family="Arial, sans-serif" font-size="9" fill="#666" font-style="italic">inspection_type</text>

  <!-- Class boxes -->
  <rect x="420" y="170" width="140" height="192" fill="#D9EAD3" stroke="#333" stroke-width="1.5" rx="3"/>
    <text x="490" y="186" text-anchor="middle" font-family="Arial, sans-serif" font-size="12" font-weight="bold">Aircraft</text>
    <line x1="420" y1="194" x2="560" y2="194" stroke="#333" stroke-width="1"/>
    <text x="425" y="208" font-family="Arial, sans-serif" font-size="10">id: int</text>
    <text x="425" y="224" font-family="Arial, sans-serif" font-size="10">registration: TailSign</text>
    <text x="425" y="240" font-family="Arial, sans-serif" font-size="10">serial_number: MSN</text>
    <text x="425" y="256" font-family="Arial, sans-serif" font-size="10">type_id: int</text>
    <text x="425" y="272" font-family="Arial, sans-serif" font-size="10">manufacture_date: date</text>
    <text x="425" y="288" font-family="Arial, sans-serif" font-size="10">total_flight_hours: int</text>
    <text x="425" y="304" font-family="Arial, sans-serif" font-size="10">total_cycles: int</text>
    <text x="425" y="320" font-family="Arial, sans-serif" font-size="10">status: OperationalStatus</text>
    <text x="425" y="336" font-family="Arial, sans-serif" font-size="10">maintenance_category: MaintenanceCategory</text>
    <text x="425" y="352" font-family="Arial, sans-serif" font-size="10">current_operator_id: int</text>
  <rect x="630" y="30" width="140" height="96" fill="#D6E4F0" stroke="#333" stroke-width="1.5" rx="3"/>
    <text x="700" y="46" text-anchor="middle" font-family="Arial, sans-serif" font-size="12" font-weight="bold">AircraftManufacturer</text>
    <line x1="630" y1="54" x2="770" y2="54" stroke="#333" stroke-width="1"/>
    <text x="635" y="68" font-family="Arial, sans-serif" font-size="10">id: int</text>
    <text x="635" y="84" font-family="Arial, sans-serif" font-size="10">name: string</text>
    <text x="635" y="100" font-family="Arial, sans-serif" font-size="10">country: string</text>
    <text x="635" y="116" font-family="Arial, sans-serif" font-size="10">icao_code: string</text>
  <rect x="420" y="30" width="140" height="128" fill="#D6E4F0" stroke="#333" stroke-width="1.5" rx="3"/>
    <text x="490" y="46" text-anchor="middle" font-family="Arial, sans-serif" font-size="12" font-weight="bold">AircraftType</text>
    <line x1="420" y1="54" x2="560" y2="54" stroke="#333" stroke-width="1"/>
    <text x="425" y="68" font-family="Arial, sans-serif" font-size="10">id: int</text>
    <text x="425" y="84" font-family="Arial, sans-serif" font-size="10">designation: string</text>
    <text x="425" y="100" font-family="Arial, sans-serif" font-size="10">name: string</text>
    <text x="425" y="116" font-family="Arial, sans-serif" font-size="10">manufacturer_id: int</text>
    <text x="425" y="132" font-family="Arial, sans-serif" font-size="10">max_passengers: int</text>
    <text x="425" y="148" font-family="Arial, sans-serif" font-size="10">max_range_nm: int</text>
  <rect x="420" y="550" width="140" height="128" fill="#FCE5CD" stroke="#333" stroke-width="1.5" rx="3"/>
    <text x="490" y="566" text-anchor="middle" font-family="Arial, sans-serif" font-size="12" font-weight="bold">Engine</text>
    <line x1="420" y1="574" x2="560" y2="574" stroke="#333" stroke-width="1"/>
    <text x="425" y="588" font-family="Arial, sans-serif" font-size="10">id: int</text>
    <text x="425" y="604" font-family="Arial, sans-serif" font-size="10">serial_number: string</text>
    <text x="425" y="620" font-family="Arial, sans-serif" font-size="10">type_id: int</text>
    <text x="425" y="636" font-family="Arial, sans-serif" font-size="10">manufacture_date: date</text>
    <text x="425" y="652" font-family="Arial, sans-serif" font-size="10">total_flight_hours: int</text>
    <text x="425" y="668" font-family="Arial, sans-serif" font-size="10">total_cycles: int</text>
  <rect x="420" y="380" width="140" height="128" fill="#FCE5CD" stroke="#333" stroke-width="1.5" rx="3"/>
    <text x="490" y="396" text-anchor="middle" font-family="Arial, sans-serif" font-size="12" font-weight="bold">EngineAssignment</text>
    <line x1="420" y1="404" x2="560" y2="404" stroke="#333" stroke-width="1"/>
    <text x="425" y="418" font-family="Arial, sans-serif" font-size="10">id: int</text>
    <text x="425" y="434" font-family="Arial, sans-serif" font-size="10">engine_id: int</text>
    <text x="425" y="450" font-family="Arial, sans-serif" font-size="10">aircraft_id: int</text>
    <text x="425" y="466" font-family="Arial, sans-serif" font-size="10">position: int</text>
    <text x="425" y="482" font-family="Arial, sans-serif" font-size="10">installed_date: date</text>
    <text x="425" y="498" font-family="Arial, sans-serif" font-size="10">removed_date: date</text>
  <rect x="30" y="530" width="140" height="96" fill="#D6E4F0" stroke="#333" stroke-width="1.5" rx="3"/>
    <text x="100" y="546" text-anchor="middle" font-family="Arial, sans-serif" font-size="12" font-weight="bold">EngineManufacturer</text>
    <line x1="30" y1="554" x2="170" y2="554" stroke="#333" stroke-width="1"/>
    <text x="35" y="568" font-family="Arial, sans-serif" font-size="10">id: int</text>
    <text x="35" y="584" font-family="Arial, sans-serif" font-size="10">name: string</text>
    <text x="35" y="600" font-family="Arial, sans-serif" font-size="10">country: string</text>
    <text x="35" y="616" font-family="Arial, sans-serif" font-size="10">icao_code: string</text>
  <rect x="220" y="530" width="140" height="112" fill="#D6E4F0" stroke="#333" stroke-width="1.5" rx="3"/>
    <text x="290" y="546" text-anchor="middle" font-family="Arial, sans-serif" font-size="12" font-weight="bold">EngineType</text>
    <line x1="220" y1="554" x2="360" y2="554" stroke="#333" stroke-width="1"/>
    <text x="225" y="568" font-family="Arial, sans-serif" font-size="10">id: int</text>
    <text x="225" y="584" font-family="Arial, sans-serif" font-size="10">designation: string</text>
    <text x="225" y="600" font-family="Arial, sans-serif" font-size="10">name: string</text>
    <text x="225" y="616" font-family="Arial, sans-serif" font-size="10">manufacturer_id: int</text>
    <text x="225" y="632" font-family="Arial, sans-serif" font-size="10">thrust_lbs: int</text>
  <rect x="720" y="890" width="140" height="160" fill="#E6D9F2" stroke="#333" stroke-width="1.5" rx="3"/>
    <text x="790" y="906" text-anchor="middle" font-family="Arial, sans-serif" font-size="12" font-weight="bold">Finding</text>
    <line x1="720" y1="914" x2="860" y2="914" stroke="#333" stroke-width="1"/>
    <text x="725" y="928" font-family="Arial, sans-serif" font-size="10">id: int</text>
    <text x="725" y="944" font-family="Arial, sans-serif" font-size="10">task_id: int</text>
    <text x="725" y="960" font-family="Arial, sans-serif" font-size="10">finding_number: string</text>
    <text x="725" y="976" font-family="Arial, sans-serif" font-size="10">description: string</text>
    <text x="725" y="992" font-family="Arial, sans-serif" font-size="10">severity: FindingSeverity</text>
    <text x="725" y="1008" font-family="Arial, sans-serif" font-size="10">status: FindingStatus</text>
    <text x="725" y="1024" font-family="Arial, sans-serif" font-size="10">reported_date: date</text>
    <text x="725" y="1040" font-family="Arial, sans-serif" font-size="10">resolved_date: date</text>
  <rect x="200" y="30" width="140" height="112" fill="#D9EAD3" stroke="#333" stroke-width="1.5" rx="3"/>
    <text x="270" y="46" text-anchor="middle" font-family="Arial, sans-serif" font-size="12" font-weight="bold">Fleet</text>
    <line x1="200" y1="54" x2="340" y2="54" stroke="#333" stroke-width="1"/>
    <text x="205" y="68" font-family="Arial, sans-serif" font-size="10">id: int</text>
    <text x="205" y="84" font-family="Arial, sans-serif" font-size="10">name: string</text>
    <text x="205" y="100" font-family="Arial, sans-serif" font-size="10">operator_id: int</text>
    <text x="205" y="116" font-family="Arial, sans-serif" font-size="10">type_id: int</text>
    <text x="205" y="132" font-family="Arial, sans-serif" font-size="10">base_location: string</text>
  <rect x="220" y="170" width="140" height="112" fill="#D9EAD3" stroke="#333" stroke-width="1.5" rx="3"/>
    <text x="290" y="186" text-anchor="middle" font-family="Arial, sans-serif" font-size="12" font-weight="bold">FleetMember</text>
    <line x1="220" y1="194" x2="360" y2="194" stroke="#333" stroke-width="1"/>
    <text x="225" y="208" font-family="Arial, sans-serif" font-size="10">id: int</text>
    <text x="225" y="224" font-family="Arial, sans-serif" font-size="10">fleet_id: int</text>
    <text x="225" y="240" font-family="Arial, sans-serif" font-size="10">aircraft_id: int</text>
    <text x="225" y="256" font-family="Arial, sans-serif" font-size="10">entry_date: date</text>
    <text x="225" y="272" font-family="Arial, sans-serif" font-size="10">exit_date: date</text>
  <rect x="420" y="720" width="140" height="160" fill="#FCE5CD" stroke="#333" stroke-width="1.5" rx="3"/>
    <text x="490" y="736" text-anchor="middle" font-family="Arial, sans-serif" font-size="12" font-weight="bold">InspectionType</text>
    <line x1="420" y1="744" x2="560" y2="744" stroke="#333" stroke-width="1"/>
    <text x="425" y="758" font-family="Arial, sans-serif" font-size="10">id: int</text>
    <text x="425" y="774" font-family="Arial, sans-serif" font-size="10">code: string</text>
    <text x="425" y="790" font-family="Arial, sans-serif" font-size="10">name: string</text>
    <text x="425" y="806" font-family="Arial, sans-serif" font-size="10">description: string</text>
    <text x="425" y="822" font-family="Arial, sans-serif" font-size="10">interval_hours: int</text>
    <text x="425" y="838" font-family="Arial, sans-serif" font-size="10">interval_cycles: int</text>
    <text x="425" y="854" font-family="Arial, sans-serif" font-size="10">interval_days: int</text>
    <text x="425" y="870" font-family="Arial, sans-serif" font-size="10">maintenance_plan_id: int</text>
  <rect x="850" y="250" width="140" height="96" fill="#E6D9F2" stroke="#333" stroke-width="1.5" rx="3"/>
    <text x="920" y="266" text-anchor="middle" font-family="Arial, sans-serif" font-size="12" font-weight="bold">MRO</text>
    <line x1="850" y1="274" x2="990" y2="274" stroke="#333" stroke-width="1"/>
    <text x="855" y="288" font-family="Arial, sans-serif" font-size="10">id: int</text>
    <text x="855" y="304" font-family="Arial, sans-serif" font-size="10">name: string</text>
    <text x="855" y="320" font-family="Arial, sans-serif" font-size="10">location: string</text>
    <text x="855" y="336" font-family="Arial, sans-serif" font-size="10">country: string</text>
  <rect x="230" y="720" width="140" height="112" fill="#D6E4F0" stroke="#333" stroke-width="1.5" rx="3"/>
    <text x="300" y="736" text-anchor="middle" font-family="Arial, sans-serif" font-size="12" font-weight="bold">MaintenancePlan</text>
    <line x1="230" y1="744" x2="370" y2="744" stroke="#333" stroke-width="1"/>
    <text x="235" y="758" font-family="Arial, sans-serif" font-size="10">id: int</text>
    <text x="235" y="774" font-family="Arial, sans-serif" font-size="10">engine_type_id: int</text>
    <text x="235" y="790" font-family="Arial, sans-serif" font-size="10">name: string</text>
    <text x="235" y="806" font-family="Arial, sans-serif" font-size="10">revision: string</text>
    <text x="235" y="822" font-family="Arial, sans-serif" font-size="10">effective_date: date</text>
  <rect x="230" y="870" width="140" height="144" fill="#D6E4F0" stroke="#333" stroke-width="1.5" rx="3"/>
    <text x="300" y="886" text-anchor="middle" font-family="Arial, sans-serif" font-size="12" font-weight="bold">MaintenancePlanTask</text>
    <line x1="230" y1="894" x2="370" y2="894" stroke="#333" stroke-width="1"/>
    <text x="235" y="908" font-family="Arial, sans-serif" font-size="10">id: int</text>
    <text x="235" y="924" font-family="Arial, sans-serif" font-size="10">maintenance_plan_id: int</text>
    <text x="235" y="940" font-family="Arial, sans-serif" font-size="10">task_type_id: int</text>
    <text x="235" y="956" font-family="Arial, sans-serif" font-size="10">task_code: string</text>
    <text x="235" y="972" font-family="Arial, sans-serif" font-size="10">description: string</text>
    <text x="235" y="988" font-family="Arial, sans-serif" font-size="10">interval_hours: int</text>
    <text x="235" y="1004" font-family="Arial, sans-serif" font-size="10">interval_cycles: int</text>
  <rect x="20" y="30" width="140" height="112" fill="#D9EAD3" stroke="#333" stroke-width="1.5" rx="3"/>
    <text x="90" y="46" text-anchor="middle" font-family="Arial, sans-serif" font-size="12" font-weight="bold">Operator</text>
    <line x1="20" y1="54" x2="160" y2="54" stroke="#333" stroke-width="1"/>
    <text x="25" y="68" font-family="Arial, sans-serif" font-size="10">id: int</text>
    <text x="25" y="84" font-family="Arial, sans-serif" font-size="10">name: string</text>
    <text x="25" y="100" font-family="Arial, sans-serif" font-size="10">icao_code: ICAOCode</text>
    <text x="25" y="116" font-family="Arial, sans-serif" font-size="10">iata_code: IATACode</text>
    <text x="25" y="132" font-family="Arial, sans-serif" font-size="10">country: string</text>
  <rect x="850" y="540" width="140" height="144" fill="#E6D9F2" stroke="#333" stroke-width="1.5" rx="3"/>
    <text x="920" y="556" text-anchor="middle" font-family="Arial, sans-serif" font-size="12" font-weight="bold">RepairOrder</text>
    <line x1="850" y1="564" x2="990" y2="564" stroke="#333" stroke-width="1"/>
    <text x="855" y="578" font-family="Arial, sans-serif" font-size="10">id: int</text>
    <text x="855" y="594" font-family="Arial, sans-serif" font-size="10">workscope_id: int</text>
    <text x="855" y="610" font-family="Arial, sans-serif" font-size="10">mro_id: int</text>
    <text x="855" y="626" font-family="Arial, sans-serif" font-size="10">order_number: string</text>
    <text x="855" y="642" font-family="Arial, sans-serif" font-size="10">status: string</text>
    <text x="855" y="658" font-family="Arial, sans-serif" font-size="10">start_date: date</text>
    <text x="855" y="674" font-family="Arial, sans-serif" font-size="10">end_date: date</text>
  <rect x="850" y="390" width="140" height="96" fill="#E6D9F2" stroke="#333" stroke-width="1.5" rx="3"/>
    <text x="920" y="406" text-anchor="middle" font-family="Arial, sans-serif" font-size="12" font-weight="bold">RepairShop</text>
    <line x1="850" y1="414" x2="990" y2="414" stroke="#333" stroke-width="1"/>
    <text x="855" y="428" font-family="Arial, sans-serif" font-size="10">id: int</text>
    <text x="855" y="444" font-family="Arial, sans-serif" font-size="10">mro_id: int</text>
    <text x="855" y="460" font-family="Arial, sans-serif" font-size="10">name: string</text>
    <text x="855" y="476" font-family="Arial, sans-serif" font-size="10">specialization: string</text>
  <rect x="730" y="720" width="140" height="128" fill="#E6D9F2" stroke="#333" stroke-width="1.5" rx="3"/>
    <text x="800" y="736" text-anchor="middle" font-family="Arial, sans-serif" font-size="12" font-weight="bold">Task</text>
    <line x1="730" y1="744" x2="870" y2="744" stroke="#333" stroke-width="1"/>
    <text x="735" y="758" font-family="Arial, sans-serif" font-size="10">id: int</text>
    <text x="735" y="774" font-family="Arial, sans-serif" font-size="10">repair_order_id: int</text>
    <text x="735" y="790" font-family="Arial, sans-serif" font-size="10">task_type_id: int</text>
    <text x="735" y="806" font-family="Arial, sans-serif" font-size="10">task_number: string</text>
    <text x="735" y="822" font-family="Arial, sans-serif" font-size="10">description: string</text>
    <text x="735" y="838" font-family="Arial, sans-serif" font-size="10">status: string</text>
  <rect x="420" y="920" width="140" height="96" fill="#E6D9F2" stroke="#333" stroke-width="1.5" rx="3"/>
    <text x="490" y="936" text-anchor="middle" font-family="Arial, sans-serif" font-size="12" font-weight="bold">TaskType</text>
    <line x1="420" y1="944" x2="560" y2="944" stroke="#333" stroke-width="1"/>
    <text x="425" y="958" font-family="Arial, sans-serif" font-size="10">id: int</text>
    <text x="425" y="974" font-family="Arial, sans-serif" font-size="10">code: string</text>
    <text x="425" y="990" font-family="Arial, sans-serif" font-size="10">name: string</text>
    <text x="425" y="1006" font-family="Arial, sans-serif" font-size="10">description: string</text>
  <rect x="630" y="540" width="140" height="144" fill="#FCE5CD" stroke="#333" stroke-width="1.5" rx="3"/>
    <text x="700" y="556" text-anchor="middle" font-family="Arial, sans-serif" font-size="12" font-weight="bold">Workscope</text>
    <line x1="630" y1="564" x2="770" y2="564" stroke="#333" stroke-width="1"/>
    <text x="635" y="578" font-family="Arial, sans-serif" font-size="10">id: int</text>
    <text x="635" y="594" font-family="Arial, sans-serif" font-size="10">name: string</text>
    <text x="635" y="610" font-family="Arial, sans-serif" font-size="10">description: string</text>
    <text x="635" y="626" font-family="Arial, sans-serif" font-size="10">engine_id: int</text>
    <text x="635" y="642" font-family="Arial, sans-serif" font-size="10">inspection_type_id: int</text>
    <text x="635" y="658" font-family="Arial, sans-serif" font-size="10">planned_start: date</text>
    <text x="635" y="674" font-family="Arial, sans-serif" font-size="10">planned_end: date</text>

  <!-- Legend -->
  <text x="20" y="1080" font-family="Arial, sans-serif" font-size="12" font-weight="bold">Areas:</text>
    <rect x="20" y="1090" width="14" height="14" fill="#D6E4F0" stroke="#333" stroke-width="1"/>
    <text x="40" y="1100" font-family="Arial, sans-serif" font-size="11">OEM</text>
    <rect x="20" y="1110" width="14" height="14" fill="#D9EAD3" stroke="#333" stroke-width="1"/>
    <text x="40" y="1120" font-family="Arial, sans-serif" font-size="11">Operations</text>
    <rect x="20" y="1130" width="14" height="14" fill="#FCE5CD" stroke="#333" stroke-width="1"/>
    <text x="40" y="1140" font-family="Arial, sans-serif" font-size="11">Engine Management</text>
    <rect x="20" y="1150" width="14" height="14" fill="#E6D9F2" stroke="#333" stroke-width="1"/>
    <text x="40" y="1160" font-family="Arial, sans-serif" font-size="11">Maintenance &amp; Repair</text>
</svg>