<svg xmlns="http://www.w3.org/2000/svg" viewBox="0 0 1000 1200" width="1000" height="1200">
  <defs>
    <marker id="arrowhead" markerWidth="10" markerHeight="7" refX="9" refY="3.5" orient="auto">
      <polygon points="0 0, 10 3.5, 0 7" fill="#333"/>
    </marker>
  </defs>
  <rect width="1000" height="1200" fill="white"/>

  <!-- Relationships -->
  <line x1="490" y1="170" x2="490" y2="60" stroke="#333" stroke-width="1" marker-end="url(#arrowhead)"/>
    <text x="490" y="154" font-family="Arial, sans-serif" font-size="10" fill="#666">*</text>
    <text x="490" y="110" text-anchor="middle" font-family="Arial, sans-serif" font-size="9" fill="#666" font-style="italic">type</text>
  <line x1="420" y1="185" x2="160" y2="45" stroke="#333" stroke-width="1" marker-end="url(#arrowhead)"/>
    <text x="394" y="166" font-family="Arial, sans-serif" font-size="10" fill="#666">*</text>
    <text x="290" y="110" text-anchor="middle" font-family="Arial, sans-serif" font-size="9" fill="#666" font-style="italic">current_operator</text>
  <line x1="560" y1="45" x2="630" y2="45" stroke="#333" stroke-width="1" marker-end="url(#arrowhead)"/>
    <text x="567" y="40" font-family="Arial, sans-serif" font-size="10" fill="#666">*</text>
    <text x="595" y="40" text-anchor="middle" font-family="Arial, sans-serif" font-size="9" fill="#666" font-style="italic">manufacturer</text>
  <line x1="420" y1="565" x2="360" y2="545" stroke="#333" stroke-width="1" marker-end="url(#arrowhead)"/>
    <text x="414" y="558" font-family="Arial, sans-serif" font-size="10" fill="#666">*</text>
    <text x="390" y="550" text-anchor="middle" font-family="Arial, sans-serif" font-size="9" fill="#666" font-style="italic">type</text>
  <line x1="490" y1="410" x2="490" y2="550" stroke="#333" stroke-width="1" marker-end="url(#arrowhead)"/>
    <text x="490" y="419" font-family="Arial, sans-serif" font-size="10" fill="#666">*</text>
    <text x="490" y="475" text-anchor="middle" font-family="Arial, sans-serif" font-size="9" fill="#666" font-style="italic">engine</text>
  <line x1="490" y1="380" x2="490" y2="200" stroke="#333" stroke-width="1" marker-end="url(#arrowhead)"/>
    <text x="490" y="357" font-family="Arial, sans-serif" font-size="10" fill="#666">*</text>
    <text x="490" y="285" text-anchor="middle" font-family="Arial, sans-serif" font-size="9" fill="#666" font-style="italic">aircraft</text>
  <line x1="220" y1="545" x2="170" y2="545" stroke="#333" stroke-width="1" marker-end="url(#arrowhead)"/>
    <text x="215" y="540" font-family="Arial, sans-serif" font-size="10" fill="#666">*</text>
    <text x="195" y="540" text-anchor="middle" font-family="Arial, sans-serif" font-size="9" fill="#666" font-style="italic">manufacturer</text>
  <line x1="790" y1="890" x2="800" y2="750" stroke="#333" stroke-width="1" marker-end="url(#arrowhead)"/>
    <text x="791" y="871" font-family="Arial, sans-serif" font-size="10" fill="#666">*</text>
    <text x="795" y="815" text-anchor="middle" font-family="Arial, sans-serif" font-size="9" fill="#666" font-style="italic">task</text>
  <line x1="200" y1="45" x2="160" y2="45" stroke="#333" stroke-width="1" marker-end="url(#arrowhead)"/>
    <text x="196" y="40" font-family="Arial, sans-serif" font-size="10" fill="#666">*</text>
    <text x="180" y="40" text-anchor="middle" font-family="Arial, sans-serif" font-size="9" fill="#666" font-style="italic">operator</text>
  <line x1="340" y1="45" x2="420" y2="45" stroke="#333" stroke-width="1" marker-end="url(#arrowhead)"/>
    <text x="348" y="40" font-family="Arial, sans-serif" font-size="10" fill="#666">*</text>
    <text x="380" y="40" text-anchor="middle" font-family="Arial, sans-serif" font-size="9" fill="#666" font-style="italic">type</text>
  <line x1="290" y1="170" x2="270" y2="60" stroke="#333" stroke-width="1" marker-end="url(#arrowhead)"/>
    <text x="288" y="154" font-family="Arial, sans-serif" font-size="10" fill="#666">*</text>
    <text x="280" y="110" text-anchor="middle" font-family="Arial, sans-serif" font-size="9" fill="#666" font-style="italic">fleet</text>
  <line x1="360" y1="185" x2="420" y2="185" stroke="#333" stroke-width="1" marker-end="url(#arrowhead)"/>
    <text x="366" y="180" font-family="Arial, sans-serif" font-size="10" fill="#666">*</text>
    <text x="390" y="180" text-anchor="middle" font-family="Arial, sans-serif" font-size="9" fill="#666" font-style="italic">aircraft</text>
  <line x1="420" y1="735" x2="370" y2="735" stroke="#333" stroke-width="1" marker-end="url(#arrowhead)"/>
    <text x="415" y="730" font-family="Arial, sans-serif" font-size="10" fill="#666">*</text>
    <text x="395" y="730" text-anchor="middle" font-family="Arial, sans-serif" font-size="9" fill="#666" font-style="italic">maintenance_plan</text>
  <line x1="300" y1="720" x2="290" y2="560" stroke="#333" stroke-width="1" marker-end="url(#arrowhead)"/>
    <text x="299" y="699" font-family="Arial, sans-serif" font-size="10" fill="#666">*</text>
    <text x="295" y="635" text-anchor="middle" font-family="Arial, sans-serif" font-size="9" fill="#666" font-style="italic">engine_type</text>
  <line x1="300" y1="870" x2="300" y2="750" stroke="#333" stroke-width="1" marker-end="url(#arrowhead)"/>
    <text x="300" y="853" font-family="Arial, sans-serif" font-size="10" fill="#666">*</text>
    <text x="300" y="805" text-anchor="middle" font-family="Arial, sans-serif" font-size="9" fill="#666" font-style="italic">maintenance_plan</text>
  <line x1="370" y1="885" x2="420" y2="935" stroke="#333" stroke-width="1" marker-end="url(#arrowhead)"/>
    <text x="375" y="885" font-family="Arial, sans-serif" font-size="10" fill="#666">*</text>
    <text x="395" y="905" text-anchor="middle" font-family="Arial, sans-serif" font-size="9" fill="#666" font-style="italic">task_type</text>
  <line x1="850" y1="555" x2="770" y2="555" stroke="#333" stroke-width="1" marker-end="url(#arrowhead)"/>
    <text x="842" y="550" font-family="Arial, sans-serif" font-size="10" fill="#666">1</text>
    <text x="810" y="550" text-anchor="middle" font-family="Arial, sans-serif" font-size="9" fill="#666" font-style="italic">workscope</text>
    <text x="778" y="550" font-family="Arial, sans-serif" font-size="10" fill="#666">1</text>
  <line x1="920" y1="540" x2="920" y2="280" stroke="#333" stroke-width="1" marker-end="url(#arrowhead)"/>
    <text x="920" y="509" font-family="Arial, sans-serif" font-size="10" fill="#666">*</text>
    <text x="920" y="405" text-anchor="middle" font-family="Arial, sans-serif" font-size="9" fill="#666" font-style="italic">mro</text>
  <line x1="920" y1="390" x2="920" y2="280" stroke="#333" stroke-width="1" marker-end="url(#arrowhead)"/>
    <text x="920" y="374" font-family="Arial, sans-serif" font-size="10" fill="#666">*</text>
    <text x="920" y="330" text-anchor="middle" font-family="Arial, sans-serif" font-size="9" fill="#666" font-style="italic">mro</text>
  <line x1="800" y1="720" x2="920" y2="570" stroke="#333" stroke-width="1" marker-end="url(#arrowhead)"/>
    <text x="812" y="700" font-family="Arial, sans-serif" font-size="10" fill="#666">*</text>
    <text x="860" y="640" text-anchor="middle" font-family="Arial, sans-serif" font-size="9" fill="#666" font-style="italic">repair_order</text>
  <line x1="730" y1="735" x2="560" y2="935" stroke="#333" stroke-width="1" marker-end="url(#arrowhead)"/>
    <text x="713" y="750" font-family="Arial, sans-serif" font-size="10" fill="#666">*</text>
    <text x="645" y="830" text-anchor="middle" font-family="Arial, sans-serif" font-size="9" fill="#666" font-style="italic">task_type</text>
  <line x1="630" y1="555" x2="560" y2="565" stroke="#333" stroke-width="1" marker-end="url(#arrowhead)"/>
    <text x="623" y="551" font-family="Arial, sans-serif" font-size="10" fill="#666">*</text>
    <text x="595" y="555" text-anchor="middle" font-family="Arial, sans-serif" font-size="9" fill="#666" font-style="italic">engine</text>
  <line x1="630" y1="555" x2="560" y2="735" stroke="#333" stroke-width="1" marker-end="url(#arrowhead)"/>
    <text x="623" y="568" font-family="Arial, sans-serif" font-size="10" fill="#666">*</text>
    <text x="595" y="640" text-anchor="middle" font-family="Arial, sans-serif" font-size="9" fill="#666" font-style="italic">inspection_type</text>

  <!-- Class boxes -->
  <rect x="420" y="170" width="140" height="30" fill="#D9EAD3" stroke="#333" stroke-width="1.5" rx="3"/>
    <text x="490" y="189" text-anchor="middle" font-family="Arial, sans-serif" font-size="12" font-weight="bold">Aircraft</text>
  <rect x="630" y="30" width="140" height="30" fill="#D6E4F0" stroke="#333" stroke-width="1.5" rx="3"/>
    <text x="700" y="49" text-anchor="middle" font-family="Arial, sans-serif" font-size="12" font-weight="bold">AircraftManufacturer</text>
  <rect x="420" y="30" width="140" height="30" fill="#D6E4F0" stroke="#333" stroke-width="1.5" rx="3"/>
    <text x="490" y="49" text-anchor="middle" font-family="Arial, sans-serif" font-size="12" font-weight="bold">AircraftType</text>
  <rect x="420" y="550" width="140" height="30" fill="#FCE5CD" stroke="#333" stroke-width="1.5" rx="3"/>
    <text x="490" y="569" text-anchor="middle" font-family="Arial, sans-serif" font-size="12" font-weight="bold">Engine</text>
  <rect x="420" y="380" width="140" height="30" fill="#FCE5CD" stroke="#333" stroke-width="1.5" rx="3"/>
    <text x="490" y="399" text-anchor="middle" font-family="Arial, sans-serif" font-size="12" font-weight="bold">EngineAssignment</text>
  <rect x="30" y="530" width="140" height="30" fill="#D6E4F0" stroke="#333" stroke-width="1.5" rx="3"/>
    <text x="100" y="549" text-anchor="middle" font-family="Arial, sans-serif" font-size="12" font-weight="bold">EngineManufacturer</text>
  <rect x="220" y="530" width="140" height="30" fill="#D6E4F0" stroke="#333" stroke-width="1.5" rx="3"/>
    <text x="290" y="549" text-anchor="middle" font-family="Arial, sans-serif" font-size="12" font-weight="bold">EngineType</text>
  <rect x="720" y="890" width="140" height="30" fill="#E6D9F2" stroke="#333" stroke-width="1.5" rx="3"/>
    <text x="790" y="909" text-anchor="middle" font-family="Arial, sans-serif" font-size="12" font-weight="bold">Finding</text>
  <rect x="200" y="30" width="140" height="30" fill="#D9EAD3" stroke="#333" stroke-width="1.5" rx="3"/>
    <text x="270" y="49" text-anchor="middle" font-family="Arial, sans-serif" font-size="12" font-weight="bold">Fleet</text>
  <rect x="220" y="170" width="140" height="30" fill="#D9EAD3" stroke="#333" stroke-width="1.5" rx="3"/>
    <text x="290" y="189" text-anchor="middle" font-family="Arial, sans-serif" font-size="12" font-weight="bold">FleetMember</text>
  <rect x="420" y="720" width="140" height="30" fill="#FCE5CD" stroke="#333" stroke-width="1.5" rx="3"/>
    <text x="490" y="739" text-anchor="middle" font-family="Arial, sans-serif" font-size="12" font-weight="bold">InspectionType</text>
  <rect x="850" y="250" width="140" height="30" fill="#E6D9F2" stroke="#333" stroke-width="1.5" rx="3"/>
    <text x="920" y="269" text-anchor="middle" font-family="Arial, sans-serif" font-size="12" font-weight="bold">MRO</text>
  <rect x="230" y="720" width="140" height="30" fill="#D6E4F0" stroke="#333" stroke-width="1.5" rx="3"/>
    <text x="300" y="739" text-anchor="middle" font-family="Arial, sans-serif" font-size="12" font-weight="bold">MaintenancePlan</text>
  <rect x="230" y="870" width="140" height="30" fill="#D6E4F0" stroke="#333" stroke-width="1.5" rx="3"/>
    <text x="300" y="889" text-anchor="middle" font-family="Arial, sans-serif" font-size="12" font-weight="bold">MaintenancePlanTask</text>
  <rect x="20" y="30" width="140" height="30" fill="#D9EAD3" stroke="#333" stroke-width="1.5" rx="3"/>
    <text x="90" y="49" text-anchor="middle" font-family="Arial, sans-serif" font-size="12" font-weight="bold">Operator</text>
  <rect x="850" y="540" width="140" height="30" fill="#E6D9F2" stroke="#333" stroke-width="1.5" rx="3"/>
    <text x="920" y="559" text-anchor="middle" font-family="Arial, sans-serif" font-size="12" font-weight="bold">RepairOrder</text>
  <rect x="850" y="390" width="140" height="30" fill="#E6D9F2" stroke="#333" stroke-width="1.5" rx="3"/>
    <text x="920" y="409" text-anchor="middle" font-family="Arial, sans-serif" font-size="12" font-weight="bold">RepairShop</text>
  <rect x="730" y="720" width="140" height="30" fill="#E6D9F2" stroke="#333" stroke-width="1.5" rx="3"/>
    <text x="800" y="739" text-anchor="middle" font-family="Arial, sans-serif" font-size="12" font-weight="bold">Task</text>
  <rect x="420" y="920" width="140" height="30" fill="#E6D9F2" stroke="#333" stroke-width="1.5" rx="3"/>
    <text x="490" y="939" text-anchor="middle" font-family="Arial, sans-serif" font-size="12" font-weight="bold">TaskType</text>
  <rect x="630" y="540" width="140" height="30" fill="#FCE5CD" stroke="#333" stroke-width="1.5" rx="3"/>
    <text x="700" y="559" text-anchor="middle" font-family="Arial, sans-serif" font-size="12" font-weight="bold">Workscope</text>

  <!-- Legend -->
  <text x="20" y="1080" font-family="Arial, sans-serif" font-size="12" font-weight="bold">Areas:</text>
    <rect x="20" y="1090" width="14" height="14" fill="#D6E4F0" stroke="#333" stroke-width="1"/>
    <text x="40" y="1100" font-family="Arial, sans-serif" font-size="11">OEM</text>
    <rect x="20" y="1110" width="14" height="14" fill="#D9EAD3" stroke="#333" stroke-width="1"/>
    <text x="40" y="1120" font-family="Arial, sans-serif" font-size="11">Operations</text>
    <rect x="20" y="1130" width="14" height="14" fill="#FCE5CD" stroke="#333" stroke-width="1"/>
    <text x="40" y="1140" font-family="Arial, sans-serif" font-size="11">Engine Management</text>
    <rect x="20" y="1150" width="14" height="14" fill="#E6D9F2" stroke="#333" stroke-width="1"/>
    <text x="40" y="1160" font-family="Arial, sans-serif" font-size="11">Maintenance &amp; Repair</text>
</svg>