<svg xmlns="http://www.w3.org/2000/svg" viewBox="0 0 1290 1142" width="1290" height="1142">
  <defs>
    <marker id="arrowhead" markerWidth="10" markerHeight="7" refX="9" refY="3.5" orient="auto">
      <polygon points="0 0, 10 3.5, 0 7" fill="#333"/>
    </marker>
  </defs>
  <rect width="1290" height="1142" fill="white"/>

  <!-- Relationships -->
  <path d="M 410 206 L 385 206 L 350 194.92307692307693" fill="none" stroke="#333" stroke-width="1" marker-end="url(#arrowhead)"/>
  <text x="367.5" y="195.46153846153845" text-anchor="middle" font-family="Arial, sans-serif" font-size="9" fill="#666" font-style="italic">type</text>
  <path d="M 550 222 L 575 222 L 680 166.1" fill="none" stroke="#333" stroke-width="1" marker-end="url(#arrowhead)"/>
  <text x="627.5" y="189.05" text-anchor="middle" font-family="Arial, sans-serif" font-size="9" fill="#666" font-style="italic">current_operator</text>
  <path d="M 350 144 A 25 25 0 1 0 350 122" fill="none" stroke="#333" stroke-width="1" marker-end="url(#arrowhead)"/>
  <text x="380" y="133" text-anchor="start" font-family="Arial, sans-serif" font-size="9" fill="#666" font-style="italic">super_type</text>
  <path d="M 210 192 L 185 192 L 160 178.66666666666666" fill="none" stroke="#333" stroke-width="1" marker-end="url(#arrowhead)"/>
  <text x="172.5" y="180.33333333333331" text-anchor="middle" font-family="Arial, sans-serif" font-size="9" fill="#666" font-style="italic">manufacturer</text>
  <path d="M 1100 238 L 1075 238 L 820 156.39999999999998" fill="none" stroke="#333" stroke-width="1" marker-end="url(#arrowhead)"/>
  <text x="947.5" y="192.2" text-anchor="middle" font-family="Arial, sans-serif" font-size="9" fill="#666" font-style="italic">own_operator</text>
  <path d="M 1100 254 L 1075 254 L 1000 269.29411764705884" fill="none" stroke="#333" stroke-width="1" marker-end="url(#arrowhead)"/>
  <text x="1037.5" y="256.6470588235294" text-anchor="middle" font-family="Arial, sans-serif" font-size="9" fill="#666" font-style="italic">camo</text>
  <path d="M 410 640 L 385 640 L 320 660.25" fill="none" stroke="#333" stroke-width="1" marker-end="url(#arrowhead)"/>
  <text x="352.5" y="645.125" text-anchor="middle" font-family="Arial, sans-serif" font-size="9" fill="#666" font-style="italic">type</text>
  <path d="M 800 436 L 775 436 L 550 279.75" fill="none" stroke="#333" stroke-width="1" marker-end="url(#arrowhead)"/>
  <text x="662.5" y="352.875" text-anchor="middle" font-family="Arial, sans-serif" font-size="9" fill="#666" font-style="italic">aircraft</text>
  <path d="M 940 468 L 965 468 L 1114.2424242424242 268" fill="none" stroke="#333" stroke-width="1" marker-end="url(#arrowhead)"/>
  <text x="1039.621212121212" y="363" text-anchor="middle" font-family="Arial, sans-serif" font-size="9" fill="#666" font-style="italic">airline</text>
  <path d="M 800 484 L 775 484 L 550 610.5625" fill="none" stroke="#333" stroke-width="1" marker-end="url(#arrowhead)"/>
  <text x="662.5" y="542.28125" text-anchor="middle" font-family="Arial, sans-serif" font-size="9" fill="#666" font-style="italic">engine</text>
  <path d="M 800 500 L 775 500 L 764.4067796610169 570" fill="none" stroke="#333" stroke-width="1" marker-end="url(#arrowhead)"/>
  <text x="769.7033898305085" y="530" text-anchor="middle" font-family="Arial, sans-serif" font-size="9" fill="#666" font-style="italic">event</text>
  <path d="M 300 430 L 275 430 L 180 436.3157894736842" fill="none" stroke="#333" stroke-width="1" marker-end="url(#arrowhead)"/>
  <text x="227.5" y="428.1578947368421" text-anchor="middle" font-family="Arial, sans-serif" font-size="9" fill="#666" font-style="italic">base</text>
  <path d="M 300 446 L 275 446 L 180 499.05263157894734" fill="none" stroke="#333" stroke-width="1" marker-end="url(#arrowhead)"/>
  <text x="227.5" y="467.52631578947364" text-anchor="middle" font-family="Arial, sans-serif" font-size="9" fill="#666" font-style="italic">cradle</text>
  <path d="M 300 462 L 275 462 L 263.0841121495327 620" fill="none" stroke="#333" stroke-width="1" marker-end="url(#arrowhead)"/>
  <text x="269.0420560747664" y="536" text-anchor="middle" font-family="Arial, sans-serif" font-size="9" fill="#666" font-style="italic">engine_type</text>
  <path d="M 180 540 L 205 540 L 221.1764705882353 620" fill="none" stroke="#333" stroke-width="1" marker-end="url(#arrowhead)"/>
  <text x="213.08823529411765" y="575" text-anchor="middle" font-family="Arial, sans-serif" font-size="9" fill="#666" font-style="italic">engine_type</text>
  <path d="M 490 434 L 465 434 L 440 434.8333333333333" fill="none" stroke="#333" stroke-width="1" marker-end="url(#arrowhead)"/>
  <text x="452.5" y="429.41666666666663" text-anchor="middle" font-family="Arial, sans-serif" font-size="9" fill="#666" font-style="italic">stand</text>
  <path d="M 490 450 L 465 450 L 482.85714285714283 590" fill="none" stroke="#333" stroke-width="1" marker-end="url(#arrowhead)"/>
  <text x="473.92857142857144" y="515" text-anchor="middle" font-family="Arial, sans-serif" font-size="9" fill="#666" font-style="italic">engine</text>
  <path d="M 320 654 A 25 25 0 1 0 320 632" fill="none" stroke="#333" stroke-width="1" marker-end="url(#arrowhead)"/>
  <text x="350" y="643" text-anchor="start" font-family="Arial, sans-serif" font-size="9" fill="#666" font-style="italic">super_type</text>
  <path d="M 180 702 L 155 702 L 132.6530612244898 760" fill="none" stroke="#333" stroke-width="1" marker-end="url(#arrowhead)"/>
  <text x="143.82653061224488" y="726" text-anchor="middle" font-family="Arial, sans-serif" font-size="9" fill="#666" font-style="italic">manufacturer</text>
  <path d="M 1060 974 L 1035 974 L 1010 999.8333333333334" fill="none" stroke="#333" stroke-width="1" marker-end="url(#arrowhead)"/>
  <text x="1022.5" y="981.9166666666667" text-anchor="middle" font-family="Arial, sans-serif" font-size="9" fill="#666" font-style="italic">task</text>
  <path d="M 440 880 L 415 880 L 330 915.4444444444445" fill="none" stroke="#333" stroke-width="1" marker-end="url(#arrowhead)"/>
  <text x="372.5" y="892.7222222222222" text-anchor="middle" font-family="Arial, sans-serif" font-size="9" fill="#666" font-style="italic">maintenance_plan</text>
  <path d="M 190 924 L 165 924 L 236.4516129032258 732" fill="none" stroke="#333" stroke-width="1" marker-end="url(#arrowhead)"/>
  <text x="200.7258064516129" y="823" text-anchor="middle" font-family="Arial, sans-serif" font-size="9" fill="#666" font-style="italic">engine_type</text>
  <path d="M 430 974 L 405 974 L 330 952.8235294117648" fill="none" stroke="#333" stroke-width="1" marker-end="url(#arrowhead)"/>
  <text x="367.5" y="958.4117647058824" text-anchor="middle" font-family="Arial, sans-serif" font-size="9" fill="#666" font-style="italic">maintenance_plan</text>
  <path d="M 570 990 L 595 990 L 710 956.6666666666666" fill="none" stroke="#333" stroke-width="1" marker-end="url(#arrowhead)"/>
  <text x="652.5" y="968.3333333333333" text-anchor="middle" font-family="Arial, sans-serif" font-size="9" fill="#666" font-style="italic">task_type</text>
  <path d="M 820 178 L 845 178 L 886.8627450980392 240" fill="none" stroke="#333" stroke-width="1" marker-end="url(#arrowhead)"/>
  <text x="865.9313725490197" y="204" text-anchor="middle" font-family="Arial, sans-serif" font-size="9" fill="#666" font-style="italic">camo</text>
  <path d="M 750 254 L 775 254 L 750 192" fill="none" stroke="#333" stroke-width="1" marker-end="url(#arrowhead)"/>
  <text x="762.5" y="218" text-anchor="middle" font-family="Arial, sans-serif" font-size="9" fill="#666" font-style="italic">operator</text>
  <path d="M 610 270 L 585 270 L 550 254.30769230769232" fill="none" stroke="#333" stroke-width="1" marker-end="url(#arrowhead)"/>
  <text x="567.5" y="257.1538461538462" text-anchor="middle" font-family="Arial, sans-serif" font-size="9" fill="#666" font-style="italic">aircraft</text>
  <path d="M 880 714 L 855 714 L 810 759" fill="none" stroke="#333" stroke-width="1" marker-end="url(#arrowhead)"/>
  <text x="832.5" y="731.5" text-anchor="middle" font-family="Arial, sans-serif" font-size="9" fill="#666" font-style="italic">workscope</text>
  <path d="M 1020 730 L 1045 730 L 1090 745" fill="none" stroke="#333" stroke-width="1" marker-end="url(#arrowhead)"/>
  <text x="1067.5" y="732.5" text-anchor="middle" font-family="Arial, sans-serif" font-size="9" fill="#666" font-style="italic">repair_shop</text>
  <path d="M 1090 754 L 1065 754 L 1141.8181818181818 640" fill="none" stroke="#333" stroke-width="1" marker-end="url(#arrowhead)"/>
  <text x="1103.409090909091" y="692" text-anchor="middle" font-family="Arial, sans-serif" font-size="9" fill="#666" font-style="italic">mro</text>
  <path d="M 1010 1014 L 1035 1014 L 964.2222222222222 808" fill="none" stroke="#333" stroke-width="1" marker-end="url(#arrowhead)"/>
  <text x="999.6111111111111" y="906" text-anchor="middle" font-family="Arial, sans-serif" font-size="9" fill="#666" font-style="italic">repair_order</text>
  <path d="M 870 1030 L 845 1030 L 820 980" fill="none" stroke="#333" stroke-width="1" marker-end="url(#arrowhead)"/>
  <text x="832.5" y="1000" text-anchor="middle" font-family="Arial, sans-serif" font-size="9" fill="#666" font-style="italic">task_type</text>
  <path d="M 180 314 L 205 314 L 300 391.0526315789474" fill="none" stroke="#333" stroke-width="1" marker-end="url(#arrowhead)"/>
  <text x="252.5" y="347.5263157894737" text-anchor="middle" font-family="Arial, sans-serif" font-size="9" fill="#666" font-style="italic">stand</text>
  <path d="M 1020 54 L 1045 54 L 1106 140" fill="none" stroke="#333" stroke-width="1" marker-end="url(#arrowhead)"/>
  <text x="1075.5" y="92" text-anchor="middle" font-family="Arial, sans-serif" font-size="9" fill="#666" font-style="italic">airline</text>
  <path d="M 880 70 L 855 70 L 820 100.46153846153847" fill="none" stroke="#333" stroke-width="1" marker-end="url(#arrowhead)"/>
  <text x="837.5" y="80.23076923076923" text-anchor="middle" font-family="Arial, sans-serif" font-size="9" fill="#666" font-style="italic">operator</text>
  <path d="M 670 806 L 645 806 L 546.5 702" fill="none" stroke="#333" stroke-width="1" marker-end="url(#arrowhead)"/>
  <text x="595.75" y="749" text-anchor="middle" font-family="Arial, sans-serif" font-size="9" fill="#666" font-style="italic">engine</text>
  <path d="M 670 822 L 645 822 L 580 822" fill="none" stroke="#333" stroke-width="1" marker-end="url(#arrowhead)"/>
  <text x="612.5" y="817" text-anchor="middle" font-family="Arial, sans-serif" font-size="9" fill="#666" font-style="italic">inspection_type</text>

  <!-- Class boxes -->
  <rect x="410" y="140" width="140" height="192" fill="#D9EAD3" stroke="#333" stroke-width="1.5" rx="3"/>
  <text x="480" y="156" text-anchor="middle" font-family="Arial, sans-serif" font-size="12" font-weight="bold">Aircraft</text>
  <line x1="410" y1="164" x2="550" y2="164" stroke="#333" stroke-width="1"/>
  <text x="415" y="178" font-family="Arial, sans-serif" font-size="10">registration: TailSign</text>
  <text x="415" y="194" font-family="Arial, sans-serif" font-size="10">serial_number: MSN</text>
  <text x="415" y="210" font-family="Arial, sans-serif" font-size="10">type: AircraftType</text>
  <text x="415" y="226" font-family="Arial, sans-serif" font-size="10">current_operator: Operator</text>
  <text x="415" y="242" font-family="Arial, sans-serif" font-size="10">manufacture_date: date</text>
  <text x="415" y="258" font-family="Arial, sans-serif" font-size="10">total_flight_hours: int</text>
  <text x="415" y="274" font-family="Arial, sans-serif" font-size="10">total_cycles: int</text>
  <text x="415" y="290" font-family="Arial, sans-serif" font-size="10">status: OperationalStatus</text>
  <text x="415" y="306" font-family="Arial, sans-serif" font-size="10">maintenance_category: MaintenanceCategory</text>
  <text x="415" y="322" font-family="Arial, sans-serif" font-size="10">severity_factor: int</text>
  <rect x="20" y="120" width="140" height="80" fill="#D6E4F0" stroke="#333" stroke-width="1.5" rx="3"/>
  <text x="90" y="136" text-anchor="middle" font-family="Arial, sans-serif" font-size="12" font-weight="bold">AircraftOEM</text>
  <line x1="20" y1="144" x2="160" y2="144" stroke="#333" stroke-width="1"/>
  <text x="25" y="158" font-family="Arial, sans-serif" font-size="10">name: string</text>
  <text x="25" y="174" font-family="Arial, sans-serif" font-size="10">country: string</text>
  <text x="25" y="190" font-family="Arial, sans-serif" font-size="10">icao_code: string</text>
  <rect x="210" y="110" width="140" height="144" fill="#D6E4F0" stroke="#333" stroke-width="1.5" rx="3"/>
  <text x="280" y="126" text-anchor="middle" font-family="Arial, sans-serif" font-size="12" font-weight="bold">AircraftType</text>
  <line x1="210" y1="134" x2="350" y2="134" stroke="#333" stroke-width="1"/>
  <text x="215" y="148" font-family="Arial, sans-serif" font-size="10">super_type: AircraftType</text>
  <text x="215" y="164" font-family="Arial, sans-serif" font-size="10">designation: string</text>
  <text x="215" y="180" font-family="Arial, sans-serif" font-size="10">name: string</text>
  <text x="215" y="196" font-family="Arial, sans-serif" font-size="10">manufacturer: AircraftOEM</text>
  <text x="215" y="212" font-family="Arial, sans-serif" font-size="10">max_passengers: int</text>
  <text x="215" y="228" font-family="Arial, sans-serif" font-size="10">max_range_nm: int</text>
  <text x="215" y="244" font-family="Arial, sans-serif" font-size="10">number_of_engines: int</text>
  <rect x="1100" y="140" width="140" height="128" fill="#D9EAD3" stroke="#333" stroke-width="1.5" rx="3"/>
  <text x="1170" y="156" text-anchor="middle" font-family="Arial, sans-serif" font-size="12" font-weight="bold">Airline</text>
  <line x1="1100" y1="164" x2="1240" y2="164" stroke="#333" stroke-width="1"/>
  <text x="1105" y="178" font-family="Arial, sans-serif" font-size="10">name: string</text>
  <text x="1105" y="194" font-family="Arial, sans-serif" font-size="10">iata_code: IATACode</text>
  <text x="1105" y="210" font-family="Arial, sans-serif" font-size="10">icao_code: ICAOCode</text>
  <text x="1105" y="226" font-family="Arial, sans-serif" font-size="10">country: string</text>
  <text x="1105" y="242" font-family="Arial, sans-serif" font-size="10">own_operator: Operator</text>
  <text x="1105" y="258" font-family="Arial, sans-serif" font-size="10">camo: CAMO</text>
  <rect x="860" y="240" width="140" height="80" fill="#D9EAD3" stroke="#333" stroke-width="1.5" rx="3"/>
  <text x="930" y="256" text-anchor="middle" font-family="Arial, sans-serif" font-size="12" font-weight="bold">CAMO</text>
  <line x1="860" y1="264" x2="1000" y2="264" stroke="#333" stroke-width="1"/>
  <text x="865" y="278" font-family="Arial, sans-serif" font-size="10">name: string</text>
  <text x="865" y="294" font-family="Arial, sans-serif" font-size="10">country: string</text>
  <text x="865" y="310" font-family="Arial, sans-serif" font-size="10">approval_number: string</text>
  <rect x="410" y="590" width="140" height="112" fill="#FCE5CD" stroke="#333" stroke-width="1.5" rx="3"/>
  <text x="480" y="606" text-anchor="middle" font-family="Arial, sans-serif" font-size="12" font-weight="bold">Engine</text>
  <line x1="410" y1="614" x2="550" y2="614" stroke="#333" stroke-width="1"/>
  <text x="415" y="628" font-family="Arial, sans-serif" font-size="10">serial_number: string</text>
  <text x="415" y="644" font-family="Arial, sans-serif" font-size="10">type: EngineType</text>
  <text x="415" y="660" font-family="Arial, sans-serif" font-size="10">manufacture_date: date</text>
  <text x="415" y="676" font-family="Arial, sans-serif" font-size="10">total_flight_hours: int</text>
  <text x="415" y="692" font-family="Arial, sans-serif" font-size="10">total_cycles: int</text>
  <rect x="800" y="370" width="140" height="144" fill="#FCE5CD" stroke="#333" stroke-width="1.5" rx="3"/>
  <text x="870" y="386" text-anchor="middle" font-family="Arial, sans-serif" font-size="12" font-weight="bold">EngineAllocation</text>
  <line x1="800" y1="394" x2="940" y2="394" stroke="#333" stroke-width="1"/>
  <text x="805" y="408" font-family="Arial, sans-serif" font-size="10">start_date: date</text>
  <text x="805" y="424" font-family="Arial, sans-serif" font-size="10">end_date: date</text>
  <text x="805" y="440" font-family="Arial, sans-serif" font-size="10">aircraft: Aircraft</text>
  <text x="805" y="456" font-family="Arial, sans-serif" font-size="10">mount_position: int</text>
  <text x="805" y="472" font-family="Arial, sans-serif" font-size="10">airline: Airline</text>
  <text x="805" y="488" font-family="Arial, sans-serif" font-size="10">engine: Engine</text>
  <text x="805" y="504" font-family="Arial, sans-serif" font-size="10">event: EngineEvent</text>
  <rect x="670" y="570" width="140" height="96" fill="#FCE5CD" stroke="#333" stroke-width="1.5" rx="3"/>
  <text x="740" y="586" text-anchor="middle" font-family="Arial, sans-serif" font-size="12" font-weight="bold">EngineEvent</text>
  <line x1="670" y1="594" x2="810" y2="594" stroke="#333" stroke-width="1"/>
  <text x="675" y="608" font-family="Arial, sans-serif" font-size="10">designation: string</text>
  <text x="675" y="624" font-family="Arial, sans-serif" font-size="10">event_type: string</text>
  <text x="675" y="640" font-family="Arial, sans-serif" font-size="10">start_date: date</text>
  <text x="675" y="656" font-family="Arial, sans-serif" font-size="10">end_date: date</text>
  <rect x="30" y="760" width="140" height="80" fill="#D6E4F0" stroke="#333" stroke-width="1.5" rx="3"/>
  <text x="100" y="776" text-anchor="middle" font-family="Arial, sans-serif" font-size="12" font-weight="bold">EngineOEM</text>
  <line x1="30" y1="784" x2="170" y2="784" stroke="#333" stroke-width="1"/>
  <text x="35" y="798" font-family="Arial, sans-serif" font-size="10">name: string</text>
  <text x="35" y="814" font-family="Arial, sans-serif" font-size="10">country: string</text>
  <text x="35" y="830" font-family="Arial, sans-serif" font-size="10">icao_code: string</text>
  <rect x="300" y="380" width="140" height="112" fill="#FCE5CD" stroke="#333" stroke-width="1.5" rx="3"/>
  <text x="370" y="396" text-anchor="middle" font-family="Arial, sans-serif" font-size="12" font-weight="bold">EngineStand</text>
  <line x1="300" y1="404" x2="440" y2="404" stroke="#333" stroke-width="1"/>
  <text x="305" y="418" font-family="Arial, sans-serif" font-size="10">designation: string</text>
  <text x="305" y="434" font-family="Arial, sans-serif" font-size="10">base: EngineStandBase</text>
  <text x="305" y="450" font-family="Arial, sans-serif" font-size="10">cradle: EngineStandCradle</text>
  <text x="305" y="466" font-family="Arial, sans-serif" font-size="10">engine_type: EngineType</text>
  <text x="305" y="482" font-family="Arial, sans-serif" font-size="10">location: string</text>
  <rect x="40" y="400" width="140" height="80" fill="#FCE5CD" stroke="#333" stroke-width="1.5" rx="3"/>
  <text x="110" y="416" text-anchor="middle" font-family="Arial, sans-serif" font-size="12" font-weight="bold">EngineStandBase</text>
  <line x1="40" y1="424" x2="180" y2="424" stroke="#333" stroke-width="1"/>
  <text x="45" y="438" font-family="Arial, sans-serif" font-size="10">serial_number: string</text>
  <text x="45" y="454" font-family="Arial, sans-serif" font-size="10">manufacturer: string</text>
  <text x="45" y="470" font-family="Arial, sans-serif" font-size="10">max_weight_kg: int</text>
  <rect x="40" y="490" width="140" height="80" fill="#FCE5CD" stroke="#333" stroke-width="1.5" rx="3"/>
  <text x="110" y="506" text-anchor="middle" font-family="Arial, sans-serif" font-size="12" font-weight="bold">EngineStandCradle</text>
  <line x1="40" y1="514" x2="180" y2="514" stroke="#333" stroke-width="1"/>
  <text x="45" y="528" font-family="Arial, sans-serif" font-size="10">serial_number: string</text>
  <text x="45" y="544" font-family="Arial, sans-serif" font-size="10">engine_type: EngineType</text>
  <text x="45" y="560" font-family="Arial, sans-serif" font-size="10">manufacturer: string</text>
  <rect x="490" y="400" width="140" height="96" fill="#FCE5CD" stroke="#333" stroke-width="1.5" rx="3"/>
  <text x="560" y="416" text-anchor="middle" font-family="Arial, sans-serif" font-size="12" font-weight="bold">EngineStandMounting</text>
  <line x1="490" y1="424" x2="630" y2="424" stroke="#333" stroke-width="1"/>
  <text x="495" y="438" font-family="Arial, sans-serif" font-size="10">stand: EngineStand</text>
  <text x="495" y="454" font-family="Arial, sans-serif" font-size="10">engine: Engine</text>
  <text x="495" y="470" font-family="Arial, sans-serif" font-size="10">mounted_date: date</text>
  <text x="495" y="486" font-family="Arial, sans-serif" font-size="10">removed_date: date</text>
  <rect x="180" y="620" width="140" height="112" fill="#D6E4F0" stroke="#333" stroke-width="1.5" rx="3"/>
  <text x="250" y="636" text-anchor="middle" font-family="Arial, sans-serif" font-size="12" font-weight="bold">EngineType</text>
  <line x1="180" y1="644" x2="320" y2="644" stroke="#333" stroke-width="1"/>
  <text x="185" y="658" font-family="Arial, sans-serif" font-size="10">super_type: EngineType</text>
  <text x="185" y="674" font-family="Arial, sans-serif" font-size="10">designation: string</text>
  <text x="185" y="690" font-family="Arial, sans-serif" font-size="10">name: string</text>
  <text x="185" y="706" font-family="Arial, sans-serif" font-size="10">manufacturer: EngineOEM</text>
  <text x="185" y="722" font-family="Arial, sans-serif" font-size="10">thrust_lbs: int</text>
  <rect x="1060" y="940" width="140" height="144" fill="#E6D9F2" stroke="#333" stroke-width="1.5" rx="3"/>
  <text x="1130" y="956" text-anchor="middle" font-family="Arial, sans-serif" font-size="12" font-weight="bold">Finding</text>
  <line x1="1060" y1="964" x2="1200" y2="964" stroke="#333" stroke-width="1"/>
  <text x="1065" y="978" font-family="Arial, sans-serif" font-size="10">task: Task</text>
  <text x="1065" y="994" font-family="Arial, sans-serif" font-size="10">finding_number: string</text>
  <text x="1065" y="1010" font-family="Arial, sans-serif" font-size="10">description: string</text>
  <text x="1065" y="1026" font-family="Arial, sans-serif" font-size="10">severity: FindingSeverity</text>
  <text x="1065" y="1042" font-family="Arial, sans-serif" font-size="10">status: FindingStatus</text>
  <text x="1065" y="1058" font-family="Arial, sans-serif" font-size="10">reported_date: date</text>
  <text x="1065" y="1074" font-family="Arial, sans-serif" font-size="10">resolved_date: date</text>
  <rect x="440" y="750" width="140" height="144" fill="#FCE5CD" stroke="#333" stroke-width="1.5" rx="3"/>
  <text x="510" y="766" text-anchor="middle" font-family="Arial, sans-serif" font-size="12" font-weight="bold">InspectionType</text>
  <line x1="440" y1="774" x2="580" y2="774" stroke="#333" stroke-width="1"/>
  <text x="445" y="788" font-family="Arial, sans-serif" font-size="10">code: string</text>
  <text x="445" y="804" font-family="Arial, sans-serif" font-size="10">name: string</text>
  <text x="445" y="820" font-family="Arial, sans-serif" font-size="10">description: string</text>
  <text x="445" y="836" font-family="Arial, sans-serif" font-size="10">interval_hours: int</text>
  <text x="445" y="852" font-family="Arial, sans-serif" font-size="10">interval_cycles: int</text>
  <text x="445" y="868" font-family="Arial, sans-serif" font-size="10">interval_days: int</text>
  <text x="445" y="884" font-family="Arial, sans-serif" font-size="10">maintenance_plan: MaintenancePlan</text>
  <rect x="1090" y="560" width="140" height="80" fill="#E6D9F2" stroke="#333" stroke-width="1.5" rx="3"/>
  <text x="1160" y="576" text-anchor="middle" font-family="Arial, sans-serif" font-size="12" font-weight="bold">MRO</text>
  <line x1="1090" y1="584" x2="1230" y2="584" stroke="#333" stroke-width="1"/>
  <text x="1095" y="598" font-family="Arial, sans-serif" font-size="10">name: string</text>
  <text x="1095" y="614" font-family="Arial, sans-serif" font-size="10">location: string</text>
  <text x="1095" y="630" font-family="Arial, sans-serif" font-size="10">country: string</text>
  <rect x="190" y="890" width="140" height="96" fill="#D6E4F0" stroke="#333" stroke-width="1.5" rx="3"/>
  <text x="260" y="906" text-anchor="middle" font-family="Arial, sans-serif" font-size="12" font-weight="bold">MaintenancePlan</text>
  <line x1="190" y1="914" x2="330" y2="914" stroke="#333" stroke-width="1"/>
  <text x="195" y="928" font-family="Arial, sans-serif" font-size="10">engine_type: EngineType</text>
  <text x="195" y="944" font-family="Arial, sans-serif" font-size="10">name: string</text>
  <text x="195" y="960" font-family="Arial, sans-serif" font-size="10">revision: string</text>
  <text x="195" y="976" font-family="Arial, sans-serif" font-size="10">effective_date: date</text>
  <rect x="430" y="940" width="140" height="128" fill="#D6E4F0" stroke="#333" stroke-width="1.5" rx="3"/>
  <text x="500" y="956" text-anchor="middle" font-family="Arial, sans-serif" font-size="12" font-weight="bold">MaintenancePlanTask</text>
  <line x1="430" y1="964" x2="570" y2="964" stroke="#333" stroke-width="1"/>
  <text x="435" y="978" font-family="Arial, sans-serif" font-size="10">maintenance_plan: MaintenancePlan</text>
  <text x="435" y="994" font-family="Arial, sans-serif" font-size="10">task_type: TaskType</text>
  <text x="435" y="1010" font-family="Arial, sans-serif" font-size="10">task_code: string</text>
  <text x="435" y="1026" font-family="Arial, sans-serif" font-size="10">description: string</text>
  <text x="435" y="1042" font-family="Arial, sans-serif" font-size="10">interval_hours: int</text>
  <text x="435" y="1058" font-family="Arial, sans-serif" font-size="10">interval_cycles: int</text>
  <rect x="680" y="80" width="140" height="112" fill="#D9EAD3" stroke="#333" stroke-width="1.5" rx="3"/>
  <text x="750" y="96" text-anchor="middle" font-family="Arial, sans-serif" font-size="12" font-weight="bold">Operator</text>
  <line x1="680" y1="104" x2="820" y2="104" stroke="#333" stroke-width="1"/>
  <text x="685" y="118" font-family="Arial, sans-serif" font-size="10">name: string</text>
  <text x="685" y="134" font-family="Arial, sans-serif" font-size="10">icao_code: ICAOCode</text>
  <text x="685" y="150" font-family="Arial, sans-serif" font-size="10">iata_code: IATACode</text>
  <text x="685" y="166" font-family="Arial, sans-serif" font-size="10">country: string</text>
  <text x="685" y="182" font-family="Arial, sans-serif" font-size="10">camo: CAMO</text>
  <rect x="610" y="220" width="140" height="96" fill="#D9EAD3" stroke="#333" stroke-width="1.5" rx="3"/>
  <text x="680" y="236" text-anchor="middle" font-family="Arial, sans-serif" font-size="12" font-weight="bold">Registration</text>
  <line x1="610" y1="244" x2="750" y2="244" stroke="#333" stroke-width="1"/>
  <text x="615" y="258" font-family="Arial, sans-serif" font-size="10">operator: Operator</text>
  <text x="615" y="274" font-family="Arial, sans-serif" font-size="10">aircraft: Aircraft</text>
  <text x="615" y="290" font-family="Arial, sans-serif" font-size="10">entry_date: date</text>
  <text x="615" y="306" font-family="Arial, sans-serif" font-size="10">exit_date: date</text>
  <rect x="880" y="680" width="140" height="128" fill="#E6D9F2" stroke="#333" stroke-width="1.5" rx="3"/>
  <text x="950" y="696" text-anchor="middle" font-family="Arial, sans-serif" font-size="12" font-weight="bold">RepairOrder</text>
  <line x1="880" y1="704" x2="1020" y2="704" stroke="#333" stroke-width="1"/>
  <text x="885" y="718" font-family="Arial, sans-serif" font-size="10">workscope: Workscope</text>
  <text x="885" y="734" font-family="Arial, sans-serif" font-size="10">repair_shop: RepairShop</text>
  <text x="885" y="750" font-family="Arial, sans-serif" font-size="10">order_number: string</text>
  <text x="885" y="766" font-family="Arial, sans-serif" font-size="10">status: string</text>
  <text x="885" y="782" font-family="Arial, sans-serif" font-size="10">start_date: date</text>
  <text x="885" y="798" font-family="Arial, sans-serif" font-size="10">end_date: date</text>
  <rect x="1090" y="720" width="140" height="80" fill="#E6D9F2" stroke="#333" stroke-width="1.5" rx="3"/>
  <text x="1160" y="736" text-anchor="middle" font-family="Arial, sans-serif" font-size="12" font-weight="bold">RepairShop</text>
  <line x1="1090" y1="744" x2="1230" y2="744" stroke="#333" stroke-width="1"/>
  <text x="1095" y="758" font-family="Arial, sans-serif" font-size="10">mro: MRO</text>
  <text x="1095" y="774" font-family="Arial, sans-serif" font-size="10">name: string</text>
  <text x="1095" y="790" font-family="Arial, sans-serif" font-size="10">specialization: string</text>
  <rect x="870" y="980" width="140" height="112" fill="#E6D9F2" stroke="#333" stroke-width="1.5" rx="3"/>
  <text x="940" y="996" text-anchor="middle" font-family="Arial, sans-serif" font-size="12" font-weight="bold">Task</text>
  <line x1="870" y1="1004" x2="1010" y2="1004" stroke="#333" stroke-width="1"/>
  <text x="875" y="1018" font-family="Arial, sans-serif" font-size="10">repair_order: RepairOrder</text>
  <text x="875" y="1034" font-family="Arial, sans-serif" font-size="10">task_type: TaskType</text>
  <text x="875" y="1050" font-family="Arial, sans-serif" font-size="10">task_number: string</text>
  <text x="875" y="1066" font-family="Arial, sans-serif" font-size="10">description: string</text>
  <text x="875" y="1082" font-family="Arial, sans-serif" font-size="10">status: string</text>
  <rect x="710" y="900" width="140" height="80" fill="#E6D9F2" stroke="#333" stroke-width="1.5" rx="3"/>
  <text x="780" y="916" text-anchor="middle" font-family="Arial, sans-serif" font-size="12" font-weight="bold">TaskType</text>
  <line x1="710" y1="924" x2="850" y2="924" stroke="#333" stroke-width="1"/>
  <text x="715" y="938" font-family="Arial, sans-serif" font-size="10">code: string</text>
  <text x="715" y="954" font-family="Arial, sans-serif" font-size="10">name: string</text>
  <text x="715" y="970" font-family="Arial, sans-serif" font-size="10">description: string</text>
  <rect x="40" y="280" width="140" height="112" fill="#FCE5CD" stroke="#333" stroke-width="1.5" rx="3"/>
  <text x="110" y="296" text-anchor="middle" font-family="Arial, sans-serif" font-size="12" font-weight="bold">TransportOrder</text>
  <line x1="40" y1="304" x2="180" y2="304" stroke="#333" stroke-width="1"/>
  <text x="45" y="318" font-family="Arial, sans-serif" font-size="10">stand: EngineStand</text>
  <text x="45" y="334" font-family="Arial, sans-serif" font-size="10">from_location: string</text>
  <text x="45" y="350" font-family="Arial, sans-serif" font-size="10">to_location: string</text>
  <text x="45" y="366" font-family="Arial, sans-serif" font-size="10">requested_date: date</text>
  <text x="45" y="382" font-family="Arial, sans-serif" font-size="10">completed_date: date</text>
  <rect x="880" y="20" width="140" height="96" fill="#D9EAD3" stroke="#333" stroke-width="1.5" rx="3"/>
  <text x="950" y="36" text-anchor="middle" font-family="Arial, sans-serif" font-size="12" font-weight="bold">WetLease</text>
  <line x1="880" y1="44" x2="1020" y2="44" stroke="#333" stroke-width="1"/>
  <text x="885" y="58" font-family="Arial, sans-serif" font-size="10">airline: Airline</text>
  <text x="885" y="74" font-family="Arial, sans-serif" font-size="10">operator: Operator</text>
  <text x="885" y="90" font-family="Arial, sans-serif" font-size="10">start_date: date</text>
  <text x="885" y="106" font-family="Arial, sans-serif" font-size="10">end_date: date</text>
  <rect x="670" y="740" width="140" height="128" fill="#FCE5CD" stroke="#333" stroke-width="1.5" rx="3"/>
  <text x="740" y="756" text-anchor="middle" font-family="Arial, sans-serif" font-size="12" font-weight="bold">Workscope</text>
  <line x1="670" y1="764" x2="810" y2="764" stroke="#333" stroke-width="1"/>
  <text x="675" y="778" font-family="Arial, sans-serif" font-size="10">name: string</text>
  <text x="675" y="794" font-family="Arial, sans-serif" font-size="10">description: string</text>
  <text x="675" y="810" font-family="Arial, sans-serif" font-size="10">engine: Engine</text>
  <text x="675" y="826" font-family="Arial, sans-serif" font-size="10">inspection_type: InspectionType</text>
  <text x="675" y="842" font-family="Arial, sans-serif" font-size="10">planned_start: date</text>
  <text x="675" y="858" font-family="Arial, sans-serif" font-size="10">planned_end: date</text>

  <!-- Legend -->
  <text x="20" y="1022" font-family="Arial, sans-serif" font-size="12" font-weight="bold">Areas:</text>
  <rect x="20" y="1032" width="14" height="14" fill="#D6E4F0" stroke="#333" stroke-width="1"/>
  <text x="40" y="1042" font-family="Arial, sans-serif" font-size="11">OEM</text>
  <rect x="20" y="1052" width="14" height="14" fill="#D9EAD3" stroke="#333" stroke-width="1"/>
  <text x="40" y="1062" font-family="Arial, sans-serif" font-size="11">Operations</text>
  <rect x="20" y="1072" width="14" height="14" fill="#FCE5CD" stroke="#333" stroke-width="1"/>
  <text x="40" y="1082" font-family="Arial, sans-serif" font-size="11">Engine Management</text>
  <rect x="20" y="1092" width="14" height="14" fill="#E6D9F2" stroke="#333" stroke-width="1"/>
  <text x="40" y="1102" font-family="Arial, sans-serif" font-size="11">Maintenance &amp; Repair</text>
</svg>