<svg xmlns="http://www.w3.org/2000/svg" viewBox="0 0 1200 1200" width="1200" height="1200">
  <defs>
    <marker id="arrowhead" markerWidth="10" markerHeight="7" refX="9" refY="3.5" orient="auto">
      <polygon points="0 0, 10 3.5, 0 7" fill="#333"/>
    </marker>
  </defs>
  <rect width="1200" height="1200" fill="white"/>

  <!-- Relationships -->
  <line x1="560" y1="118" x2="630" y2="116" stroke="#333" stroke-width="1" marker-end="url(#arrowhead)"/>
    <text x="567" y="112.8" font-family="Arial, sans-serif" font-size="10" fill="#666">*</text>
    <text x="595" y="112" text-anchor="middle" font-family="Arial, sans-serif" font-size="9" fill="#666" font-style="italic">type</text>
  <line x1="420" y1="118" x2="180" y2="118" stroke="#333" stroke-width="1" marker-end="url(#arrowhead)"/>
    <text x="396" y="113" font-family="Arial, sans-serif" font-size="10" fill="#666">*</text>
    <text x="300" y="113" text-anchor="middle" font-family="Arial, sans-serif" font-size="9" fill="#666" font-style="italic">current_operator</text>
  <line x1="770" y1="116" x2="820" y2="110" stroke="#333" stroke-width="1" marker-end="url(#arrowhead)"/>
    <text x="775" y="110.4" font-family="Arial, sans-serif" font-size="10" fill="#666">*</text>
    <text x="795" y="108" text-anchor="middle" font-family="Arial, sans-serif" font-size="9" fill="#666" font-style="italic">manufacturer</text>
  <line x1="420" y1="606" x2="360" y2="578" stroke="#333" stroke-width="1" marker-end="url(#arrowhead)"/>
    <text x="414" y="598.2" font-family="Arial, sans-serif" font-size="10" fill="#666">*</text>
    <text x="390" y="587" text-anchor="middle" font-family="Arial, sans-serif" font-size="9" fill="#666" font-style="italic">type</text>
  <line x1="490" y1="492" x2="490" y2="550" stroke="#333" stroke-width="1" marker-end="url(#arrowhead)"/>
    <text x="490" y="492.8" font-family="Arial, sans-serif" font-size="10" fill="#666">*</text>
    <text x="490" y="516" text-anchor="middle" font-family="Arial, sans-serif" font-size="9" fill="#666" font-style="italic">engine</text>
  <line x1="490" y1="380" x2="490" y2="206" stroke="#333" stroke-width="1" marker-end="url(#arrowhead)"/>
    <text x="490" y="357.6" font-family="Arial, sans-serif" font-size="10" fill="#666">*</text>
    <text x="490" y="288" text-anchor="middle" font-family="Arial, sans-serif" font-size="9" fill="#666" font-style="italic">aircraft</text>
  <line x1="220" y1="578" x2="170" y2="570" stroke="#333" stroke-width="1" marker-end="url(#arrowhead)"/>
    <text x="215" y="572.2" font-family="Arial, sans-serif" font-size="10" fill="#666">*</text>
    <text x="195" y="569" text-anchor="middle" font-family="Arial, sans-serif" font-size="9" fill="#666" font-style="italic">manufacturer</text>
  <line x1="790" y1="890" x2="800" y2="832" stroke="#333" stroke-width="1" marker-end="url(#arrowhead)"/>
    <text x="791" y="879.2" font-family="Arial, sans-serif" font-size="10" fill="#666">*</text>
    <text x="795" y="856" text-anchor="middle" font-family="Arial, sans-serif" font-size="9" fill="#666" font-style="italic">task</text>
  <line x1="230" y1="238" x2="180" y2="118" stroke="#333" stroke-width="1" marker-end="url(#arrowhead)"/>
    <text x="225" y="221" font-family="Arial, sans-serif" font-size="10" fill="#666">*</text>
    <text x="205" y="173" text-anchor="middle" font-family="Arial, sans-serif" font-size="9" fill="#666" font-style="italic">operator</text>
  <line x1="370" y1="238" x2="420" y2="118" stroke="#333" stroke-width="1" marker-end="url(#arrowhead)"/>
    <text x="375" y="221" font-family="Arial, sans-serif" font-size="10" fill="#666">*</text>
    <text x="395" y="173" text-anchor="middle" font-family="Arial, sans-serif" font-size="9" fill="#666" font-style="italic">aircraft</text>
  <line x1="420" y1="792" x2="370" y2="768" stroke="#333" stroke-width="1" marker-end="url(#arrowhead)"/>
    <text x="415" y="784.6" font-family="Arial, sans-serif" font-size="10" fill="#666">*</text>
    <text x="395" y="775" text-anchor="middle" font-family="Arial, sans-serif" font-size="9" fill="#666" font-style="italic">maintenance_plan</text>
  <line x1="300" y1="720" x2="290" y2="626" stroke="#333" stroke-width="1" marker-end="url(#arrowhead)"/>
    <text x="299" y="705.6" font-family="Arial, sans-serif" font-size="10" fill="#666">*</text>
    <text x="295" y="668" text-anchor="middle" font-family="Arial, sans-serif" font-size="9" fill="#666" font-style="italic">engine_type</text>
  <line x1="300" y1="870" x2="300" y2="816" stroke="#333" stroke-width="1" marker-end="url(#arrowhead)"/>
    <text x="300" y="859.6" font-family="Arial, sans-serif" font-size="10" fill="#666">*</text>
    <text x="300" y="838" text-anchor="middle" font-family="Arial, sans-serif" font-size="9" fill="#666" font-style="italic">maintenance_plan</text>
  <line x1="370" y1="934" x2="420" y2="960" stroke="#333" stroke-width="1" marker-end="url(#arrowhead)"/>
    <text x="375" y="931.6" font-family="Arial, sans-serif" font-size="10" fill="#666">*</text>
    <text x="395" y="942" text-anchor="middle" font-family="Arial, sans-serif" font-size="9" fill="#666" font-style="italic">task_type</text>
  <line x1="810" y1="604" x2="770" y2="604" stroke="#333" stroke-width="1" marker-end="url(#arrowhead)"/>
    <text x="806" y="599" font-family="Arial, sans-serif" font-size="10" fill="#666">*</text>
    <text x="790" y="599" text-anchor="middle" font-family="Arial, sans-serif" font-size="9" fill="#666" font-style="italic">workscope</text>
  <line x1="880" y1="540" x2="880" y2="330" stroke="#333" stroke-width="1" marker-end="url(#arrowhead)"/>
    <text x="880" y="514" font-family="Arial, sans-serif" font-size="10" fill="#666">*</text>
    <text x="880" y="430" text-anchor="middle" font-family="Arial, sans-serif" font-size="9" fill="#666" font-style="italic">mro</text>
  <line x1="880" y1="390" x2="880" y2="330" stroke="#333" stroke-width="1" marker-end="url(#arrowhead)"/>
    <text x="880" y="379" font-family="Arial, sans-serif" font-size="10" fill="#666">*</text>
    <text x="880" y="355" text-anchor="middle" font-family="Arial, sans-serif" font-size="9" fill="#666" font-style="italic">mro</text>
  <line x1="800" y1="720" x2="880" y2="668" stroke="#333" stroke-width="1" marker-end="url(#arrowhead)"/>
    <text x="808" y="709.8" font-family="Arial, sans-serif" font-size="10" fill="#666">*</text>
    <text x="840" y="689" text-anchor="middle" font-family="Arial, sans-serif" font-size="9" fill="#666" font-style="italic">repair_order</text>
  <line x1="730" y1="776" x2="560" y2="960" stroke="#333" stroke-width="1" marker-end="url(#arrowhead)"/>
    <text x="713" y="789.4" font-family="Arial, sans-serif" font-size="10" fill="#666">*</text>
    <text x="645" y="863" text-anchor="middle" font-family="Arial, sans-serif" font-size="9" fill="#666" font-style="italic">task_type</text>
  <line x1="630" y1="604" x2="560" y2="606" stroke="#333" stroke-width="1" marker-end="url(#arrowhead)"/>
    <text x="623" y="599.2" font-family="Arial, sans-serif" font-size="10" fill="#666">*</text>
    <text x="595" y="600" text-anchor="middle" font-family="Arial, sans-serif" font-size="9" fill="#666" font-style="italic">engine</text>
  <line x1="630" y1="604" x2="560" y2="792" stroke="#333" stroke-width="1" marker-end="url(#arrowhead)"/>
    <text x="623" y="617.8" font-family="Arial, sans-serif" font-size="10" fill="#666">*</text>
    <text x="595" y="693" text-anchor="middle" font-family="Arial, sans-serif" font-size="9" fill="#666" font-style="italic">inspection_type</text>

  <!-- Class boxes -->
  <rect x="420" y="30" width="140" height="176" fill="#D9EAD3" stroke="#333" stroke-width="1.5" rx="3"/>
    <text x="490" y="46" text-anchor="middle" font-family="Arial, sans-serif" font-size="12" font-weight="bold">Aircraft</text>
    <line x1="420" y1="54" x2="560" y2="54" stroke="#333" stroke-width="1"/>
    <text x="425" y="68" font-family="Arial, sans-serif" font-size="10">registration: TailSign</text>
    <text x="425" y="84" font-family="Arial, sans-serif" font-size="10">serial_number: MSN</text>
    <text x="425" y="100" font-family="Arial, sans-serif" font-size="10">type: AircraftType</text>
    <text x="425" y="116" font-family="Arial, sans-serif" font-size="10">manufacture_date: date</text>
    <text x="425" y="132" font-family="Arial, sans-serif" font-size="10">total_flight_hours: int</text>
    <text x="425" y="148" font-family="Arial, sans-serif" font-size="10">total_cycles: int</text>
    <text x="425" y="164" font-family="Arial, sans-serif" font-size="10">status: OperationalStatus</text>
    <text x="425" y="180" font-family="Arial, sans-serif" font-size="10">maintenance_category: MaintenanceCategory</text>
    <text x="425" y="196" font-family="Arial, sans-serif" font-size="10">current_operator: Operator</text>
  <rect x="820" y="70" width="140" height="80" fill="#D6E4F0" stroke="#333" stroke-width="1.5" rx="3"/>
    <text x="890" y="86" text-anchor="middle" font-family="Arial, sans-serif" font-size="12" font-weight="bold">AircraftManufacturer</text>
    <line x1="820" y1="94" x2="960" y2="94" stroke="#333" stroke-width="1"/>
    <text x="825" y="108" font-family="Arial, sans-serif" font-size="10">name: string</text>
    <text x="825" y="124" font-family="Arial, sans-serif" font-size="10">country: string</text>
    <text x="825" y="140" font-family="Arial, sans-serif" font-size="10">icao_code: string</text>
  <rect x="630" y="60" width="140" height="112" fill="#D6E4F0" stroke="#333" stroke-width="1.5" rx="3"/>
    <text x="700" y="76" text-anchor="middle" font-family="Arial, sans-serif" font-size="12" font-weight="bold">AircraftType</text>
    <line x1="630" y1="84" x2="770" y2="84" stroke="#333" stroke-width="1"/>
    <text x="635" y="98" font-family="Arial, sans-serif" font-size="10">designation: string</text>
    <text x="635" y="114" font-family="Arial, sans-serif" font-size="10">name: string</text>
    <text x="635" y="130" font-family="Arial, sans-serif" font-size="10">manufacturer: AircraftManufacturer</text>
    <text x="635" y="146" font-family="Arial, sans-serif" font-size="10">max_passengers: int</text>
    <text x="635" y="162" font-family="Arial, sans-serif" font-size="10">max_range_nm: int</text>
  <rect x="420" y="550" width="140" height="112" fill="#FCE5CD" stroke="#333" stroke-width="1.5" rx="3"/>
    <text x="490" y="566" text-anchor="middle" font-family="Arial, sans-serif" font-size="12" font-weight="bold">Engine</text>
    <line x1="420" y1="574" x2="560" y2="574" stroke="#333" stroke-width="1"/>
    <text x="425" y="588" font-family="Arial, sans-serif" font-size="10">serial_number: string</text>
    <text x="425" y="604" font-family="Arial, sans-serif" font-size="10">type: EngineType</text>
    <text x="425" y="620" font-family="Arial, sans-serif" font-size="10">manufacture_date: date</text>
    <text x="425" y="636" font-family="Arial, sans-serif" font-size="10">total_flight_hours: int</text>
    <text x="425" y="652" font-family="Arial, sans-serif" font-size="10">total_cycles: int</text>
  <rect x="420" y="380" width="140" height="112" fill="#FCE5CD" stroke="#333" stroke-width="1.5" rx="3"/>
    <text x="490" y="396" text-anchor="middle" font-family="Arial, sans-serif" font-size="12" font-weight="bold">EngineAssignment</text>
    <line x1="420" y1="404" x2="560" y2="404" stroke="#333" stroke-width="1"/>
    <text x="425" y="418" font-family="Arial, sans-serif" font-size="10">engine: Engine</text>
    <text x="425" y="434" font-family="Arial, sans-serif" font-size="10">aircraft: Aircraft</text>
    <text x="425" y="450" font-family="Arial, sans-serif" font-size="10">position: int</text>
    <text x="425" y="466" font-family="Arial, sans-serif" font-size="10">installed_date: date</text>
    <text x="425" y="482" font-family="Arial, sans-serif" font-size="10">removed_date: date</text>
  <rect x="30" y="530" width="140" height="80" fill="#D6E4F0" stroke="#333" stroke-width="1.5" rx="3"/>
    <text x="100" y="546" text-anchor="middle" font-family="Arial, sans-serif" font-size="12" font-weight="bold">EngineManufacturer</text>
    <line x1="30" y1="554" x2="170" y2="554" stroke="#333" stroke-width="1"/>
    <text x="35" y="568" font-family="Arial, sans-serif" font-size="10">name: string</text>
    <text x="35" y="584" font-family="Arial, sans-serif" font-size="10">country: string</text>
    <text x="35" y="600" font-family="Arial, sans-serif" font-size="10">icao_code: string</text>
  <rect x="220" y="530" width="140" height="96" fill="#D6E4F0" stroke="#333" stroke-width="1.5" rx="3"/>
    <text x="290" y="546" text-anchor="middle" font-family="Arial, sans-serif" font-size="12" font-weight="bold">EngineType</text>
    <line x1="220" y1="554" x2="360" y2="554" stroke="#333" stroke-width="1"/>
    <text x="225" y="568" font-family="Arial, sans-serif" font-size="10">designation: string</text>
    <text x="225" y="584" font-family="Arial, sans-serif" font-size="10">name: string</text>
    <text x="225" y="600" font-family="Arial, sans-serif" font-size="10">manufacturer: EngineManufacturer</text>
    <text x="225" y="616" font-family="Arial, sans-serif" font-size="10">thrust_lbs: int</text>
  <rect x="720" y="890" width="140" height="144" fill="#E6D9F2" stroke="#333" stroke-width="1.5" rx="3"/>
    <text x="790" y="906" text-anchor="middle" font-family="Arial, sans-serif" font-size="12" font-weight="bold">Finding</text>
    <line x1="720" y1="914" x2="860" y2="914" stroke="#333" stroke-width="1"/>
    <text x="725" y="928" font-family="Arial, sans-serif" font-size="10">task: Task</text>
    <text x="725" y="944" font-family="Arial, sans-serif" font-size="10">finding_number: string</text>
    <text x="725" y="960" font-family="Arial, sans-serif" font-size="10">description: string</text>
    <text x="725" y="976" font-family="Arial, sans-serif" font-size="10">severity: FindingSeverity</text>
    <text x="725" y="992" font-family="Arial, sans-serif" font-size="10">status: FindingStatus</text>
    <text x="725" y="1008" font-family="Arial, sans-serif" font-size="10">reported_date: date</text>
    <text x="725" y="1024" font-family="Arial, sans-serif" font-size="10">resolved_date: date</text>
  <rect x="230" y="190" width="140" height="96" fill="#D9EAD3" stroke="#333" stroke-width="1.5" rx="3"/>
    <text x="300" y="206" text-anchor="middle" font-family="Arial, sans-serif" font-size="12" font-weight="bold">FleetMember</text>
    <line x1="230" y1="214" x2="370" y2="214" stroke="#333" stroke-width="1"/>
    <text x="235" y="228" font-family="Arial, sans-serif" font-size="10">operator: Operator</text>
    <text x="235" y="244" font-family="Arial, sans-serif" font-size="10">aircraft: Aircraft</text>
    <text x="235" y="260" font-family="Arial, sans-serif" font-size="10">entry_date: date</text>
    <text x="235" y="276" font-family="Arial, sans-serif" font-size="10">exit_date: date</text>
  <rect x="420" y="720" width="140" height="144" fill="#FCE5CD" stroke="#333" stroke-width="1.5" rx="3"/>
    <text x="490" y="736" text-anchor="middle" font-family="Arial, sans-serif" font-size="12" font-weight="bold">InspectionType</text>
    <line x1="420" y1="744" x2="560" y2="744" stroke="#333" stroke-width="1"/>
    <text x="425" y="758" font-family="Arial, sans-serif" font-size="10">code: string</text>
    <text x="425" y="774" font-family="Arial, sans-serif" font-size="10">name: string</text>
    <text x="425" y="790" font-family="Arial, sans-serif" font-size="10">description: string</text>
    <text x="425" y="806" font-family="Arial, sans-serif" font-size="10">interval_hours: int</text>
    <text x="425" y="822" font-family="Arial, sans-serif" font-size="10">interval_cycles: int</text>
    <text x="425" y="838" font-family="Arial, sans-serif" font-size="10">interval_days: int</text>
    <text x="425" y="854" font-family="Arial, sans-serif" font-size="10">maintenance_plan: MaintenancePlan</text>
  <rect x="810" y="250" width="140" height="80" fill="#E6D9F2" stroke="#333" stroke-width="1.5" rx="3"/>
    <text x="880" y="266" text-anchor="middle" font-family="Arial, sans-serif" font-size="12" font-weight="bold">MRO</text>
    <line x1="810" y1="274" x2="950" y2="274" stroke="#333" stroke-width="1"/>
    <text x="815" y="288" font-family="Arial, sans-serif" font-size="10">name: string</text>
    <text x="815" y="304" font-family="Arial, sans-serif" font-size="10">location: string</text>
    <text x="815" y="320" font-family="Arial, sans-serif" font-size="10">country: string</text>
  <rect x="230" y="720" width="140" height="96" fill="#D6E4F0" stroke="#333" stroke-width="1.5" rx="3"/>
    <text x="300" y="736" text-anchor="middle" font-family="Arial, sans-serif" font-size="12" font-weight="bold">MaintenancePlan</text>
    <line x1="230" y1="744" x2="370" y2="744" stroke="#333" stroke-width="1"/>
    <text x="235" y="758" font-family="Arial, sans-serif" font-size="10">engine_type: EngineType</text>
    <text x="235" y="774" font-family="Arial, sans-serif" font-size="10">name: string</text>
    <text x="235" y="790" font-family="Arial, sans-serif" font-size="10">revision: string</text>
    <text x="235" y="806" font-family="Arial, sans-serif" font-size="10">effective_date: date</text>
  <rect x="230" y="870" width="140" height="128" fill="#D6E4F0" stroke="#333" stroke-width="1.5" rx="3"/>
    <text x="300" y="886" text-anchor="middle" font-family="Arial, sans-serif" font-size="12" font-weight="bold">MaintenancePlanTask</text>
    <line x1="230" y1="894" x2="370" y2="894" stroke="#333" stroke-width="1"/>
    <text x="235" y="908" font-family="Arial, sans-serif" font-size="10">maintenance_plan: MaintenancePlan</text>
    <text x="235" y="924" font-family="Arial, sans-serif" font-size="10">task_type: TaskType</text>
    <text x="235" y="940" font-family="Arial, sans-serif" font-size="10">task_code: string</text>
    <text x="235" y="956" font-family="Arial, sans-serif" font-size="10">description: string</text>
    <text x="235" y="972" font-family="Arial, sans-serif" font-size="10">interval_hours: int</text>
    <text x="235" y="988" font-family="Arial, sans-serif" font-size="10">interval_cycles: int</text>
  <rect x="40" y="70" width="140" height="96" fill="#D9EAD3" stroke="#333" stroke-width="1.5" rx="3"/>
    <text x="110" y="86" text-anchor="middle" font-family="Arial, sans-serif" font-size="12" font-weight="bold">Operator</text>
    <line x1="40" y1="94" x2="180" y2="94" stroke="#333" stroke-width="1"/>
    <text x="45" y="108" font-family="Arial, sans-serif" font-size="10">name: string</text>
    <text x="45" y="124" font-family="Arial, sans-serif" font-size="10">icao_code: ICAOCode</text>
    <text x="45" y="140" font-family="Arial, sans-serif" font-size="10">iata_code: IATACode</text>
    <text x="45" y="156" font-family="Arial, sans-serif" font-size="10">country: string</text>
  <rect x="810" y="540" width="140" height="128" fill="#E6D9F2" stroke="#333" stroke-width="1.5" rx="3"/>
    <text x="880" y="556" text-anchor="middle" font-family="Arial, sans-serif" font-size="12" font-weight="bold">RepairOrder</text>
    <line x1="810" y1="564" x2="950" y2="564" stroke="#333" stroke-width="1"/>
    <text x="815" y="578" font-family="Arial, sans-serif" font-size="10">workscope: Workscope</text>
    <text x="815" y="594" font-family="Arial, sans-serif" font-size="10">mro: MRO</text>
    <text x="815" y="610" font-family="Arial, sans-serif" font-size="10">order_number: string</text>
    <text x="815" y="626" font-family="Arial, sans-serif" font-size="10">status: string</text>
    <text x="815" y="642" font-family="Arial, sans-serif" font-size="10">start_date: date</text>
    <text x="815" y="658" font-family="Arial, sans-serif" font-size="10">end_date: date</text>
  <rect x="810" y="390" width="140" height="80" fill="#E6D9F2" stroke="#333" stroke-width="1.5" rx="3"/>
    <text x="880" y="406" text-anchor="middle" font-family="Arial, sans-serif" font-size="12" font-weight="bold">RepairShop</text>
    <line x1="810" y1="414" x2="950" y2="414" stroke="#333" stroke-width="1"/>
    <text x="815" y="428" font-family="Arial, sans-serif" font-size="10">mro: MRO</text>
    <text x="815" y="444" font-family="Arial, sans-serif" font-size="10">name: string</text>
    <text x="815" y="460" font-family="Arial, sans-serif" font-size="10">specialization: string</text>
  <rect x="730" y="720" width="140" height="112" fill="#E6D9F2" stroke="#333" stroke-width="1.5" rx="3"/>
    <text x="800" y="736" text-anchor="middle" font-family="Arial, sans-serif" font-size="12" font-weight="bold">Task</text>
    <line x1="730" y1="744" x2="870" y2="744" stroke="#333" stroke-width="1"/>
    <text x="735" y="758" font-family="Arial, sans-serif" font-size="10">repair_order: RepairOrder</text>
    <text x="735" y="774" font-family="Arial, sans-serif" font-size="10">task_type: TaskType</text>
    <text x="735" y="790" font-family="Arial, sans-serif" font-size="10">task_number: string</text>
    <text x="735" y="806" font-family="Arial, sans-serif" font-size="10">description: string</text>
    <text x="735" y="822" font-family="Arial, sans-serif" font-size="10">status: string</text>
  <rect x="420" y="920" width="140" height="80" fill="#E6D9F2" stroke="#333" stroke-width="1.5" rx="3"/>
    <text x="490" y="936" text-anchor="middle" font-family="Arial, sans-serif" font-size="12" font-weight="bold">TaskType</text>
    <line x1="420" y1="944" x2="560" y2="944" stroke="#333" stroke-width="1"/>
    <text x="425" y="958" font-family="Arial, sans-serif" font-size="10">code: string</text>
    <text x="425" y="974" font-family="Arial, sans-serif" font-size="10">name: string</text>
    <text x="425" y="990" font-family="Arial, sans-serif" font-size="10">description: string</text>
  <rect x="630" y="540" width="140" height="128" fill="#FCE5CD" stroke="#333" stroke-width="1.5" rx="3"/>
    <text x="700" y="556" text-anchor="middle" font-family="Arial, sans-serif" font-size="12" font-weight="bold">Workscope</text>
    <line x1="630" y1="564" x2="770" y2="564" stroke="#333" stroke-width="1"/>
    <text x="635" y="578" font-family="Arial, sans-serif" font-size="10">name: string</text>
    <text x="635" y="594" font-family="Arial, sans-serif" font-size="10">description: string</text>
    <text x="635" y="610" font-family="Arial, sans-serif" font-size="10">engine: Engine</text>
    <text x="635" y="626" font-family="Arial, sans-serif" font-size="10">inspection_type: InspectionType</text>
    <text x="635" y="642" font-family="Arial, sans-serif" font-size="10">planned_start: date</text>
    <text x="635" y="658" font-family="Arial, sans-serif" font-size="10">planned_end: date</text>

  <!-- Legend -->
  <text x="20" y="1080" font-family="Arial, sans-serif" font-size="12" font-weight="bold">Areas:</text>
    <rect x="20" y="1090" width="14" height="14" fill="#D6E4F0" stroke="#333" stroke-width="1"/>
    <text x="40" y="1100" font-family="Arial, sans-serif" font-size="11">OEM</text>
    <rect x="20" y="1110" width="14" height="14" fill="#D9EAD3" stroke="#333" stroke-width="1"/>
    <text x="40" y="1120" font-family="Arial, sans-serif" font-size="11">Operations</text>
    <rect x="20" y="1130" width="14" height="14" fill="#FCE5CD" stroke="#333" stroke-width="1"/>
    <text x="40" y="1140" font-family="Arial, sans-serif" font-size="11">Engine Management</text>
    <rect x="20" y="1150" width="14" height="14" fill="#E6D9F2" stroke="#333" stroke-width="1"/>
    <text x="40" y="1160" font-family="Arial, sans-serif" font-size="11">Maintenance &amp; Repair</text>
</svg>