<svg xmlns="http://www.w3.org/2000/svg" viewBox="0 0 1200 900" width="1200" height="900">
  <defs>
    <marker id="arrowhead" markerWidth="10" markerHeight="7" refX="9" refY="3.5" orient="auto">
      <polygon points="0 0, 10 3.5, 0 7" fill="#333"/>
    </marker>
  </defs>
  <rect width="1200" height="900" fill="white"/>

  <!-- Relationships -->
  <line x1="560" y1="162" x2="640" y2="154" stroke="#333" stroke-width="1" marker-end="url(#arrowhead)"/>
    <text x="568" y="156.2" font-family="Arial, sans-serif" font-size="10" fill="#666">*</text>
    <text x="600" y="153" text-anchor="middle" font-family="Arial, sans-serif" font-size="9" fill="#666" font-style="italic">type</text>
  <line x1="780" y1="154" x2="840" y2="138" stroke="#333" stroke-width="1" marker-end="url(#arrowhead)"/>
    <text x="786" y="147.4" font-family="Arial, sans-serif" font-size="10" fill="#666">*</text>
    <text x="810" y="141" text-anchor="middle" font-family="Arial, sans-serif" font-size="9" fill="#666" font-style="italic">manufacturer</text>
  <line x1="420" y1="464" x2="340" y2="316" stroke="#333" stroke-width="1" marker-end="url(#arrowhead)"/>
    <text x="412" y="444.2" font-family="Arial, sans-serif" font-size="10" fill="#666">*</text>
    <text x="380" y="385" text-anchor="middle" font-family="Arial, sans-serif" font-size="9" fill="#666" font-style="italic">type</text>
  <line x1="490" y1="378" x2="490" y2="400" stroke="#333" stroke-width="1" marker-end="url(#arrowhead)"/>
    <text x="490" y="375.2" font-family="Arial, sans-serif" font-size="10" fill="#666">*</text>
    <text x="490" y="384" text-anchor="middle" font-family="Arial, sans-serif" font-size="9" fill="#666" font-style="italic">engine</text>
  <line x1="490" y1="250" x2="490" y2="234" stroke="#333" stroke-width="1" marker-end="url(#arrowhead)"/>
    <text x="490" y="243.4" font-family="Arial, sans-serif" font-size="10" fill="#666">*</text>
    <text x="490" y="237" text-anchor="middle" font-family="Arial, sans-serif" font-size="9" fill="#666" font-style="italic">aircraft</text>
  <line x1="200" y1="316" x2="160" y2="308" stroke="#333" stroke-width="1" marker-end="url(#arrowhead)"/>
    <text x="196" y="310.2" font-family="Arial, sans-serif" font-size="10" fill="#666">*</text>
    <text x="180" y="307" text-anchor="middle" font-family="Arial, sans-serif" font-size="9" fill="#666" font-style="italic">manufacturer</text>
  <line x1="730" y1="740" x2="730" y2="708" stroke="#333" stroke-width="1" marker-end="url(#arrowhead)"/>
    <text x="730" y="731.8" font-family="Arial, sans-serif" font-size="10" fill="#666">*</text>
    <text x="730" y="719" text-anchor="middle" font-family="Arial, sans-serif" font-size="9" fill="#666" font-style="italic">task</text>
  <line x1="200" y1="146" x2="160" y2="146" stroke="#333" stroke-width="1" marker-end="url(#arrowhead)"/>
    <text x="196" y="141" font-family="Arial, sans-serif" font-size="10" fill="#666">*</text>
    <text x="180" y="141" text-anchor="middle" font-family="Arial, sans-serif" font-size="9" fill="#666" font-style="italic">operator</text>
  <line x1="340" y1="146" x2="420" y2="162" stroke="#333" stroke-width="1" marker-end="url(#arrowhead)"/>
    <text x="348" y="142.6" font-family="Arial, sans-serif" font-size="10" fill="#666">*</text>
    <text x="380" y="149" text-anchor="middle" font-family="Arial, sans-serif" font-size="9" fill="#666" font-style="italic">aircraft</text>
  <line x1="420" y1="640" x2="340" y2="456" stroke="#333" stroke-width="1" marker-end="url(#arrowhead)"/>
    <text x="412" y="616.6" font-family="Arial, sans-serif" font-size="10" fill="#666">*</text>
    <text x="380" y="543" text-anchor="middle" font-family="Arial, sans-serif" font-size="9" fill="#666" font-style="italic">maintenance_plan</text>
  <line x1="270" y1="400" x2="270" y2="372" stroke="#333" stroke-width="1" marker-end="url(#arrowhead)"/>
    <text x="270" y="392.2" font-family="Arial, sans-serif" font-size="10" fill="#666">*</text>
    <text x="270" y="381" text-anchor="middle" font-family="Arial, sans-serif" font-size="9" fill="#666" font-style="italic">engine_type</text>
  <line x1="270" y1="560" x2="270" y2="512" stroke="#333" stroke-width="1" marker-end="url(#arrowhead)"/>
    <text x="270" y="550.2" font-family="Arial, sans-serif" font-size="10" fill="#666">*</text>
    <text x="270" y="531" text-anchor="middle" font-family="Arial, sans-serif" font-size="9" fill="#666" font-style="italic">maintenance_plan</text>
  <line x1="270" y1="704" x2="270" y2="740" stroke="#333" stroke-width="1" marker-end="url(#arrowhead)"/>
    <text x="270" y="702.6" font-family="Arial, sans-serif" font-size="10" fill="#666">*</text>
    <text x="270" y="717" text-anchor="middle" font-family="Arial, sans-serif" font-size="9" fill="#666" font-style="italic">task_type</text>
  <line x1="870" y1="472" x2="770" y2="472" stroke="#333" stroke-width="1" marker-end="url(#arrowhead)"/>
    <text x="860" y="467" font-family="Arial, sans-serif" font-size="10" fill="#666">1</text>
    <text x="820" y="467" text-anchor="middle" font-family="Arial, sans-serif" font-size="9" fill="#666" font-style="italic">workscope</text>
    <text x="780" y="467" font-family="Arial, sans-serif" font-size="10" fill="#666">1</text>
  <line x1="940" y1="544" x2="940" y2="720" stroke="#333" stroke-width="1" marker-end="url(#arrowhead)"/>
    <text x="940" y="556.6" font-family="Arial, sans-serif" font-size="10" fill="#666">*</text>
    <text x="940" y="627" text-anchor="middle" font-family="Arial, sans-serif" font-size="9" fill="#666" font-style="italic">mro</text>
  <line x1="940" y1="666" x2="940" y2="720" stroke="#333" stroke-width="1" marker-end="url(#arrowhead)"/>
    <text x="940" y="666.4" font-family="Arial, sans-serif" font-size="10" fill="#666">*</text>
    <text x="940" y="688" text-anchor="middle" font-family="Arial, sans-serif" font-size="9" fill="#666" font-style="italic">mro</text>
  <line x1="800" y1="644" x2="870" y2="472" stroke="#333" stroke-width="1" marker-end="url(#arrowhead)"/>
    <text x="807" y="621.8" font-family="Arial, sans-serif" font-size="10" fill="#666">*</text>
    <text x="835" y="553" text-anchor="middle" font-family="Arial, sans-serif" font-size="9" fill="#666" font-style="italic">repair_order</text>
  <line x1="660" y1="644" x2="340" y2="788" stroke="#333" stroke-width="1" marker-end="url(#arrowhead)"/>
    <text x="628" y="653.4" font-family="Arial, sans-serif" font-size="10" fill="#666">*</text>
    <text x="500" y="711" text-anchor="middle" font-family="Arial, sans-serif" font-size="9" fill="#666" font-style="italic">task_type</text>
  <line x1="630" y1="472" x2="560" y2="464" stroke="#333" stroke-width="1" marker-end="url(#arrowhead)"/>
    <text x="623" y="466.2" font-family="Arial, sans-serif" font-size="10" fill="#666">*</text>
    <text x="595" y="463" text-anchor="middle" font-family="Arial, sans-serif" font-size="9" fill="#666" font-style="italic">engine</text>
  <line x1="630" y1="472" x2="560" y2="640" stroke="#333" stroke-width="1" marker-end="url(#arrowhead)"/>
    <text x="623" y="483.8" font-family="Arial, sans-serif" font-size="10" fill="#666">*</text>
    <text x="595" y="551" text-anchor="middle" font-family="Arial, sans-serif" font-size="9" fill="#666" font-style="italic">inspection_type</text>

  <!-- Class boxes -->
  <rect x="420" y="90" width="140" height="144" fill="#D9EAD3" stroke="#333" stroke-width="1.5" rx="3"/>
    <text x="490" y="106" text-anchor="middle" font-family="Arial, sans-serif" font-size="12" font-weight="bold">Aircraft</text>
    <line x1="420" y1="114" x2="560" y2="114" stroke="#333" stroke-width="1"/>
    <text x="425" y="128" font-family="Arial, sans-serif" font-size="10">id: int</text>
    <text x="425" y="144" font-family="Arial, sans-serif" font-size="10">registration: string</text>
    <text x="425" y="160" font-family="Arial, sans-serif" font-size="10">serial_number: string</text>
    <text x="425" y="176" font-family="Arial, sans-serif" font-size="10">type_id: int</text>
    <text x="425" y="192" font-family="Arial, sans-serif" font-size="10">manufacture_date: date</text>
    <text x="425" y="208" font-family="Arial, sans-serif" font-size="10">total_flight_hours: int</text>
    <text x="425" y="224" font-family="Arial, sans-serif" font-size="10">total_cycles: int</text>
  <rect x="840" y="90" width="140" height="96" fill="#D6E4F0" stroke="#333" stroke-width="1.5" rx="3"/>
    <text x="910" y="106" text-anchor="middle" font-family="Arial, sans-serif" font-size="12" font-weight="bold">AircraftManufacturer</text>
    <line x1="840" y1="114" x2="980" y2="114" stroke="#333" stroke-width="1"/>
    <text x="845" y="128" font-family="Arial, sans-serif" font-size="10">id: int</text>
    <text x="845" y="144" font-family="Arial, sans-serif" font-size="10">name: string</text>
    <text x="845" y="160" font-family="Arial, sans-serif" font-size="10">country: string</text>
    <text x="845" y="176" font-family="Arial, sans-serif" font-size="10">icao_code: string</text>
  <rect x="640" y="90" width="140" height="128" fill="#D6E4F0" stroke="#333" stroke-width="1.5" rx="3"/>
    <text x="710" y="106" text-anchor="middle" font-family="Arial, sans-serif" font-size="12" font-weight="bold">AircraftType</text>
    <line x1="640" y1="114" x2="780" y2="114" stroke="#333" stroke-width="1"/>
    <text x="645" y="128" font-family="Arial, sans-serif" font-size="10">id: int</text>
    <text x="645" y="144" font-family="Arial, sans-serif" font-size="10">designation: string</text>
    <text x="645" y="160" font-family="Arial, sans-serif" font-size="10">name: string</text>
    <text x="645" y="176" font-family="Arial, sans-serif" font-size="10">manufacturer_id: int</text>
    <text x="645" y="192" font-family="Arial, sans-serif" font-size="10">max_passengers: int</text>
    <text x="645" y="208" font-family="Arial, sans-serif" font-size="10">max_range_nm: int</text>
  <rect x="420" y="400" width="140" height="128" fill="#FCE5CD" stroke="#333" stroke-width="1.5" rx="3"/>
    <text x="490" y="416" text-anchor="middle" font-family="Arial, sans-serif" font-size="12" font-weight="bold">Engine</text>
    <line x1="420" y1="424" x2="560" y2="424" stroke="#333" stroke-width="1"/>
    <text x="425" y="438" font-family="Arial, sans-serif" font-size="10">id: int</text>
    <text x="425" y="454" font-family="Arial, sans-serif" font-size="10">serial_number: string</text>
    <text x="425" y="470" font-family="Arial, sans-serif" font-size="10">type_id: int</text>
    <text x="425" y="486" font-family="Arial, sans-serif" font-size="10">manufacture_date: date</text>
    <text x="425" y="502" font-family="Arial, sans-serif" font-size="10">total_flight_hours: int</text>
    <text x="425" y="518" font-family="Arial, sans-serif" font-size="10">total_cycles: int</text>
  <rect x="420" y="250" width="140" height="128" fill="#FCE5CD" stroke="#333" stroke-width="1.5" rx="3"/>
    <text x="490" y="266" text-anchor="middle" font-family="Arial, sans-serif" font-size="12" font-weight="bold">EngineAssignment</text>
    <line x1="420" y1="274" x2="560" y2="274" stroke="#333" stroke-width="1"/>
    <text x="425" y="288" font-family="Arial, sans-serif" font-size="10">id: int</text>
    <text x="425" y="304" font-family="Arial, sans-serif" font-size="10">engine_id: int</text>
    <text x="425" y="320" font-family="Arial, sans-serif" font-size="10">aircraft_id: int</text>
    <text x="425" y="336" font-family="Arial, sans-serif" font-size="10">position: int</text>
    <text x="425" y="352" font-family="Arial, sans-serif" font-size="10">installed_date: date</text>
    <text x="425" y="368" font-family="Arial, sans-serif" font-size="10">removed_date: date</text>
  <rect x="20" y="260" width="140" height="96" fill="#D6E4F0" stroke="#333" stroke-width="1.5" rx="3"/>
    <text x="90" y="276" text-anchor="middle" font-family="Arial, sans-serif" font-size="12" font-weight="bold">EngineManufacturer</text>
    <line x1="20" y1="284" x2="160" y2="284" stroke="#333" stroke-width="1"/>
    <text x="25" y="298" font-family="Arial, sans-serif" font-size="10">id: int</text>
    <text x="25" y="314" font-family="Arial, sans-serif" font-size="10">name: string</text>
    <text x="25" y="330" font-family="Arial, sans-serif" font-size="10">country: string</text>
    <text x="25" y="346" font-family="Arial, sans-serif" font-size="10">icao_code: string</text>
  <rect x="200" y="260" width="140" height="112" fill="#D6E4F0" stroke="#333" stroke-width="1.5" rx="3"/>
    <text x="270" y="276" text-anchor="middle" font-family="Arial, sans-serif" font-size="12" font-weight="bold">EngineType</text>
    <line x1="200" y1="284" x2="340" y2="284" stroke="#333" stroke-width="1"/>
    <text x="205" y="298" font-family="Arial, sans-serif" font-size="10">id: int</text>
    <text x="205" y="314" font-family="Arial, sans-serif" font-size="10">designation: string</text>
    <text x="205" y="330" font-family="Arial, sans-serif" font-size="10">name: string</text>
    <text x="205" y="346" font-family="Arial, sans-serif" font-size="10">manufacturer_id: int</text>
    <text x="205" y="362" font-family="Arial, sans-serif" font-size="10">thrust_lbs: int</text>
  <rect x="660" y="740" width="140" height="160" fill="#E6D9F2" stroke="#333" stroke-width="1.5" rx="3"/>
    <text x="730" y="756" text-anchor="middle" font-family="Arial, sans-serif" font-size="12" font-weight="bold">Finding</text>
    <line x1="660" y1="764" x2="800" y2="764" stroke="#333" stroke-width="1"/>
    <text x="665" y="778" font-family="Arial, sans-serif" font-size="10">id: int</text>
    <text x="665" y="794" font-family="Arial, sans-serif" font-size="10">task_id: int</text>
    <text x="665" y="810" font-family="Arial, sans-serif" font-size="10">finding_number: string</text>
    <text x="665" y="826" font-family="Arial, sans-serif" font-size="10">description: string</text>
    <text x="665" y="842" font-family="Arial, sans-serif" font-size="10">severity: string</text>
    <text x="665" y="858" font-family="Arial, sans-serif" font-size="10">status: string</text>
    <text x="665" y="874" font-family="Arial, sans-serif" font-size="10">reported_date: date</text>
    <text x="665" y="890" font-family="Arial, sans-serif" font-size="10">resolved_date: date</text>
  <rect x="200" y="90" width="140" height="112" fill="#D9EAD3" stroke="#333" stroke-width="1.5" rx="3"/>
    <text x="270" y="106" text-anchor="middle" font-family="Arial, sans-serif" font-size="12" font-weight="bold">Fleet</text>
    <line x1="200" y1="114" x2="340" y2="114" stroke="#333" stroke-width="1"/>
    <text x="205" y="128" font-family="Arial, sans-serif" font-size="10">id: int</text>
    <text x="205" y="144" font-family="Arial, sans-serif" font-size="10">name: string</text>
    <text x="205" y="160" font-family="Arial, sans-serif" font-size="10">operator_id: int</text>
    <text x="205" y="176" font-family="Arial, sans-serif" font-size="10">aircraft_id: int</text>
    <text x="205" y="192" font-family="Arial, sans-serif" font-size="10">base_location: string</text>
  <rect x="420" y="560" width="140" height="160" fill="#FCE5CD" stroke="#333" stroke-width="1.5" rx="3"/>
    <text x="490" y="576" text-anchor="middle" font-family="Arial, sans-serif" font-size="12" font-weight="bold">InspectionType</text>
    <line x1="420" y1="584" x2="560" y2="584" stroke="#333" stroke-width="1"/>
    <text x="425" y="598" font-family="Arial, sans-serif" font-size="10">id: int</text>
    <text x="425" y="614" font-family="Arial, sans-serif" font-size="10">code: string</text>
    <text x="425" y="630" font-family="Arial, sans-serif" font-size="10">name: string</text>
    <text x="425" y="646" font-family="Arial, sans-serif" font-size="10">description: string</text>
    <text x="425" y="662" font-family="Arial, sans-serif" font-size="10">interval_hours: int</text>
    <text x="425" y="678" font-family="Arial, sans-serif" font-size="10">interval_cycles: int</text>
    <text x="425" y="694" font-family="Arial, sans-serif" font-size="10">interval_days: int</text>
    <text x="425" y="710" font-family="Arial, sans-serif" font-size="10">maintenance_plan_id: int</text>
  <rect x="870" y="720" width="140" height="96" fill="#E6D9F2" stroke="#333" stroke-width="1.5" rx="3"/>
    <text x="940" y="736" text-anchor="middle" font-family="Arial, sans-serif" font-size="12" font-weight="bold">MRO</text>
    <line x1="870" y1="744" x2="1010" y2="744" stroke="#333" stroke-width="1"/>
    <text x="875" y="758" font-family="Arial, sans-serif" font-size="10">id: int</text>
    <text x="875" y="774" font-family="Arial, sans-serif" font-size="10">name: string</text>
    <text x="875" y="790" font-family="Arial, sans-serif" font-size="10">location: string</text>
    <text x="875" y="806" font-family="Arial, sans-serif" font-size="10">country: string</text>
  <rect x="200" y="400" width="140" height="112" fill="#D6E4F0" stroke="#333" stroke-width="1.5" rx="3"/>
    <text x="270" y="416" text-anchor="middle" font-family="Arial, sans-serif" font-size="12" font-weight="bold">MaintenancePlan</text>
    <line x1="200" y1="424" x2="340" y2="424" stroke="#333" stroke-width="1"/>
    <text x="205" y="438" font-family="Arial, sans-serif" font-size="10">id: int</text>
    <text x="205" y="454" font-family="Arial, sans-serif" font-size="10">engine_type_id: int</text>
    <text x="205" y="470" font-family="Arial, sans-serif" font-size="10">name: string</text>
    <text x="205" y="486" font-family="Arial, sans-serif" font-size="10">revision: string</text>
    <text x="205" y="502" font-family="Arial, sans-serif" font-size="10">effective_date: date</text>
  <rect x="200" y="560" width="140" height="144" fill="#D6E4F0" stroke="#333" stroke-width="1.5" rx="3"/>
    <text x="270" y="576" text-anchor="middle" font-family="Arial, sans-serif" font-size="12" font-weight="bold">MaintenancePlanTask</text>
    <line x1="200" y1="584" x2="340" y2="584" stroke="#333" stroke-width="1"/>
    <text x="205" y="598" font-family="Arial, sans-serif" font-size="10">id: int</text>
    <text x="205" y="614" font-family="Arial, sans-serif" font-size="10">maintenance_plan_id: int</text>
    <text x="205" y="630" font-family="Arial, sans-serif" font-size="10">task_type_id: int</text>
    <text x="205" y="646" font-family="Arial, sans-serif" font-size="10">task_code: string</text>
    <text x="205" y="662" font-family="Arial, sans-serif" font-size="10">description: string</text>
    <text x="205" y="678" font-family="Arial, sans-serif" font-size="10">interval_hours: int</text>
    <text x="205" y="694" font-family="Arial, sans-serif" font-size="10">interval_cycles: int</text>
  <rect x="20" y="90" width="140" height="112" fill="#D9EAD3" stroke="#333" stroke-width="1.5" rx="3"/>
    <text x="90" y="106" text-anchor="middle" font-family="Arial, sans-serif" font-size="12" font-weight="bold">Operator</text>
    <line x1="20" y1="114" x2="160" y2="114" stroke="#333" stroke-width="1"/>
    <text x="25" y="128" font-family="Arial, sans-serif" font-size="10">id: int</text>
    <text x="25" y="144" font-family="Arial, sans-serif" font-size="10">name: string</text>
    <text x="25" y="160" font-family="Arial, sans-serif" font-size="10">icao_code: string</text>
    <text x="25" y="176" font-family="Arial, sans-serif" font-size="10">iata_code: string</text>
    <text x="25" y="192" font-family="Arial, sans-serif" font-size="10">country: string</text>
  <rect x="870" y="400" width="140" height="144" fill="#E6D9F2" stroke="#333" stroke-width="1.5" rx="3"/>
    <text x="940" y="416" text-anchor="middle" font-family="Arial, sans-serif" font-size="12" font-weight="bold">RepairOrder</text>
    <line x1="870" y1="424" x2="1010" y2="424" stroke="#333" stroke-width="1"/>
    <text x="875" y="438" font-family="Arial, sans-serif" font-size="10">id: int</text>
    <text x="875" y="454" font-family="Arial, sans-serif" font-size="10">workscope_id: int</text>
    <text x="875" y="470" font-family="Arial, sans-serif" font-size="10">mro_id: int</text>
    <text x="875" y="486" font-family="Arial, sans-serif" font-size="10">order_number: string</text>
    <text x="875" y="502" font-family="Arial, sans-serif" font-size="10">status: string</text>
    <text x="875" y="518" font-family="Arial, sans-serif" font-size="10">start_date: date</text>
    <text x="875" y="534" font-family="Arial, sans-serif" font-size="10">end_date: date</text>
  <rect x="870" y="570" width="140" height="96" fill="#E6D9F2" stroke="#333" stroke-width="1.5" rx="3"/>
    <text x="940" y="586" text-anchor="middle" font-family="Arial, sans-serif" font-size="12" font-weight="bold">RepairShop</text>
    <line x1="870" y1="594" x2="1010" y2="594" stroke="#333" stroke-width="1"/>
    <text x="875" y="608" font-family="Arial, sans-serif" font-size="10">id: int</text>
    <text x="875" y="624" font-family="Arial, sans-serif" font-size="10">mro_id: int</text>
    <text x="875" y="640" font-family="Arial, sans-serif" font-size="10">name: string</text>
    <text x="875" y="656" font-family="Arial, sans-serif" font-size="10">specialization: string</text>
  <rect x="660" y="580" width="140" height="128" fill="#E6D9F2" stroke="#333" stroke-width="1.5" rx="3"/>
    <text x="730" y="596" text-anchor="middle" font-family="Arial, sans-serif" font-size="12" font-weight="bold">Task</text>
    <line x1="660" y1="604" x2="800" y2="604" stroke="#333" stroke-width="1"/>
    <text x="665" y="618" font-family="Arial, sans-serif" font-size="10">id: int</text>
    <text x="665" y="634" font-family="Arial, sans-serif" font-size="10">repair_order_id: int</text>
    <text x="665" y="650" font-family="Arial, sans-serif" font-size="10">task_type_id: int</text>
    <text x="665" y="666" font-family="Arial, sans-serif" font-size="10">task_number: string</text>
    <text x="665" y="682" font-family="Arial, sans-serif" font-size="10">description: string</text>
    <text x="665" y="698" font-family="Arial, sans-serif" font-size="10">status: string</text>
  <rect x="200" y="740" width="140" height="96" fill="#E6D9F2" stroke="#333" stroke-width="1.5" rx="3"/>
    <text x="270" y="756" text-anchor="middle" font-family="Arial, sans-serif" font-size="12" font-weight="bold">TaskType</text>
    <line x1="200" y1="764" x2="340" y2="764" stroke="#333" stroke-width="1"/>
    <text x="205" y="778" font-family="Arial, sans-serif" font-size="10">id: int</text>
    <text x="205" y="794" font-family="Arial, sans-serif" font-size="10">code: string</text>
    <text x="205" y="810" font-family="Arial, sans-serif" font-size="10">name: string</text>
    <text x="205" y="826" font-family="Arial, sans-serif" font-size="10">description: string</text>
  <rect x="630" y="400" width="140" height="144" fill="#FCE5CD" stroke="#333" stroke-width="1.5" rx="3"/>
    <text x="700" y="416" text-anchor="middle" font-family="Arial, sans-serif" font-size="12" font-weight="bold">Workscope</text>
    <line x1="630" y1="424" x2="770" y2="424" stroke="#333" stroke-width="1"/>
    <text x="635" y="438" font-family="Arial, sans-serif" font-size="10">id: int</text>
    <text x="635" y="454" font-family="Arial, sans-serif" font-size="10">name: string</text>
    <text x="635" y="470" font-family="Arial, sans-serif" font-size="10">description: string</text>
    <text x="635" y="486" font-family="Arial, sans-serif" font-size="10">engine_id: int</text>
    <text x="635" y="502" font-family="Arial, sans-serif" font-size="10">inspection_type_id: int</text>
    <text x="635" y="518" font-family="Arial, sans-serif" font-size="10">planned_start: date</text>
    <text x="635" y="534" font-family="Arial, sans-serif" font-size="10">planned_end: date</text>

  <!-- Legend -->
  <text x="20" y="780" font-family="Arial, sans-serif" font-size="12" font-weight="bold">Areas:</text>
    <rect x="20" y="790" width="14" height="14" fill="#D6E4F0" stroke="#333" stroke-width="1"/>
    <text x="40" y="800" font-family="Arial, sans-serif" font-size="11">OEM</text>
    <rect x="20" y="810" width="14" height="14" fill="#D9EAD3" stroke="#333" stroke-width="1"/>
    <text x="40" y="820" font-family="Arial, sans-serif" font-size="11">Operations</text>
    <rect x="20" y="830" width="14" height="14" fill="#FCE5CD" stroke="#333" stroke-width="1"/>
    <text x="40" y="840" font-family="Arial, sans-serif" font-size="11">Engine Management</text>
    <rect x="20" y="850" width="14" height="14" fill="#E6D9F2" stroke="#333" stroke-width="1"/>
    <text x="40" y="860" font-family="Arial, sans-serif" font-size="11">Maintenance &amp; Repair</text>
</svg>