<svg xmlns="http://www.w3.org/2000/svg" viewBox="0 0 1200 900" width="1200" height="900">
  <defs>
    <marker id="arrowhead" markerWidth="10" markerHeight="7" refX="9" refY="3.5" orient="auto">
      <polygon points="0 0, 10 3.5, 0 7" fill="#333"/>
    </marker>
  </defs>
  <rect width="1200" height="900" fill="white"/>

  <!-- Relationships -->
  <line x1="560" y1="105" x2="640" y2="105" stroke="#333" stroke-width="1" marker-end="url(#arrowhead)"/>
    <text x="568" y="100" font-family="Arial, sans-serif" font-size="10" fill="#666">*</text>
    <text x="600" y="100" text-anchor="middle" font-family="Arial, sans-serif" font-size="9" fill="#666" font-style="italic">type</text>
  <line x1="780" y1="105" x2="840" y2="105" stroke="#333" stroke-width="1" marker-end="url(#arrowhead)"/>
    <text x="786" y="100" font-family="Arial, sans-serif" font-size="10" fill="#666">*</text>
    <text x="810" y="100" text-anchor="middle" font-family="Arial, sans-serif" font-size="9" fill="#666" font-style="italic">manufacturer</text>
  <line x1="420" y1="415" x2="340" y2="275" stroke="#333" stroke-width="1" marker-end="url(#arrowhead)"/>
    <text x="412" y="396" font-family="Arial, sans-serif" font-size="10" fill="#666">*</text>
    <text x="380" y="340" text-anchor="middle" font-family="Arial, sans-serif" font-size="9" fill="#666" font-style="italic">type</text>
  <line x1="490" y1="280" x2="490" y2="400" stroke="#333" stroke-width="1" marker-end="url(#arrowhead)"/>
    <text x="490" y="287" font-family="Arial, sans-serif" font-size="10" fill="#666">*</text>
    <text x="490" y="335" text-anchor="middle" font-family="Arial, sans-serif" font-size="9" fill="#666" font-style="italic">engine</text>
  <line x1="490" y1="250" x2="490" y2="120" stroke="#333" stroke-width="1" marker-end="url(#arrowhead)"/>
    <text x="490" y="232" font-family="Arial, sans-serif" font-size="10" fill="#666">*</text>
    <text x="490" y="180" text-anchor="middle" font-family="Arial, sans-serif" font-size="9" fill="#666" font-style="italic">aircraft</text>
  <line x1="200" y1="275" x2="160" y2="275" stroke="#333" stroke-width="1" marker-end="url(#arrowhead)"/>
    <text x="196" y="270" font-family="Arial, sans-serif" font-size="10" fill="#666">*</text>
    <text x="180" y="270" text-anchor="middle" font-family="Arial, sans-serif" font-size="9" fill="#666" font-style="italic">manufacturer</text>
  <line x1="730" y1="740" x2="730" y2="610" stroke="#333" stroke-width="1" marker-end="url(#arrowhead)"/>
    <text x="730" y="722" font-family="Arial, sans-serif" font-size="10" fill="#666">*</text>
    <text x="730" y="670" text-anchor="middle" font-family="Arial, sans-serif" font-size="9" fill="#666" font-style="italic">task</text>
  <line x1="200" y1="105" x2="160" y2="105" stroke="#333" stroke-width="1" marker-end="url(#arrowhead)"/>
    <text x="196" y="100" font-family="Arial, sans-serif" font-size="10" fill="#666">*</text>
    <text x="180" y="100" text-anchor="middle" font-family="Arial, sans-serif" font-size="9" fill="#666" font-style="italic">operator</text>
  <line x1="340" y1="105" x2="420" y2="105" stroke="#333" stroke-width="1" marker-end="url(#arrowhead)"/>
    <text x="348" y="100" font-family="Arial, sans-serif" font-size="10" fill="#666">*</text>
    <text x="380" y="100" text-anchor="middle" font-family="Arial, sans-serif" font-size="9" fill="#666" font-style="italic">aircraft</text>
  <line x1="420" y1="575" x2="340" y2="415" stroke="#333" stroke-width="1" marker-end="url(#arrowhead)"/>
    <text x="412" y="554" font-family="Arial, sans-serif" font-size="10" fill="#666">*</text>
    <text x="380" y="490" text-anchor="middle" font-family="Arial, sans-serif" font-size="9" fill="#666" font-style="italic">maintenance_plan</text>
  <line x1="270" y1="400" x2="270" y2="290" stroke="#333" stroke-width="1" marker-end="url(#arrowhead)"/>
    <text x="270" y="384" font-family="Arial, sans-serif" font-size="10" fill="#666">*</text>
    <text x="270" y="340" text-anchor="middle" font-family="Arial, sans-serif" font-size="9" fill="#666" font-style="italic">engine_type</text>
  <line x1="270" y1="560" x2="270" y2="430" stroke="#333" stroke-width="1" marker-end="url(#arrowhead)"/>
    <text x="270" y="542" font-family="Arial, sans-serif" font-size="10" fill="#666">*</text>
    <text x="270" y="490" text-anchor="middle" font-family="Arial, sans-serif" font-size="9" fill="#666" font-style="italic">maintenance_plan</text>
  <line x1="270" y1="590" x2="270" y2="740" stroke="#333" stroke-width="1" marker-end="url(#arrowhead)"/>
    <text x="270" y="600" font-family="Arial, sans-serif" font-size="10" fill="#666">*</text>
    <text x="270" y="660" text-anchor="middle" font-family="Arial, sans-serif" font-size="9" fill="#666" font-style="italic">task_type</text>
  <line x1="870" y1="415" x2="770" y2="415" stroke="#333" stroke-width="1" marker-end="url(#arrowhead)"/>
    <text x="860" y="410" font-family="Arial, sans-serif" font-size="10" fill="#666">1</text>
    <text x="820" y="410" text-anchor="middle" font-family="Arial, sans-serif" font-size="9" fill="#666" font-style="italic">workscope</text>
    <text x="780" y="410" font-family="Arial, sans-serif" font-size="10" fill="#666">1</text>
  <line x1="940" y1="430" x2="940" y2="720" stroke="#333" stroke-width="1" marker-end="url(#arrowhead)"/>
    <text x="940" y="454" font-family="Arial, sans-serif" font-size="10" fill="#666">*</text>
    <text x="940" y="570" text-anchor="middle" font-family="Arial, sans-serif" font-size="9" fill="#666" font-style="italic">mro</text>
  <line x1="940" y1="600" x2="940" y2="720" stroke="#333" stroke-width="1" marker-end="url(#arrowhead)"/>
    <text x="940" y="607" font-family="Arial, sans-serif" font-size="10" fill="#666">*</text>
    <text x="940" y="655" text-anchor="middle" font-family="Arial, sans-serif" font-size="9" fill="#666" font-style="italic">mro</text>
  <line x1="800" y1="595" x2="870" y2="415" stroke="#333" stroke-width="1" marker-end="url(#arrowhead)"/>
    <text x="807" y="572" font-family="Arial, sans-serif" font-size="10" fill="#666">*</text>
    <text x="835" y="500" text-anchor="middle" font-family="Arial, sans-serif" font-size="9" fill="#666" font-style="italic">repair_order</text>
  <line x1="660" y1="595" x2="340" y2="755" stroke="#333" stroke-width="1" marker-end="url(#arrowhead)"/>
    <text x="628" y="606" font-family="Arial, sans-serif" font-size="10" fill="#666">*</text>
    <text x="500" y="670" text-anchor="middle" font-family="Arial, sans-serif" font-size="9" fill="#666" font-style="italic">task_type</text>
  <line x1="630" y1="415" x2="560" y2="415" stroke="#333" stroke-width="1" marker-end="url(#arrowhead)"/>
    <text x="623" y="410" font-family="Arial, sans-serif" font-size="10" fill="#666">*</text>
    <text x="595" y="410" text-anchor="middle" font-family="Arial, sans-serif" font-size="9" fill="#666" font-style="italic">engine</text>
  <line x1="630" y1="415" x2="560" y2="575" stroke="#333" stroke-width="1" marker-end="url(#arrowhead)"/>
    <text x="623" y="426" font-family="Arial, sans-serif" font-size="10" fill="#666">*</text>
    <text x="595" y="490" text-anchor="middle" font-family="Arial, sans-serif" font-size="9" fill="#666" font-style="italic">inspection_type</text>

  <!-- Class boxes -->
  <rect x="420" y="90" width="140" height="30" fill="#D9EAD3" stroke="#333" stroke-width="1.5" rx="3"/>
    <text x="490" y="109" text-anchor="middle" font-family="Arial, sans-serif" font-size="12" font-weight="bold">Aircraft</text>
  <rect x="840" y="90" width="140" height="30" fill="#D6E4F0" stroke="#333" stroke-width="1.5" rx="3"/>
    <text x="910" y="109" text-anchor="middle" font-family="Arial, sans-serif" font-size="12" font-weight="bold">AircraftManufacturer</text>
  <rect x="640" y="90" width="140" height="30" fill="#D6E4F0" stroke="#333" stroke-width="1.5" rx="3"/>
    <text x="710" y="109" text-anchor="middle" font-family="Arial, sans-serif" font-size="12" font-weight="bold">AircraftType</text>
  <rect x="420" y="400" width="140" height="30" fill="#FCE5CD" stroke="#333" stroke-width="1.5" rx="3"/>
    <text x="490" y="419" text-anchor="middle" font-family="Arial, sans-serif" font-size="12" font-weight="bold">Engine</text>
  <rect x="420" y="250" width="140" height="30" fill="#FCE5CD" stroke="#333" stroke-width="1.5" rx="3"/>
    <text x="490" y="269" text-anchor="middle" font-family="Arial, sans-serif" font-size="12" font-weight="bold">EngineAssignment</text>
  <rect x="20" y="260" width="140" height="30" fill="#D6E4F0" stroke="#333" stroke-width="1.5" rx="3"/>
    <text x="90" y="279" text-anchor="middle" font-family="Arial, sans-serif" font-size="12" font-weight="bold">EngineManufacturer</text>
  <rect x="200" y="260" width="140" height="30" fill="#D6E4F0" stroke="#333" stroke-width="1.5" rx="3"/>
    <text x="270" y="279" text-anchor="middle" font-family="Arial, sans-serif" font-size="12" font-weight="bold">EngineType</text>
  <rect x="660" y="740" width="140" height="30" fill="#E6D9F2" stroke="#333" stroke-width="1.5" rx="3"/>
    <text x="730" y="759" text-anchor="middle" font-family="Arial, sans-serif" font-size="12" font-weight="bold">Finding</text>
  <rect x="200" y="90" width="140" height="30" fill="#D9EAD3" stroke="#333" stroke-width="1.5" rx="3"/>
    <text x="270" y="109" text-anchor="middle" font-family="Arial, sans-serif" font-size="12" font-weight="bold">Fleet</text>
  <rect x="420" y="560" width="140" height="30" fill="#FCE5CD" stroke="#333" stroke-width="1.5" rx="3"/>
    <text x="490" y="579" text-anchor="middle" font-family="Arial, sans-serif" font-size="12" font-weight="bold">InspectionType</text>
  <rect x="200" y="400" width="140" height="30" fill="#D6E4F0" stroke="#333" stroke-width="1.5" rx="3"/>
    <text x="270" y="419" text-anchor="middle" font-family="Arial, sans-serif" font-size="12" font-weight="bold">MaintenancePlan</text>
  <rect x="200" y="560" width="140" height="30" fill="#D6E4F0" stroke="#333" stroke-width="1.5" rx="3"/>
    <text x="270" y="579" text-anchor="middle" font-family="Arial, sans-serif" font-size="12" font-weight="bold">MaintenancePlanTask</text>
  <rect x="870" y="720" width="140" height="30" fill="#E6D9F2" stroke="#333" stroke-width="1.5" rx="3"/>
    <text x="940" y="739" text-anchor="middle" font-family="Arial, sans-serif" font-size="12" font-weight="bold">MRO</text>
  <rect x="20" y="90" width="140" height="30" fill="#D9EAD3" stroke="#333" stroke-width="1.5" rx="3"/>
    <text x="90" y="109" text-anchor="middle" font-family="Arial, sans-serif" font-size="12" font-weight="bold">Operator</text>
  <rect x="870" y="400" width="140" height="30" fill="#E6D9F2" stroke="#333" stroke-width="1.5" rx="3"/>
    <text x="940" y="419" text-anchor="middle" font-family="Arial, sans-serif" font-size="12" font-weight="bold">RepairOrder</text>
  <rect x="870" y="570" width="140" height="30" fill="#E6D9F2" stroke="#333" stroke-width="1.5" rx="3"/>
    <text x="940" y="589" text-anchor="middle" font-family="Arial, sans-serif" font-size="12" font-weight="bold">RepairShop</text>
  <rect x="660" y="580" width="140" height="30" fill="#E6D9F2" stroke="#333" stroke-width="1.5" rx="3"/>
    <text x="730" y="599" text-anchor="middle" font-family="Arial, sans-serif" font-size="12" font-weight="bold">Task</text>
  <rect x="200" y="740" width="140" height="30" fill="#E6D9F2" stroke="#333" stroke-width="1.5" rx="3"/>
    <text x="270" y="759" text-anchor="middle" font-family="Arial, sans-serif" font-size="12" font-weight="bold">TaskType</text>
  <rect x="630" y="400" width="140" height="30" fill="#FCE5CD" stroke="#333" stroke-width="1.5" rx="3"/>
    <text x="700" y="419" text-anchor="middle" font-family="Arial, sans-serif" font-size="12" font-weight="bold">Workscope</text>

  <!-- Legend -->
  <text x="20" y="780" font-family="Arial, sans-serif" font-size="12" font-weight="bold">Areas:</text>
    <rect x="20" y="790" width="14" height="14" fill="#D6E4F0" stroke="#333" stroke-width="1"/>
    <text x="40" y="800" font-family="Arial, sans-serif" font-size="11">OEM</text>
    <rect x="20" y="810" width="14" height="14" fill="#D9EAD3" stroke="#333" stroke-width="1"/>
    <text x="40" y="820" font-family="Arial, sans-serif" font-size="11">Operations</text>
    <rect x="20" y="830" width="14" height="14" fill="#FCE5CD" stroke="#333" stroke-width="1"/>
    <text x="40" y="840" font-family="Arial, sans-serif" font-size="11">Engine Management</text>
    <rect x="20" y="850" width="14" height="14" fill="#E6D9F2" stroke="#333" stroke-width="1"/>
    <text x="40" y="860" font-family="Arial, sans-serif" font-size="11">Maintenance &amp; Repair</text>
</svg>