<svg xmlns="http://www.w3.org/2000/svg" viewBox="0 0 1200 1200" width="1200" height="1200">
  <defs>
    <marker id="arrowhead" markerWidth="10" markerHeight="7" refX="9" refY="3.5" orient="auto">
      <polygon points="0 0, 10 3.5, 0 7" fill="#333"/>
    </marker>
  </defs>
  <rect width="1200" height="1200" fill="white"/>

  <!-- Relationships -->
  <path d="M 560 45 L 575 45 L 630 60" fill="none" stroke="#333" stroke-width="1" marker-end="url(#arrowhead)"/>
    <text x="602.5" y="47.5" text-anchor="middle" font-family="Arial, sans-serif" font-size="9" fill="#666" font-style="italic">type</text>
  <path d="M 420 45 L 405 45 L 180 75.96774193548387" fill="none" stroke="#333" stroke-width="1" marker-end="url(#arrowhead)"/>
    <text x="292.5" y="55.483870967741936" text-anchor="middle" font-family="Arial, sans-serif" font-size="9" fill="#666" font-style="italic">current_operator</text>
  <path d="M 770 75 L 785 75 L 820 79.16666666666667" fill="none" stroke="#333" stroke-width="1" marker-end="url(#arrowhead)"/>
    <text x="802.5" y="72.08333333333334" text-anchor="middle" font-family="Arial, sans-serif" font-size="9" fill="#666" font-style="italic">manufacturer</text>
  <path d="M 420 565 L 405 565 L 360 555.7692307692307" fill="none" stroke="#333" stroke-width="1" marker-end="url(#arrowhead)"/>
    <text x="382.5" y="555.3846153846154" text-anchor="middle" font-family="Arial, sans-serif" font-size="9" fill="#666" font-style="italic">type</text>
  <path d="M 420 395 L 435 395 L 483.8235294117647 550" fill="none" stroke="#333" stroke-width="1" marker-end="url(#arrowhead)"/>
    <text x="459.4117647058823" y="467.5" text-anchor="middle" font-family="Arial, sans-serif" font-size="9" fill="#666" font-style="italic">engine</text>
  <path d="M 420 395 L 435 395 L 487 60" fill="none" stroke="#333" stroke-width="1" marker-end="url(#arrowhead)"/>
    <text x="461" y="222.5" text-anchor="middle" font-family="Arial, sans-serif" font-size="9" fill="#666" font-style="italic">aircraft</text>
  <path d="M 220 545 L 205 545 L 170 545" fill="none" stroke="#333" stroke-width="1" marker-end="url(#arrowhead)"/>
    <text x="187.5" y="540" text-anchor="middle" font-family="Arial, sans-serif" font-size="9" fill="#666" font-style="italic">manufacturer</text>
  <path d="M 780 905 L 765 905 L 752.8125 760" fill="none" stroke="#333" stroke-width="1" marker-end="url(#arrowhead)"/>
    <text x="758.90625" y="827.5" text-anchor="middle" font-family="Arial, sans-serif" font-size="9" fill="#666" font-style="italic">task</text>
  <path d="M 230 205 L 215 205 L 125 100" fill="none" stroke="#333" stroke-width="1" marker-end="url(#arrowhead)"/>
    <text x="170" y="147.5" text-anchor="middle" font-family="Arial, sans-serif" font-size="9" fill="#666" font-style="italic">operator</text>
  <path d="M 370 205 L 385 205 L 478.75 60" fill="none" stroke="#333" stroke-width="1" marker-end="url(#arrowhead)"/>
    <text x="431.875" y="127.5" text-anchor="middle" font-family="Arial, sans-serif" font-size="9" fill="#666" font-style="italic">aircraft</text>
  <path d="M 420 735 L 405 735 L 210 735" fill="none" stroke="#333" stroke-width="1" marker-end="url(#arrowhead)"/>
    <text x="307.5" y="730" text-anchor="middle" font-family="Arial, sans-serif" font-size="9" fill="#666" font-style="italic">maintenance_plan</text>
  <path d="M 210 735 L 225 735 L 283.6842105263158 560" fill="none" stroke="#333" stroke-width="1" marker-end="url(#arrowhead)"/>
    <text x="254.3421052631579" y="642.5" text-anchor="middle" font-family="Arial, sans-serif" font-size="9" fill="#666" font-style="italic">engine_type</text>
  <path d="M 200 885 L 185 885 L 146 750" fill="none" stroke="#333" stroke-width="1" marker-end="url(#arrowhead)"/>
    <text x="165.5" y="812.5" text-anchor="middle" font-family="Arial, sans-serif" font-size="9" fill="#666" font-style="italic">maintenance_plan</text>
  <path d="M 340 885 L 355 885 L 445 920" fill="none" stroke="#333" stroke-width="1" marker-end="url(#arrowhead)"/>
    <text x="400" y="897.5" text-anchor="middle" font-family="Arial, sans-serif" font-size="9" fill="#666" font-style="italic">task_type</text>
  <path d="M 810 555 L 795 555 L 770 555" fill="none" stroke="#333" stroke-width="1" marker-end="url(#arrowhead)"/>
    <text x="782.5" y="550" text-anchor="middle" font-family="Arial, sans-serif" font-size="9" fill="#666" font-style="italic">workscope</text>
  <path d="M 810 555 L 825 555 L 873 420" fill="none" stroke="#333" stroke-width="1" marker-end="url(#arrowhead)"/>
    <text x="849" y="482.5" text-anchor="middle" font-family="Arial, sans-serif" font-size="9" fill="#666" font-style="italic">repair_shop</text>
  <path d="M 810 405 L 825 405 L 872.5 280" fill="none" stroke="#333" stroke-width="1" marker-end="url(#arrowhead)"/>
    <text x="848.75" y="337.5" text-anchor="middle" font-family="Arial, sans-serif" font-size="9" fill="#666" font-style="italic">mro</text>
  <path d="M 820 745 L 835 745 L 875.2631578947369 570" fill="none" stroke="#333" stroke-width="1" marker-end="url(#arrowhead)"/>
    <text x="855.1315789473684" y="652.5" text-anchor="middle" font-family="Arial, sans-serif" font-size="9" fill="#666" font-style="italic">repair_order</text>
  <path d="M 680 745 L 665 745 L 505 920" fill="none" stroke="#333" stroke-width="1" marker-end="url(#arrowhead)"/>
    <text x="585" y="827.5" text-anchor="middle" font-family="Arial, sans-serif" font-size="9" fill="#666" font-style="italic">task_type</text>
  <path d="M 630 555 L 615 555 L 560 560" fill="none" stroke="#333" stroke-width="1" marker-end="url(#arrowhead)"/>
    <text x="587.5" y="552.5" text-anchor="middle" font-family="Arial, sans-serif" font-size="9" fill="#666" font-style="italic">engine</text>
  <path d="M 630 555 L 615 555 L 501.6666666666667 720" fill="none" stroke="#333" stroke-width="1" marker-end="url(#arrowhead)"/>
    <text x="558.3333333333334" y="632.5" text-anchor="middle" font-family="Arial, sans-serif" font-size="9" fill="#666" font-style="italic">inspection_type</text>

  <!-- Class boxes -->
  <rect x="420" y="30" width="140" height="30" fill="#D9EAD3" stroke="#333" stroke-width="1.5" rx="3"/>
    <text x="490" y="49" text-anchor="middle" font-family="Arial, sans-serif" font-size="12" font-weight="bold">Aircraft</text>
  <rect x="820" y="70" width="140" height="30" fill="#D6E4F0" stroke="#333" stroke-width="1.5" rx="3"/>
    <text x="890" y="89" text-anchor="middle" font-family="Arial, sans-serif" font-size="12" font-weight="bold">AircraftManufacturer</text>
  <rect x="630" y="60" width="140" height="30" fill="#D6E4F0" stroke="#333" stroke-width="1.5" rx="3"/>
    <text x="700" y="79" text-anchor="middle" font-family="Arial, sans-serif" font-size="12" font-weight="bold">AircraftType</text>
  <rect x="420" y="550" width="140" height="30" fill="#FCE5CD" stroke="#333" stroke-width="1.5" rx="3"/>
    <text x="490" y="569" text-anchor="middle" font-family="Arial, sans-serif" font-size="12" font-weight="bold">Engine</text>
  <rect x="420" y="380" width="140" height="30" fill="#FCE5CD" stroke="#333" stroke-width="1.5" rx="3"/>
    <text x="490" y="399" text-anchor="middle" font-family="Arial, sans-serif" font-size="12" font-weight="bold">EngineAssignment</text>
  <rect x="30" y="530" width="140" height="30" fill="#D6E4F0" stroke="#333" stroke-width="1.5" rx="3"/>
    <text x="100" y="549" text-anchor="middle" font-family="Arial, sans-serif" font-size="12" font-weight="bold">EngineManufacturer</text>
  <rect x="220" y="530" width="140" height="30" fill="#D6E4F0" stroke="#333" stroke-width="1.5" rx="3"/>
    <text x="290" y="549" text-anchor="middle" font-family="Arial, sans-serif" font-size="12" font-weight="bold">EngineType</text>
  <rect x="780" y="890" width="140" height="30" fill="#E6D9F2" stroke="#333" stroke-width="1.5" rx="3"/>
    <text x="850" y="909" text-anchor="middle" font-family="Arial, sans-serif" font-size="12" font-weight="bold">Finding</text>
  <rect x="230" y="190" width="140" height="30" fill="#D9EAD3" stroke="#333" stroke-width="1.5" rx="3"/>
    <text x="300" y="209" text-anchor="middle" font-family="Arial, sans-serif" font-size="12" font-weight="bold">FleetMember</text>
  <rect x="420" y="720" width="140" height="30" fill="#FCE5CD" stroke="#333" stroke-width="1.5" rx="3"/>
    <text x="490" y="739" text-anchor="middle" font-family="Arial, sans-serif" font-size="12" font-weight="bold">InspectionType</text>
  <rect x="810" y="250" width="140" height="30" fill="#E6D9F2" stroke="#333" stroke-width="1.5" rx="3"/>
    <text x="880" y="269" text-anchor="middle" font-family="Arial, sans-serif" font-size="12" font-weight="bold">MRO</text>
  <rect x="70" y="720" width="140" height="30" fill="#D6E4F0" stroke="#333" stroke-width="1.5" rx="3"/>
    <text x="140" y="739" text-anchor="middle" font-family="Arial, sans-serif" font-size="12" font-weight="bold">MaintenancePlan</text>
  <rect x="200" y="870" width="140" height="30" fill="#D6E4F0" stroke="#333" stroke-width="1.5" rx="3"/>
    <text x="270" y="889" text-anchor="middle" font-family="Arial, sans-serif" font-size="12" font-weight="bold">MaintenancePlanTask</text>
  <rect x="40" y="70" width="140" height="30" fill="#D9EAD3" stroke="#333" stroke-width="1.5" rx="3"/>
    <text x="110" y="89" text-anchor="middle" font-family="Arial, sans-serif" font-size="12" font-weight="bold">Operator</text>
  <rect x="810" y="540" width="140" height="30" fill="#E6D9F2" stroke="#333" stroke-width="1.5" rx="3"/>
    <text x="880" y="559" text-anchor="middle" font-family="Arial, sans-serif" font-size="12" font-weight="bold">RepairOrder</text>
  <rect x="810" y="390" width="140" height="30" fill="#E6D9F2" stroke="#333" stroke-width="1.5" rx="3"/>
    <text x="880" y="409" text-anchor="middle" font-family="Arial, sans-serif" font-size="12" font-weight="bold">RepairShop</text>
  <rect x="680" y="730" width="140" height="30" fill="#E6D9F2" stroke="#333" stroke-width="1.5" rx="3"/>
    <text x="750" y="749" text-anchor="middle" font-family="Arial, sans-serif" font-size="12" font-weight="bold">Task</text>
  <rect x="420" y="920" width="140" height="30" fill="#E6D9F2" stroke="#333" stroke-width="1.5" rx="3"/>
    <text x="490" y="939" text-anchor="middle" font-family="Arial, sans-serif" font-size="12" font-weight="bold">TaskType</text>
  <rect x="630" y="540" width="140" height="30" fill="#FCE5CD" stroke="#333" stroke-width="1.5" rx="3"/>
    <text x="700" y="559" text-anchor="middle" font-family="Arial, sans-serif" font-size="12" font-weight="bold">Workscope</text>

  <!-- Legend -->
  <text x="20" y="1080" font-family="Arial, sans-serif" font-size="12" font-weight="bold">Areas:</text>
    <rect x="20" y="1090" width="14" height="14" fill="#D6E4F0" stroke="#333" stroke-width="1"/>
    <text x="40" y="1100" font-family="Arial, sans-serif" font-size="11">OEM</text>
    <rect x="20" y="1110" width="14" height="14" fill="#D9EAD3" stroke="#333" stroke-width="1"/>
    <text x="40" y="1120" font-family="Arial, sans-serif" font-size="11">Operations</text>
    <rect x="20" y="1130" width="14" height="14" fill="#FCE5CD" stroke="#333" stroke-width="1"/>
    <text x="40" y="1140" font-family="Arial, sans-serif" font-size="11">Engine Management</text>
    <rect x="20" y="1150" width="14" height="14" fill="#E6D9F2" stroke="#333" stroke-width="1"/>
    <text x="40" y="1160" font-family="Arial, sans-serif" font-size="11">Maintenance &amp; Repair</text>
</svg>