<svg xmlns="http://www.w3.org/2000/svg" viewBox="0 0 1290 1060" width="1290" height="1060">
  <defs>
    <marker id="arrowhead" markerWidth="10" markerHeight="7" refX="9" refY="3.5" orient="auto">
      <polygon points="0 0, 10 3.5, 0 7" fill="#333"/>
    </marker>
  </defs>
  <rect width="1290" height="1060" fill="white"/>

  <!-- Relationships -->
  <path d="M 410 155 L 385 155 L 345 140" fill="none" stroke="#333" stroke-width="1" marker-end="url(#arrowhead)"/>
  <text x="365" y="142.5" text-anchor="middle" font-family="Arial, sans-serif" font-size="9" fill="#666" font-style="italic">type</text>
  <path d="M 550 155 L 575 155 L 700 110" fill="none" stroke="#333" stroke-width="1" marker-end="url(#arrowhead)"/>
  <text x="637.5" y="127.5" text-anchor="middle" font-family="Arial, sans-serif" font-size="9" fill="#666" font-style="italic">current_operator</text>
  <path d="M 350 144 A 25 25 0 1 0 350 122" fill="none" stroke="#333" stroke-width="1" marker-end="url(#arrowhead)"/>
  <text x="380" y="133" text-anchor="start" font-family="Arial, sans-serif" font-size="9" fill="#666" font-style="italic">super_type</text>
  <path d="M 210 125 L 185 125 L 160 129.16666666666666" fill="none" stroke="#333" stroke-width="1" marker-end="url(#arrowhead)"/>
  <text x="172.5" y="122.08333333333333" text-anchor="middle" font-family="Arial, sans-serif" font-size="9" fill="#666" font-style="italic">manufacturer</text>
  <path d="M 1100 155 L 1075 155 L 820 107" fill="none" stroke="#333" stroke-width="1" marker-end="url(#arrowhead)"/>
  <text x="947.5" y="126" text-anchor="middle" font-family="Arial, sans-serif" font-size="9" fill="#666" font-style="italic">own_operator</text>
  <path d="M 1100 155 L 1075 155 L 955.5 240" fill="none" stroke="#333" stroke-width="1" marker-end="url(#arrowhead)"/>
  <text x="1015.25" y="192.5" text-anchor="middle" font-family="Arial, sans-serif" font-size="9" fill="#666" font-style="italic">camo</text>
  <path d="M 410 605 L 385 605 L 320 621.875" fill="none" stroke="#333" stroke-width="1" marker-end="url(#arrowhead)"/>
  <text x="352.5" y="608.4375" text-anchor="middle" font-family="Arial, sans-serif" font-size="9" fill="#666" font-style="italic">type</text>
  <path d="M 800 385 L 775 385 L 500.8695652173913 170" fill="none" stroke="#333" stroke-width="1" marker-end="url(#arrowhead)"/>
  <text x="637.9347826086956" y="272.5" text-anchor="middle" font-family="Arial, sans-serif" font-size="9" fill="#666" font-style="italic">aircraft</text>
  <path d="M 940 385 L 965 385 L 1155 170" fill="none" stroke="#333" stroke-width="1" marker-end="url(#arrowhead)"/>
  <text x="1060" y="272.5" text-anchor="middle" font-family="Arial, sans-serif" font-size="9" fill="#666" font-style="italic">airline</text>
  <path d="M 800 385 L 775 385 L 501.8181818181818 590" fill="none" stroke="#333" stroke-width="1" marker-end="url(#arrowhead)"/>
  <text x="638.4090909090909" y="482.5" text-anchor="middle" font-family="Arial, sans-serif" font-size="9" fill="#666" font-style="italic">engine</text>
  <path d="M 800 385 L 775 385 L 744.5 570" fill="none" stroke="#333" stroke-width="1" marker-end="url(#arrowhead)"/>
  <text x="759.75" y="472.5" text-anchor="middle" font-family="Arial, sans-serif" font-size="9" fill="#666" font-style="italic">event</text>
  <path d="M 300 395 L 275 395 L 180 407.63157894736844" fill="none" stroke="#333" stroke-width="1" marker-end="url(#arrowhead)"/>
  <text x="227.5" y="396.3157894736842" text-anchor="middle" font-family="Arial, sans-serif" font-size="9" fill="#666" font-style="italic">base</text>
  <path d="M 300 395 L 275 395 L 135.9090909090909 490" fill="none" stroke="#333" stroke-width="1" marker-end="url(#arrowhead)"/>
  <text x="205.45454545454544" y="437.5" text-anchor="middle" font-family="Arial, sans-serif" font-size="9" fill="#666" font-style="italic">cradle</text>
  <path d="M 300 395 L 275 395 L 253.125 620" fill="none" stroke="#333" stroke-width="1" marker-end="url(#arrowhead)"/>
  <text x="264.0625" y="502.5" text-anchor="middle" font-family="Arial, sans-serif" font-size="9" fill="#666" font-style="italic">engine_type</text>
  <path d="M 180 505 L 205 505 L 241.9230769230769 620" fill="none" stroke="#333" stroke-width="1" marker-end="url(#arrowhead)"/>
  <text x="223.46153846153845" y="557.5" text-anchor="middle" font-family="Arial, sans-serif" font-size="9" fill="#666" font-style="italic">engine_type</text>
  <path d="M 490 415 L 465 415 L 440 406.6666666666667" fill="none" stroke="#333" stroke-width="1" marker-end="url(#arrowhead)"/>
  <text x="452.5" y="405.83333333333337" text-anchor="middle" font-family="Arial, sans-serif" font-size="9" fill="#666" font-style="italic">stand</text>
  <path d="M 490 415 L 465 415 L 480.7894736842105 590" fill="none" stroke="#333" stroke-width="1" marker-end="url(#arrowhead)"/>
  <text x="472.89473684210526" y="497.5" text-anchor="middle" font-family="Arial, sans-serif" font-size="9" fill="#666" font-style="italic">engine</text>
  <path d="M 320 654 A 25 25 0 1 0 320 632" fill="none" stroke="#333" stroke-width="1" marker-end="url(#arrowhead)"/>
  <text x="350" y="643" text-anchor="start" font-family="Arial, sans-serif" font-size="9" fill="#666" font-style="italic">super_type</text>
  <path d="M 180 635 L 155 635 L 108.57142857142857 760" fill="none" stroke="#333" stroke-width="1" marker-end="url(#arrowhead)"/>
  <text x="131.78571428571428" y="692.5" text-anchor="middle" font-family="Arial, sans-serif" font-size="9" fill="#666" font-style="italic">manufacturer</text>
  <path d="M 1060 955 L 1035 955 L 985 980" fill="none" stroke="#333" stroke-width="1" marker-end="url(#arrowhead)"/>
  <text x="1010" y="962.5" text-anchor="middle" font-family="Arial, sans-serif" font-size="9" fill="#666" font-style="italic">task</text>
  <path d="M 440 765 L 415 765 L 279.2857142857143 890" fill="none" stroke="#333" stroke-width="1" marker-end="url(#arrowhead)"/>
  <text x="347.1428571428571" y="822.5" text-anchor="middle" font-family="Arial, sans-serif" font-size="9" fill="#666" font-style="italic">maintenance_plan</text>
  <path d="M 190 905 L 165 905 L 246.66666666666666 650" fill="none" stroke="#333" stroke-width="1" marker-end="url(#arrowhead)"/>
  <text x="205.83333333333331" y="772.5" text-anchor="middle" font-family="Arial, sans-serif" font-size="9" fill="#666" font-style="italic">engine_type</text>
  <path d="M 430 955 L 405 955 L 311 920" fill="none" stroke="#333" stroke-width="1" marker-end="url(#arrowhead)"/>
  <text x="358" y="932.5" text-anchor="middle" font-family="Arial, sans-serif" font-size="9" fill="#666" font-style="italic">maintenance_plan</text>
  <path d="M 570 955 L 595 955 L 710 928.3333333333334" fill="none" stroke="#333" stroke-width="1" marker-end="url(#arrowhead)"/>
  <text x="652.5" y="936.6666666666667" text-anchor="middle" font-family="Arial, sans-serif" font-size="9" fill="#666" font-style="italic">task_type</text>
  <path d="M 820 95 L 845 95 L 919.6875 240" fill="none" stroke="#333" stroke-width="1" marker-end="url(#arrowhead)"/>
  <text x="882.34375" y="162.5" text-anchor="middle" font-family="Arial, sans-serif" font-size="9" fill="#666" font-style="italic">camo</text>
  <path d="M 750 235 L 775 235 L 750 110" fill="none" stroke="#333" stroke-width="1" marker-end="url(#arrowhead)"/>
  <text x="762.5" y="167.5" text-anchor="middle" font-family="Arial, sans-serif" font-size="9" fill="#666" font-style="italic">operator</text>
  <path d="M 610 235 L 585 235 L 504.375 170" fill="none" stroke="#333" stroke-width="1" marker-end="url(#arrowhead)"/>
  <text x="544.6875" y="197.5" text-anchor="middle" font-family="Arial, sans-serif" font-size="9" fill="#666" font-style="italic">aircraft</text>
  <path d="M 880 695 L 855 695 L 775 740" fill="none" stroke="#333" stroke-width="1" marker-end="url(#arrowhead)"/>
  <text x="815" y="712.5" text-anchor="middle" font-family="Arial, sans-serif" font-size="9" fill="#666" font-style="italic">workscope</text>
  <path d="M 1020 695 L 1045 695 L 1107.5 720" fill="none" stroke="#333" stroke-width="1" marker-end="url(#arrowhead)"/>
  <text x="1076.25" y="702.5" text-anchor="middle" font-family="Arial, sans-serif" font-size="9" fill="#666" font-style="italic">repair_shop</text>
  <path d="M 1090 735 L 1065 735 L 1153.4375 590" fill="none" stroke="#333" stroke-width="1" marker-end="url(#arrowhead)"/>
  <text x="1109.21875" y="657.5" text-anchor="middle" font-family="Arial, sans-serif" font-size="9" fill="#666" font-style="italic">mro</text>
  <path d="M 1010 995 L 1035 995 L 953 710" fill="none" stroke="#333" stroke-width="1" marker-end="url(#arrowhead)"/>
  <text x="994" y="847.5" text-anchor="middle" font-family="Arial, sans-serif" font-size="9" fill="#666" font-style="italic">repair_order</text>
  <path d="M 870 995 L 845 995 L 796.875 930" fill="none" stroke="#333" stroke-width="1" marker-end="url(#arrowhead)"/>
  <text x="820.9375" y="957.5" text-anchor="middle" font-family="Arial, sans-serif" font-size="9" fill="#666" font-style="italic">task_type</text>
  <path d="M 180 295 L 205 295 L 341.5 380" fill="none" stroke="#333" stroke-width="1" marker-end="url(#arrowhead)"/>
  <text x="273.25" y="332.5" text-anchor="middle" font-family="Arial, sans-serif" font-size="9" fill="#666" font-style="italic">stand</text>
  <path d="M 1020 35 L 1045 35 L 1151.25 140" fill="none" stroke="#333" stroke-width="1" marker-end="url(#arrowhead)"/>
  <text x="1098.125" y="82.5" text-anchor="middle" font-family="Arial, sans-serif" font-size="9" fill="#666" font-style="italic">airline</text>
  <path d="M 880 35 L 855 35 L 782.5 80" fill="none" stroke="#333" stroke-width="1" marker-end="url(#arrowhead)"/>
  <text x="818.75" y="52.5" text-anchor="middle" font-family="Arial, sans-serif" font-size="9" fill="#666" font-style="italic">operator</text>
  <path d="M 670 755 L 645 755 L 499 620" fill="none" stroke="#333" stroke-width="1" marker-end="url(#arrowhead)"/>
  <text x="572" y="682.5" text-anchor="middle" font-family="Arial, sans-serif" font-size="9" fill="#666" font-style="italic">engine</text>
  <path d="M 670 755 L 645 755 L 580 760.625" fill="none" stroke="#333" stroke-width="1" marker-end="url(#arrowhead)"/>
  <text x="612.5" y="752.8125" text-anchor="middle" font-family="Arial, sans-serif" font-size="9" fill="#666" font-style="italic">inspection_type</text>

  <!-- Class boxes -->
  <rect x="410" y="140" width="140" height="30" fill="#D9EAD3" stroke="#333" stroke-width="1.5" rx="3"/>
  <text x="480" y="159" text-anchor="middle" font-family="Arial, sans-serif" font-size="12" font-weight="bold">Aircraft</text>
  <rect x="20" y="120" width="140" height="30" fill="#D6E4F0" stroke="#333" stroke-width="1.5" rx="3"/>
  <text x="90" y="139" text-anchor="middle" font-family="Arial, sans-serif" font-size="12" font-weight="bold">AircraftOEM</text>
  <rect x="210" y="110" width="140" height="30" fill="#D6E4F0" stroke="#333" stroke-width="1.5" rx="3"/>
  <text x="280" y="129" text-anchor="middle" font-family="Arial, sans-serif" font-size="12" font-weight="bold">AircraftType</text>
  <rect x="1100" y="140" width="140" height="30" fill="#D9EAD3" stroke="#333" stroke-width="1.5" rx="3"/>
  <text x="1170" y="159" text-anchor="middle" font-family="Arial, sans-serif" font-size="12" font-weight="bold">Airline</text>
  <rect x="860" y="240" width="140" height="30" fill="#D9EAD3" stroke="#333" stroke-width="1.5" rx="3"/>
  <text x="930" y="259" text-anchor="middle" font-family="Arial, sans-serif" font-size="12" font-weight="bold">CAMO</text>
  <rect x="410" y="590" width="140" height="30" fill="#FCE5CD" stroke="#333" stroke-width="1.5" rx="3"/>
  <text x="480" y="609" text-anchor="middle" font-family="Arial, sans-serif" font-size="12" font-weight="bold">Engine</text>
  <rect x="800" y="370" width="140" height="30" fill="#FCE5CD" stroke="#333" stroke-width="1.5" rx="3"/>
  <text x="870" y="389" text-anchor="middle" font-family="Arial, sans-serif" font-size="12" font-weight="bold">EngineAllocation</text>
  <rect x="670" y="570" width="140" height="30" fill="#FCE5CD" stroke="#333" stroke-width="1.5" rx="3"/>
  <text x="740" y="589" text-anchor="middle" font-family="Arial, sans-serif" font-size="12" font-weight="bold">EngineEvent</text>
  <rect x="30" y="760" width="140" height="30" fill="#D6E4F0" stroke="#333" stroke-width="1.5" rx="3"/>
  <text x="100" y="779" text-anchor="middle" font-family="Arial, sans-serif" font-size="12" font-weight="bold">EngineOEM</text>
  <rect x="300" y="380" width="140" height="30" fill="#FCE5CD" stroke="#333" stroke-width="1.5" rx="3"/>
  <text x="370" y="399" text-anchor="middle" font-family="Arial, sans-serif" font-size="12" font-weight="bold">EngineStand</text>
  <rect x="40" y="400" width="140" height="30" fill="#FCE5CD" stroke="#333" stroke-width="1.5" rx="3"/>
  <text x="110" y="419" text-anchor="middle" font-family="Arial, sans-serif" font-size="12" font-weight="bold">EngineStandBase</text>
  <rect x="40" y="490" width="140" height="30" fill="#FCE5CD" stroke="#333" stroke-width="1.5" rx="3"/>
  <text x="110" y="509" text-anchor="middle" font-family="Arial, sans-serif" font-size="12" font-weight="bold">EngineStandCradle</text>
  <rect x="490" y="400" width="140" height="30" fill="#FCE5CD" stroke="#333" stroke-width="1.5" rx="3"/>
  <text x="560" y="419" text-anchor="middle" font-family="Arial, sans-serif" font-size="12" font-weight="bold">EngineStandMounting</text>
  <rect x="180" y="620" width="140" height="30" fill="#D6E4F0" stroke="#333" stroke-width="1.5" rx="3"/>
  <text x="250" y="639" text-anchor="middle" font-family="Arial, sans-serif" font-size="12" font-weight="bold">EngineType</text>
  <rect x="1060" y="940" width="140" height="30" fill="#E6D9F2" stroke="#333" stroke-width="1.5" rx="3"/>
  <text x="1130" y="959" text-anchor="middle" font-family="Arial, sans-serif" font-size="12" font-weight="bold">Finding</text>
  <rect x="440" y="750" width="140" height="30" fill="#FCE5CD" stroke="#333" stroke-width="1.5" rx="3"/>
  <text x="510" y="769" text-anchor="middle" font-family="Arial, sans-serif" font-size="12" font-weight="bold">InspectionType</text>
  <rect x="1090" y="560" width="140" height="30" fill="#E6D9F2" stroke="#333" stroke-width="1.5" rx="3"/>
  <text x="1160" y="579" text-anchor="middle" font-family="Arial, sans-serif" font-size="12" font-weight="bold">MRO</text>
  <rect x="190" y="890" width="140" height="30" fill="#D6E4F0" stroke="#333" stroke-width="1.5" rx="3"/>
  <text x="260" y="909" text-anchor="middle" font-family="Arial, sans-serif" font-size="12" font-weight="bold">MaintenancePlan</text>
  <rect x="430" y="940" width="140" height="30" fill="#D6E4F0" stroke="#333" stroke-width="1.5" rx="3"/>
  <text x="500" y="959" text-anchor="middle" font-family="Arial, sans-serif" font-size="12" font-weight="bold">MaintenancePlanTask</text>
  <rect x="680" y="80" width="140" height="30" fill="#D9EAD3" stroke="#333" stroke-width="1.5" rx="3"/>
  <text x="750" y="99" text-anchor="middle" font-family="Arial, sans-serif" font-size="12" font-weight="bold">Operator</text>
  <rect x="610" y="220" width="140" height="30" fill="#D9EAD3" stroke="#333" stroke-width="1.5" rx="3"/>
  <text x="680" y="239" text-anchor="middle" font-family="Arial, sans-serif" font-size="12" font-weight="bold">Registration</text>
  <rect x="880" y="680" width="140" height="30" fill="#E6D9F2" stroke="#333" stroke-width="1.5" rx="3"/>
  <text x="950" y="699" text-anchor="middle" font-family="Arial, sans-serif" font-size="12" font-weight="bold">RepairOrder</text>
  <rect x="1090" y="720" width="140" height="30" fill="#E6D9F2" stroke="#333" stroke-width="1.5" rx="3"/>
  <text x="1160" y="739" text-anchor="middle" font-family="Arial, sans-serif" font-size="12" font-weight="bold">RepairShop</text>
  <rect x="870" y="980" width="140" height="30" fill="#E6D9F2" stroke="#333" stroke-width="1.5" rx="3"/>
  <text x="940" y="999" text-anchor="middle" font-family="Arial, sans-serif" font-size="12" font-weight="bold">Task</text>
  <rect x="710" y="900" width="140" height="30" fill="#E6D9F2" stroke="#333" stroke-width="1.5" rx="3"/>
  <text x="780" y="919" text-anchor="middle" font-family="Arial, sans-serif" font-size="12" font-weight="bold">TaskType</text>
  <rect x="40" y="280" width="140" height="30" fill="#FCE5CD" stroke="#333" stroke-width="1.5" rx="3"/>
  <text x="110" y="299" text-anchor="middle" font-family="Arial, sans-serif" font-size="12" font-weight="bold">TransportOrder</text>
  <rect x="880" y="20" width="140" height="30" fill="#D9EAD3" stroke="#333" stroke-width="1.5" rx="3"/>
  <text x="950" y="39" text-anchor="middle" font-family="Arial, sans-serif" font-size="12" font-weight="bold">WetLease</text>
  <rect x="670" y="740" width="140" height="30" fill="#FCE5CD" stroke="#333" stroke-width="1.5" rx="3"/>
  <text x="740" y="759" text-anchor="middle" font-family="Arial, sans-serif" font-size="12" font-weight="bold">Workscope</text>

  <!-- Legend -->
  <text x="20" y="940" font-family="Arial, sans-serif" font-size="12" font-weight="bold">Areas:</text>
  <rect x="20" y="950" width="14" height="14" fill="#D6E4F0" stroke="#333" stroke-width="1"/>
  <text x="40" y="960" font-family="Arial, sans-serif" font-size="11">OEM</text>
  <rect x="20" y="970" width="14" height="14" fill="#D9EAD3" stroke="#333" stroke-width="1"/>
  <text x="40" y="980" font-family="Arial, sans-serif" font-size="11">Operations</text>
  <rect x="20" y="990" width="14" height="14" fill="#FCE5CD" stroke="#333" stroke-width="1"/>
  <text x="40" y="1000" font-family="Arial, sans-serif" font-size="11">Engine Management</text>
  <rect x="20" y="1010" width="14" height="14" fill="#E6D9F2" stroke="#333" stroke-width="1"/>
  <text x="40" y="1020" font-family="Arial, sans-serif" font-size="11">Maintenance &amp; Repair</text>
</svg>