<svg xmlns="http://www.w3.org/2000/svg" viewBox="0 0 1200 1200" width="1200" height="1200">
  <defs>
    <marker id="arrowhead" markerWidth="10" markerHeight="7" refX="9" refY="3.5" orient="auto">
      <polygon points="0 0, 10 3.5, 0 7" fill="#333"/>
    </marker>
  </defs>
  <rect width="1200" height="1200" fill="white"/>

  <!-- Relationships -->
  <path d="M 410 45 L 395 45 L 326 80" fill="none" stroke="#333" stroke-width="1" marker-end="url(#arrowhead)"/>
    <text x="360.5" y="57.5" text-anchor="middle" font-family="Arial, sans-serif" font-size="9" fill="#666" font-style="italic">type</text>
  <path d="M 550 45 L 565 45 L 770 37.41379310344828" fill="none" stroke="#333" stroke-width="1" marker-end="url(#arrowhead)"/>
    <text x="667.5" y="36.20689655172414" text-anchor="middle" font-family="Arial, sans-serif" font-size="9" fill="#666" font-style="italic">current_operator</text>
  <path d="M 220 95 L 205 95 L 136 60" fill="none" stroke="#333" stroke-width="1" marker-end="url(#arrowhead)"/>
    <text x="170.5" y="72.5" text-anchor="middle" font-family="Arial, sans-serif" font-size="9" fill="#666" font-style="italic">manufacturer</text>
  <path d="M 420 425 L 405 425 L 360 425" fill="none" stroke="#333" stroke-width="1" marker-end="url(#arrowhead)"/>
    <text x="382.5" y="420" text-anchor="middle" font-family="Arial, sans-serif" font-size="9" fill="#666" font-style="italic">type</text>
  <path d="M 420 425 L 435 425 L 477.63157894736844 60" fill="none" stroke="#333" stroke-width="1" marker-end="url(#arrowhead)"/>
    <text x="456.3157894736842" y="237.5" text-anchor="middle" font-family="Arial, sans-serif" font-size="9" fill="#666" font-style="italic">current_aircraft</text>
  <path d="M 540 275 L 525 275 L 483.9130434782609 60" fill="none" stroke="#333" stroke-width="1" marker-end="url(#arrowhead)"/>
    <text x="504.45652173913044" y="162.5" text-anchor="middle" font-family="Arial, sans-serif" font-size="9" fill="#666" font-style="italic">aircraft</text>
  <path d="M 540 275 L 525 275 L 495 410" fill="none" stroke="#333" stroke-width="1" marker-end="url(#arrowhead)"/>
    <text x="510" y="337.5" text-anchor="middle" font-family="Arial, sans-serif" font-size="9" fill="#666" font-style="italic">engine</text>
  <path d="M 220 285 L 235 285 L 284.4736842105263 110" fill="none" stroke="#333" stroke-width="1" marker-end="url(#arrowhead)"/>
    <text x="259.7368421052631" y="192.5" text-anchor="middle" font-family="Arial, sans-serif" font-size="9" fill="#666" font-style="italic">aircraft_type</text>
  <path d="M 220 285 L 235 285 L 282.5 410" fill="none" stroke="#333" stroke-width="1" marker-end="url(#arrowhead)"/>
    <text x="258.75" y="342.5" text-anchor="middle" font-family="Arial, sans-serif" font-size="9" fill="#666" font-style="italic">engine_type</text>
  <path d="M 220 425 L 205 425 L 145 450" fill="none" stroke="#333" stroke-width="1" marker-end="url(#arrowhead)"/>
    <text x="175" y="432.5" text-anchor="middle" font-family="Arial, sans-serif" font-size="9" fill="#666" font-style="italic">manufacturer</text>
  <path d="M 780 905 L 765 905 L 752.8125 760" fill="none" stroke="#333" stroke-width="1" marker-end="url(#arrowhead)"/>
    <text x="758.90625" y="827.5" text-anchor="middle" font-family="Arial, sans-serif" font-size="9" fill="#666" font-style="italic">task</text>
  <path d="M 800 155 L 815 155 L 835 50" fill="none" stroke="#333" stroke-width="1" marker-end="url(#arrowhead)"/>
    <text x="825" y="97.5" text-anchor="middle" font-family="Arial, sans-serif" font-size="9" fill="#666" font-style="italic">operator</text>
  <path d="M 660 155 L 645 155 L 504.5454545454545 60" fill="none" stroke="#333" stroke-width="1" marker-end="url(#arrowhead)"/>
    <text x="574.7727272727273" y="102.5" text-anchor="middle" font-family="Arial, sans-serif" font-size="9" fill="#666" font-style="italic">aircraft</text>
  <path d="M 420 735 L 405 735 L 250 699.5833333333334" fill="none" stroke="#333" stroke-width="1" marker-end="url(#arrowhead)"/>
    <text x="327.5" y="712.2916666666667" text-anchor="middle" font-family="Arial, sans-serif" font-size="9" fill="#666" font-style="italic">maintenance_plan</text>
  <path d="M 250 685 L 265 685 L 287.6923076923077 440" fill="none" stroke="#333" stroke-width="1" marker-end="url(#arrowhead)"/>
    <text x="276.3461538461538" y="557.5" text-anchor="middle" font-family="Arial, sans-serif" font-size="9" fill="#666" font-style="italic">engine_type</text>
  <path d="M 200 885 L 185 885 L 181.5 700" fill="none" stroke="#333" stroke-width="1" marker-end="url(#arrowhead)"/>
    <text x="183.25" y="787.5" text-anchor="middle" font-family="Arial, sans-serif" font-size="9" fill="#666" font-style="italic">maintenance_plan</text>
  <path d="M 340 885 L 355 885 L 445 920" fill="none" stroke="#333" stroke-width="1" marker-end="url(#arrowhead)"/>
    <text x="400" y="897.5" text-anchor="middle" font-family="Arial, sans-serif" font-size="9" fill="#666" font-style="italic">task_type</text>
  <path d="M 810 515 L 795 515 L 770 515" fill="none" stroke="#333" stroke-width="1" marker-end="url(#arrowhead)"/>
    <text x="782.5" y="510" text-anchor="middle" font-family="Arial, sans-serif" font-size="9" fill="#666" font-style="italic">workscope</text>
  <path d="M 810 515 L 825 515 L 870.4545454545455 420" fill="none" stroke="#333" stroke-width="1" marker-end="url(#arrowhead)"/>
    <text x="847.7272727272727" y="462.5" text-anchor="middle" font-family="Arial, sans-serif" font-size="9" fill="#666" font-style="italic">repair_shop</text>
  <path d="M 810 405 L 825 405 L 872.5 280" fill="none" stroke="#333" stroke-width="1" marker-end="url(#arrowhead)"/>
    <text x="848.75" y="337.5" text-anchor="middle" font-family="Arial, sans-serif" font-size="9" fill="#666" font-style="italic">mro</text>
  <path d="M 820 745 L 835 745 L 876.0869565217391 530" fill="none" stroke="#333" stroke-width="1" marker-end="url(#arrowhead)"/>
    <text x="855.5434782608695" y="632.5" text-anchor="middle" font-family="Arial, sans-serif" font-size="9" fill="#666" font-style="italic">repair_order</text>
  <path d="M 680 745 L 665 745 L 505 920" fill="none" stroke="#333" stroke-width="1" marker-end="url(#arrowhead)"/>
    <text x="585" y="827.5" text-anchor="middle" font-family="Arial, sans-serif" font-size="9" fill="#666" font-style="italic">task_type</text>
  <path d="M 630 515 L 615 515 L 513.3333333333334 440" fill="none" stroke="#333" stroke-width="1" marker-end="url(#arrowhead)"/>
    <text x="564.1666666666667" y="472.5" text-anchor="middle" font-family="Arial, sans-serif" font-size="9" fill="#666" font-style="italic">engine</text>
  <path d="M 630 515 L 615 515 L 499.54545454545456 720" fill="none" stroke="#333" stroke-width="1" marker-end="url(#arrowhead)"/>
    <text x="557.2727272727273" y="612.5" text-anchor="middle" font-family="Arial, sans-serif" font-size="9" fill="#666" font-style="italic">inspection_type</text>

  <!-- Class boxes -->
  <rect x="410" y="30" width="140" height="30" fill="#D9EAD3" stroke="#333" stroke-width="1.5" rx="3"/>
    <text x="480" y="49" text-anchor="middle" font-family="Arial, sans-serif" font-size="12" font-weight="bold">Aircraft</text>
  <rect x="30" y="30" width="140" height="30" fill="#D6E4F0" stroke="#333" stroke-width="1.5" rx="3"/>
    <text x="100" y="49" text-anchor="middle" font-family="Arial, sans-serif" font-size="12" font-weight="bold">AircraftManufacturer</text>
  <rect x="220" y="80" width="140" height="30" fill="#D6E4F0" stroke="#333" stroke-width="1.5" rx="3"/>
    <text x="290" y="99" text-anchor="middle" font-family="Arial, sans-serif" font-size="12" font-weight="bold">AircraftType</text>
  <rect x="420" y="410" width="140" height="30" fill="#FCE5CD" stroke="#333" stroke-width="1.5" rx="3"/>
    <text x="490" y="429" text-anchor="middle" font-family="Arial, sans-serif" font-size="12" font-weight="bold">Engine</text>
  <rect x="30" y="450" width="140" height="30" fill="#D6E4F0" stroke="#333" stroke-width="1.5" rx="3"/>
    <text x="100" y="469" text-anchor="middle" font-family="Arial, sans-serif" font-size="12" font-weight="bold">EngineManufacturer</text>
  <rect x="540" y="260" width="140" height="30" fill="#FCE5CD" stroke="#333" stroke-width="1.5" rx="3"/>
    <text x="610" y="279" text-anchor="middle" font-family="Arial, sans-serif" font-size="12" font-weight="bold">EngineMount</text>
  <rect x="220" y="270" width="140" height="30" fill="#D6E4F0" stroke="#333" stroke-width="1.5" rx="3"/>
    <text x="290" y="289" text-anchor="middle" font-family="Arial, sans-serif" font-size="12" font-weight="bold">EngineMountPossible</text>
  <rect x="220" y="410" width="140" height="30" fill="#D6E4F0" stroke="#333" stroke-width="1.5" rx="3"/>
    <text x="290" y="429" text-anchor="middle" font-family="Arial, sans-serif" font-size="12" font-weight="bold">EngineType</text>
  <rect x="780" y="890" width="140" height="30" fill="#E6D9F2" stroke="#333" stroke-width="1.5" rx="3"/>
    <text x="850" y="909" text-anchor="middle" font-family="Arial, sans-serif" font-size="12" font-weight="bold">Finding</text>
  <rect x="660" y="140" width="140" height="30" fill="#D9EAD3" stroke="#333" stroke-width="1.5" rx="3"/>
    <text x="730" y="159" text-anchor="middle" font-family="Arial, sans-serif" font-size="12" font-weight="bold">FleetMember</text>
  <rect x="420" y="720" width="140" height="30" fill="#FCE5CD" stroke="#333" stroke-width="1.5" rx="3"/>
    <text x="490" y="739" text-anchor="middle" font-family="Arial, sans-serif" font-size="12" font-weight="bold">InspectionType</text>
  <rect x="810" y="250" width="140" height="30" fill="#E6D9F2" stroke="#333" stroke-width="1.5" rx="3"/>
    <text x="880" y="269" text-anchor="middle" font-family="Arial, sans-serif" font-size="12" font-weight="bold">MRO</text>
  <rect x="110" y="670" width="140" height="30" fill="#D6E4F0" stroke="#333" stroke-width="1.5" rx="3"/>
    <text x="180" y="689" text-anchor="middle" font-family="Arial, sans-serif" font-size="12" font-weight="bold">MaintenancePlan</text>
  <rect x="200" y="870" width="140" height="30" fill="#D6E4F0" stroke="#333" stroke-width="1.5" rx="3"/>
    <text x="270" y="889" text-anchor="middle" font-family="Arial, sans-serif" font-size="12" font-weight="bold">MaintenancePlanTask</text>
  <rect x="770" y="20" width="140" height="30" fill="#D9EAD3" stroke="#333" stroke-width="1.5" rx="3"/>
    <text x="840" y="39" text-anchor="middle" font-family="Arial, sans-serif" font-size="12" font-weight="bold">Operator</text>
  <rect x="810" y="500" width="140" height="30" fill="#E6D9F2" stroke="#333" stroke-width="1.5" rx="3"/>
    <text x="880" y="519" text-anchor="middle" font-family="Arial, sans-serif" font-size="12" font-weight="bold">RepairOrder</text>
  <rect x="810" y="390" width="140" height="30" fill="#E6D9F2" stroke="#333" stroke-width="1.5" rx="3"/>
    <text x="880" y="409" text-anchor="middle" font-family="Arial, sans-serif" font-size="12" font-weight="bold">RepairShop</text>
  <rect x="680" y="730" width="140" height="30" fill="#E6D9F2" stroke="#333" stroke-width="1.5" rx="3"/>
    <text x="750" y="749" text-anchor="middle" font-family="Arial, sans-serif" font-size="12" font-weight="bold">Task</text>
  <rect x="420" y="920" width="140" height="30" fill="#E6D9F2" stroke="#333" stroke-width="1.5" rx="3"/>
    <text x="490" y="939" text-anchor="middle" font-family="Arial, sans-serif" font-size="12" font-weight="bold">TaskType</text>
  <rect x="630" y="500" width="140" height="30" fill="#FCE5CD" stroke="#333" stroke-width="1.5" rx="3"/>
    <text x="700" y="519" text-anchor="middle" font-family="Arial, sans-serif" font-size="12" font-weight="bold">Workscope</text>

  <!-- Legend -->
  <text x="20" y="1080" font-family="Arial, sans-serif" font-size="12" font-weight="bold">Areas:</text>
    <rect x="20" y="1090" width="14" height="14" fill="#D6E4F0" stroke="#333" stroke-width="1"/>
    <text x="40" y="1100" font-family="Arial, sans-serif" font-size="11">OEM</text>
    <rect x="20" y="1110" width="14" height="14" fill="#D9EAD3" stroke="#333" stroke-width="1"/>
    <text x="40" y="1120" font-family="Arial, sans-serif" font-size="11">Operations</text>
    <rect x="20" y="1130" width="14" height="14" fill="#FCE5CD" stroke="#333" stroke-width="1"/>
    <text x="40" y="1140" font-family="Arial, sans-serif" font-size="11">Engine Management</text>
    <rect x="20" y="1150" width="14" height="14" fill="#E6D9F2" stroke="#333" stroke-width="1"/>
    <text x="40" y="1160" font-family="Arial, sans-serif" font-size="11">Maintenance &amp; Repair</text>
</svg>