<svg xmlns="http://www.w3.org/2000/svg" viewBox="0 0 1200 2250" width="1200" height="2250">
  <defs>
    <marker id="arrowhead" markerWidth="10" markerHeight="7" refX="9" refY="3.5" orient="auto">
      <polygon points="0 0, 10 3.5, 0 7" fill="#333"/>
    </marker>
  </defs>
  <rect width="1200" height="2250" fill="white"/>

  <!-- Relationships -->
  <line x1="190" y1="197" x2="290" y2="189" stroke="#333" stroke-width="1" marker-end="url(#arrowhead)"/>
    <text x="200" y="191.2" font-family="Arial, sans-serif" font-size="10" fill="#666">*</text>
    <text x="240" y="188" text-anchor="middle" font-family="Arial, sans-serif" font-size="9" fill="#666" font-style="italic">type</text>
  <line x1="430" y1="189" x2="520" y2="173" stroke="#333" stroke-width="1" marker-end="url(#arrowhead)"/>
    <text x="439" y="182.4" font-family="Arial, sans-serif" font-size="10" fill="#666">*</text>
    <text x="475" y="176" text-anchor="middle" font-family="Arial, sans-serif" font-size="9" fill="#666" font-style="italic">manufacturer</text>

  <!-- Class boxes -->
  <rect x="50" y="125" width="140" height="144" fill="#D9EAD3" stroke="#333" stroke-width="1.5" rx="3"/>
    <text x="120" y="141" text-anchor="middle" font-family="Arial, sans-serif" font-size="12" font-weight="bold">Aircraft</text>
    <line x1="50" y1="149" x2="190" y2="149" stroke="#333" stroke-width="1"/>
    <text x="55" y="163" font-family="Arial, sans-serif" font-size="10">id: int</text>
    <text x="55" y="179" font-family="Arial, sans-serif" font-size="10">registration: string</text>
    <text x="55" y="195" font-family="Arial, sans-serif" font-size="10">serial_number: string</text>
    <text x="55" y="211" font-family="Arial, sans-serif" font-size="10">type_id: int</text>
    <text x="55" y="227" font-family="Arial, sans-serif" font-size="10">manufacture_datex: date</text>
    <text x="55" y="243" font-family="Arial, sans-serif" font-size="10">total_flight_hours: int</text>
    <text x="55" y="259" font-family="Arial, sans-serif" font-size="10">total_cycles: int</text>
  <rect x="290" y="125" width="140" height="128" fill="#D6E4F0" stroke="#333" stroke-width="1.5" rx="3"/>
    <text x="360" y="141" text-anchor="middle" font-family="Arial, sans-serif" font-size="12" font-weight="bold">AircraftType</text>
    <line x1="290" y1="149" x2="430" y2="149" stroke="#333" stroke-width="1"/>
    <text x="295" y="163" font-family="Arial, sans-serif" font-size="10">id: int</text>
    <text x="295" y="179" font-family="Arial, sans-serif" font-size="10">designation: string</text>
    <text x="295" y="195" font-family="Arial, sans-serif" font-size="10">name: string</text>
    <text x="295" y="211" font-family="Arial, sans-serif" font-size="10">manufacturer_id: int</text>
    <text x="295" y="227" font-family="Arial, sans-serif" font-size="10">max_passengers: int</text>
    <text x="295" y="243" font-family="Arial, sans-serif" font-size="10">max_range_nm: int</text>
  <rect x="520" y="125" width="140" height="96" fill="#D6E4F0" stroke="#333" stroke-width="1.5" rx="3"/>
    <text x="590" y="141" text-anchor="middle" font-family="Arial, sans-serif" font-size="12" font-weight="bold">AircraftManufacturer</text>
    <line x1="520" y1="149" x2="660" y2="149" stroke="#333" stroke-width="1"/>
    <text x="525" y="163" font-family="Arial, sans-serif" font-size="10">id: int</text>
    <text x="525" y="179" font-family="Arial, sans-serif" font-size="10">name: string</text>
    <text x="525" y="195" font-family="Arial, sans-serif" font-size="10">country: string</text>
    <text x="525" y="211" font-family="Arial, sans-serif" font-size="10">icao_code: string</text>

  <!-- Legend -->
  <text x="20" y="2130" font-family="Arial, sans-serif" font-size="12" font-weight="bold">Areas:</text>
    <rect x="20" y="2140" width="14" height="14" fill="#D6E4F0" stroke="#333" stroke-width="1"/>
    <text x="40" y="2150" font-family="Arial, sans-serif" font-size="11">OEM</text>
    <rect x="20" y="2160" width="14" height="14" fill="#D9EAD3" stroke="#333" stroke-width="1"/>
    <text x="40" y="2170" font-family="Arial, sans-serif" font-size="11">Operations</text>
    <rect x="20" y="2180" width="14" height="14" fill="#FCE5CD" stroke="#333" stroke-width="1"/>
    <text x="40" y="2190" font-family="Arial, sans-serif" font-size="11">Engine Management</text>
    <rect x="20" y="2200" width="14" height="14" fill="#E6D9F2" stroke="#333" stroke-width="1"/>
    <text x="40" y="2210" font-family="Arial, sans-serif" font-size="11">Maintenance &amp; Repair</text>
</svg>