<svg xmlns="http://www.w3.org/2000/svg" viewBox="0 0 850 492" width="850" height="492">
  <defs>
    <marker id="arrowhead" markerWidth="10" markerHeight="7" refX="9" refY="3.5" orient="auto">
      <polygon points="0 0, 10 3.5, 0 7" fill="#333"/>
    </marker>
    <clipPath id="clip-Building"><rect x="50" y="30" width="140" height="80" rx="3"/></clipPath>
    <clipPath id="clip-Meter"><rect x="420" y="40" width="140" height="144" rx="3"/></clipPath>
    <clipPath id="clip-MeterManufacturer"><rect x="150" y="280" width="140" height="64" rx="3"/></clipPath>
    <clipPath id="clip-MeterType"><rect x="50" y="130" width="140" height="80" rx="3"/></clipPath>
    <clipPath id="clip-Reading"><rect x="330" y="250" width="140" height="112" rx="3"/></clipPath>
    <clipPath id="clip-ResourceType"><rect x="660" y="100" width="140" height="80" rx="3"/></clipPath>
  </defs>
  <rect width="850" height="492" fill="white"/>

  <!-- Relationships -->
  <path d="M 420 172 L 395 172 L 190 170.5090909090909" fill="none" stroke="#333" stroke-width="1" marker-end="url(#arrowhead)"/>
  <path d="M 420 76 L 395 76 L 190 71.52727272727273" fill="none" stroke="#333" stroke-width="1" marker-end="url(#arrowhead)"/>
  <path d="M 560 140 L 585 140 L 660 140" fill="none" stroke="#333" stroke-width="1" marker-end="url(#arrowhead)"/>
  <path d="M 190 198 L 215 198 L 218.59649122807016 280" fill="none" stroke="#333" stroke-width="1" marker-end="url(#arrowhead)"/>
  <path d="M 470 286 L 495 286 L 492.0689655172414 184" fill="none" stroke="#333" stroke-width="1" marker-end="url(#arrowhead)"/>

  <!-- Class boxes -->
  <rect x="50" y="30" width="140" height="80" fill="white" stroke="#333" stroke-width="1.5" rx="3"/>
  <rect x="50" y="30" width="140" height="24" fill="#D9EAD3" clip-path="url(#clip-Building)"/>
  <text x="120" y="46" text-anchor="middle" font-family="Arial, sans-serif" font-size="12" font-weight="bold">Building</text>
  <line x1="50" y1="54" x2="190" y2="54" stroke="#333" stroke-width="1"/>
  <text x="55" y="69.5" font-family="Arial, sans-serif" font-size="10" fill="#000">name: string</text>
  <line x1="55" y1="71.5" x2="110.0244140625" y2="71.5" stroke="#000" stroke-width="1"/>
  <text x="55" y="85.5" font-family="Arial, sans-serif" font-size="10" fill="#000">address: string</text>
  <line x1="55" y1="87.5" x2="120.5859375" y2="87.5" stroke="#000" stroke-width="1" stroke-dasharray="3,2"/>
  <text x="55" y="101.5" font-family="Arial, sans-serif" font-size="10" fill="#000">building_type: string</text>
  <rect x="420" y="40" width="140" height="144" fill="white" stroke="#333" stroke-width="1.5" rx="3"/>
  <rect x="420" y="40" width="140" height="24" fill="#D6E4F0" clip-path="url(#clip-Meter)"/>
  <text x="490" y="56" text-anchor="middle" font-family="Arial, sans-serif" font-size="12" font-weight="bold">Meter</text>
  <line x1="420" y1="64" x2="560" y2="64" stroke="#333" stroke-width="1"/>
  <text x="425" y="79.5" font-family="Arial, sans-serif" font-size="10" font-weight="bold" fill="#000">building</text>
  <text x="425" y="95.5" font-family="Arial, sans-serif" font-size="10" fill="#000">serial_number: string</text>
  <text x="425" y="111.5" font-family="Arial, sans-serif" font-size="10" fill="#000">location_description: string</text>
  <text x="425" y="127.5" font-family="Arial, sans-serif" font-size="10" fill="#000">installation_date: date</text>
  <text x="425" y="143.5" font-family="Arial, sans-serif" font-size="10" font-weight="bold" fill="#000">resource_type</text>
  <text x="425" y="159.5" font-family="Arial, sans-serif" font-size="10" fill="#000">is_active: bool</text>
  <text x="425" y="175.5" font-family="Arial, sans-serif" font-size="10" font-weight="bold" fill="#000">type</text>
  <rect x="150" y="280" width="140" height="64" fill="white" stroke="#333" stroke-width="1.5" rx="3"/>
  <rect x="150" y="280" width="140" height="24" fill="#D9EAD3" clip-path="url(#clip-MeterManufacturer)"/>
  <text x="220" y="296" text-anchor="middle" font-family="Arial, sans-serif" font-size="12" font-weight="bold">MeterManufacturer</text>
  <line x1="150" y1="304" x2="290" y2="304" stroke="#333" stroke-width="1"/>
  <text x="155" y="319.5" font-family="Arial, sans-serif" font-size="10" fill="#000">name: string</text>
  <line x1="155" y1="321.5" x2="210.0244140625" y2="321.5" stroke="#000" stroke-width="1"/>
  <text x="155" y="335.5" font-family="Arial, sans-serif" font-size="10" fill="#000">country: string</text>
  <rect x="50" y="130" width="140" height="80" fill="white" stroke="#333" stroke-width="1.5" rx="3"/>
  <rect x="50" y="130" width="140" height="24" fill="#D9EAD3" clip-path="url(#clip-MeterType)"/>
  <text x="120" y="146" text-anchor="middle" font-family="Arial, sans-serif" font-size="12" font-weight="bold">MeterType</text>
  <line x1="50" y1="154" x2="190" y2="154" stroke="#333" stroke-width="1"/>
  <text x="55" y="169.5" font-family="Arial, sans-serif" font-size="10" fill="#000">name: string</text>
  <text x="55" y="185.5" font-family="Arial, sans-serif" font-size="10" fill="#000">description: string</text>
  <text x="55" y="201.5" font-family="Arial, sans-serif" font-size="10" font-weight="bold" fill="#000">manufacturer</text>
  <rect x="330" y="250" width="140" height="112" fill="white" stroke="#333" stroke-width="1.5" rx="3"/>
  <rect x="330" y="250" width="140" height="24" fill="#D6E4F0" clip-path="url(#clip-Reading)"/>
  <text x="400" y="266" text-anchor="middle" font-family="Arial, sans-serif" font-size="12" font-weight="bold">Reading</text>
  <line x1="330" y1="274" x2="470" y2="274" stroke="#333" stroke-width="1"/>
  <text x="335" y="289.5" font-family="Arial, sans-serif" font-size="10" font-weight="bold" fill="#000">meter</text>
  <text x="335" y="305.5" font-family="Arial, sans-serif" font-size="10" fill="#000">reading_at: date</text>
  <text x="335" y="321.5" font-family="Arial, sans-serif" font-size="10" fill="#000">value: int</text>
  <text x="335" y="337.5" font-family="Arial, sans-serif" font-size="10" fill="#000">source: string</text>
  <text x="335" y="353.5" font-family="Arial, sans-serif" font-size="10" fill="#C00000">usage: int</text>
  <rect x="660" y="100" width="140" height="80" fill="white" stroke="#333" stroke-width="1.5" rx="3"/>
  <rect x="660" y="100" width="140" height="24" fill="#D9EAD3" clip-path="url(#clip-ResourceType)"/>
  <text x="730" y="116" text-anchor="middle" font-family="Arial, sans-serif" font-size="12" font-weight="bold">ResourceType</text>
  <line x1="660" y1="124" x2="800" y2="124" stroke="#333" stroke-width="1"/>
  <text x="665" y="139.5" font-family="Arial, sans-serif" font-size="10" fill="#000">name: string</text>
  <line x1="665" y1="141.5" x2="720.0244140625" y2="141.5" stroke="#000" stroke-width="1"/>
  <text x="665" y="155.5" font-family="Arial, sans-serif" font-size="10" fill="#000">unit_of_measure: string</text>
  <text x="665" y="171.5" font-family="Arial, sans-serif" font-size="10" fill="#000">color: string</text>

  <!-- Legend -->
  <text x="20" y="412" font-family="Arial, sans-serif" font-size="12" font-weight="bold">Areas:</text>
  <text x="160" y="412" font-family="Arial, sans-serif" font-size="12" font-weight="bold">Types:</text>
  <rect x="20" y="422" width="14" height="14" fill="#D6E4F0" stroke="#333" stroke-width="1"/>
  <text x="40" y="432" font-family="Arial, sans-serif" font-size="11">Metering</text>
  <rect x="20" y="442" width="14" height="14" fill="#D9EAD3" stroke="#333" stroke-width="1"/>
  <text x="40" y="452" font-family="Arial, sans-serif" font-size="11">Static Data</text>

  <!-- Watermark -->
  <text x="835" y="412" text-anchor="end" font-family="Arial, sans-serif" font-size="11" fill="#555">Artificial Intelligence for Development Engineers</text>
  <text x="835" y="426" text-anchor="end" font-family="Arial, sans-serif" font-size="11" fill="#555">Rapid Application Prototype <tspan fill="#0066cc">(http://github.com/aide-examples)</tspan></text>
  <text x="835" y="440" text-anchor="end" font-family="Arial, sans-serif" font-size="11" fill="#555">15. Februar 2026</text>
</svg>