<svg xmlns="http://www.w3.org/2000/svg" viewBox="0 0 400 220" width="400" height="220">
  <defs>
    <linearGradient id="bg6" x1="0" y1="0" x2="1" y2="1">
      <stop offset="0%" stop-color="#f5eef8"/>
      <stop offset="100%" stop-color="#e8ddf0"/>
    </linearGradient>
  </defs>
  <rect width="400" height="220" rx="12" fill="url(#bg6)"/>
  <!-- People network -->
  <circle cx="120" cy="80" r="18" fill="#9a7ab5" opacity="0.7"/>
  <circle cx="200" cy="55" r="18" fill="#8a6aa5" opacity="0.7"/>
  <circle cx="280" cy="80" r="18" fill="#9a7ab5" opacity="0.7"/>
  <circle cx="150" cy="140" r="18" fill="#7a5a95" opacity="0.7"/>
  <circle cx="250" cy="140" r="18" fill="#7a5a95" opacity="0.7"/>
  <!-- Connections -->
  <line x1="120" y1="80" x2="200" y2="55" stroke="#b5a0c8" stroke-width="1.5"/>
  <line x1="200" y1="55" x2="280" y2="80" stroke="#b5a0c8" stroke-width="1.5"/>
  <line x1="120" y1="80" x2="150" y2="140" stroke="#b5a0c8" stroke-width="1.5"/>
  <line x1="280" y1="80" x2="250" y2="140" stroke="#b5a0c8" stroke-width="1.5"/>
  <line x1="150" y1="140" x2="250" y2="140" stroke="#b5a0c8" stroke-width="1.5"/>
  <line x1="120" y1="80" x2="280" y2="80" stroke="#b5a0c8" stroke-width="1" stroke-dasharray="4"/>
  <line x1="200" y1="55" x2="150" y2="140" stroke="#b5a0c8" stroke-width="1" stroke-dasharray="4"/>
  <line x1="200" y1="55" x2="250" y2="140" stroke="#b5a0c8" stroke-width="1" stroke-dasharray="4"/>
  <!-- Central star -->
  <circle cx="200" cy="105" r="22" fill="#7a5a95" opacity="0.2" stroke="#7a5a95" stroke-width="1.5"/>
  <text x="200" y="110" text-anchor="middle" font-family="Segoe UI, sans-serif" font-size="11" fill="#5a3a75" font-weight="700">RAP</text>
  <!-- Caption -->
  <text x="200" y="195" text-anchor="middle" font-family="Segoe UI, sans-serif" font-size="13" fill="#5a3a75" font-weight="600">Building a Community</text>
</svg>
