<svg xmlns="http://www.w3.org/2000/svg" viewBox="0 0 400 220" width="400" height="220">
  <defs>
    <linearGradient id="bg5" x1="0" y1="0" x2="1" y2="1">
      <stop offset="0%" stop-color="#eef0f8"/>
      <stop offset="100%" stop-color="#dce0f0"/>
    </linearGradient>
  </defs>
  <rect width="400" height="220" rx="12" fill="url(#bg5)"/>
  <!-- Turbine icon (simplified) -->
  <circle cx="160" cy="100" r="50" fill="none" stroke="#5a6a8a" stroke-width="2"/>
  <circle cx="160" cy="100" r="8" fill="#5a6a8a"/>
  <path d="M160 100 L160 52 Q175 65 168 100 Z" fill="#7a8aaa" opacity="0.7"/>
  <path d="M160 100 L205 118 Q185 130 160 108 Z" fill="#7a8aaa" opacity="0.7"/>
  <path d="M160 100 L118 125 Q115 105 152 100 Z" fill="#7a8aaa" opacity="0.7"/>
  <path d="M160 100 L143 55 Q155 58 160 92 Z" fill="#8a9aba" opacity="0.5"/>
  <path d="M160 100 L200 85 Q195 100 165 105 Z" fill="#8a9aba" opacity="0.5"/>
  <path d="M160 100 L130 140 Q125 125 155 105 Z" fill="#8a9aba" opacity="0.5"/>
  <!-- Text -->
  <text x="280" y="80" text-anchor="middle" font-family="Segoe UI, sans-serif" font-size="22" fill="#3a4a6a" font-weight="700">IRMA</text>
  <text x="280" y="102" text-anchor="middle" font-family="Segoe UI, sans-serif" font-size="10" fill="#5a6a8a">Intelligent Repair &amp;</text>
  <text x="280" y="117" text-anchor="middle" font-family="Segoe UI, sans-serif" font-size="10" fill="#5a6a8a">Maintenance in Aviation</text>
  <!-- Caption -->
  <text x="200" y="190" text-anchor="middle" font-family="Segoe UI, sans-serif" font-size="13" fill="#3a4a6a" font-weight="600">First Real-World Showcase</text>
</svg>
